SplineFontDB: 3.2
FontName: honchokomono-regular-italic
FullName: honchokomono greater
FamilyName: honchokomono-italic
Weight: regular
Copyright: Copyright (c) 2024, honchokomodo
UComments: "2024-6-9: Created with FontForge (http://fontforge.org)"
Version: 001.000
ItalicAngle: -12
UnderlinePosition: 0
UnderlineWidth: 0
Ascent: 800
Descent: 200
InvalidEm: 0
LayerCount: 2
Layer: 0 0 "Back" 1
Layer: 1 0 "Fore" 0
XUID: [1021 669 1385941162 1060273]
FSType: 0
OS2Version: 4
OS2_WeightWidthSlopeOnly: 0
OS2_UseTypoMetrics: 1
CreationTime: 1717993120
ModificationTime: 1734655507
PfmFamily: 49
TTFWeight: 400
TTFWidth: 5
LineGap: 68
VLineGap: 0
OS2TypoAscent: 977
OS2TypoAOffset: 0
OS2TypoDescent: -273
OS2TypoDOffset: 0
OS2TypoLinegap: 0
OS2WinAscent: 977
OS2WinAOffset: 0
OS2WinDescent: 273
OS2WinDOffset: 0
HheadAscent: 977
HheadAOffset: 0
HheadDescent: -205
HheadDOffset: 0
OS2CapHeight: 735
OS2XHeight: 530
OS2Vendor: 'PfEd'
Lookup: 1 0 0 "rightarrowhead" { "rightarrowhead-1"  } ['aalt' ('DFLT' <'dflt' > 'latn' <'dflt' > ) ]
Lookup: 1 0 0 "leftarrowhead" { "leftarrowhead-1"  } ['aalt' ('DFLT' <'dflt' > 'latn' <'dflt' > ) ]
Lookup: 1 0 0 "longequal" { "longequal-1"  } ['aalt' ('DFLT' <'dflt' > 'latn' <'dflt' > ) ]
Lookup: 1 0 0 "rightequal" { "rightequal-1"  } ['aalt' ('DFLT' <'dflt' > 'latn' <'dflt' > ) ]
Lookup: 1 0 0 "leftequal" { "leftequal-1"  } ['aalt' ('DFLT' <'dflt' > 'latn' <'dflt' > ) ]
Lookup: 1 0 0 "longhyphen" { "longhyphen-1"  } ['aalt' ('DFLT' <'dflt' > 'latn' <'dflt' > ) ]
Lookup: 1 0 0 "righthyphen" { "righthyphen-1"  } ['aalt' ('DFLT' <'dflt' > 'latn' <'dflt' > ) ]
Lookup: 1 0 0 "lefthyphen" { "lefthyphen-1"  } ['aalt' ('DFLT' <'dflt' > 'latn' <'dflt' > ) ]
Lookup: 6 0 0 "caltrules" { "rightarrowhead"  "leftarrowhead"  "longequal"  "rightequal"  "leftequal"  "longhyphen"  "righthyphen"  "lefthyphen"  } ['calt' ('DFLT' <'dflt' > 'latn' <'dflt' > ) ]
Lookup: 4 0 1 "ligatures" { "ligatures-1"  } ['liga' ('DFLT' <'dflt' > 'latn' <'dflt' > ) ]
MarkAttachClasses: 1

StartChar: exclam
Encoding: 33 33 1
Width: 500
Flags: HW
LayerCount: 2
Fore
SplineSet
269.602539062 268.758789062 m 0
 269.033760523 266.007959367 268.761466278 263.275146128 268.761466278 260.590207564 c 0
 268.761466278 239.073188428 286.249217598 220.630859375 308.774414062 220.630859375 c 0
 328.06640625 220.630859375 344.186523438 234.318359375 347.946289062 252.502929688 c 0
 369.920898438 358.7890625 426.934570312 543.282226562 451.198242188 673.581054688 c 0
 451.662482837 676.073960672 451.885557351 678.547942029 451.885557351 680.981233119 c 0
 451.885557351 702.559280874 434.343273927 720.9375 411.875 720.9375 c 0
 392.311523438 720.9375 376.008789062 706.862304688 372.551757812 688.293945312 c 0
 349.728515625 565.733398438 291.408203125 374.23046875 269.602539062 268.758789062 c 0
260.834960938 -5.478515625 m 0
 298.99609375 -5.478515625 323.474609375 29.12109375 323.474609375 58.98828125 c 0
 323.474609375 92.103515625 296.58984375 118.98828125 263.474609375 118.98828125 c 0
 240.549804688 118.98828125 220.611328125 106.103515625 210.510742188 87.1884765625 c 0
 203.82561956 76.9164925355 200.791977319 65.7500746089 200.791977319 54.8413684695 c 0
 200.791977319 23.6263471963 225.631608763 -5.478515625 260.834960938 -5.478515625 c 0
EndSplineSet
EndChar

StartChar: quotedbl
Encoding: 34 34 2
Width: 500
Flags: HW
LayerCount: 2
Fore
SplineSet
525.93359375 695.40625 m 0
 527.183363005 699.402769891 527.77150702 703.41611016 527.77150702 707.343797291 c 0
 527.77150702 728.597846825 510.54912226 747.34375 487.748046875 747.34375 c 0
 469.828125 747.34375 454.645507812 735.53515625 449.5625 719.28125 c 0
 441.30078125 692.860351562 409.481445312 568.568359375 404.758789062 556.435546875 c 0
 402.891071653 551.637342889 402.021310238 546.757630489 402.021310238 541.989306121 c 0
 402.021310238 520.875867347 419.073749133 501.946289062 442.049804688 501.946289062 c 0
 459.017578125 501.946289062 473.53125 512.534179688 479.340820312 527.45703125 c 0
 489.080078125 552.4765625 515.572265625 662.274414062 525.93359375 695.40625 c 0
382.03515625 688.759765625 m 0
 383.284964178 692.756561509 383.873129678 696.770155051 383.873129678 700.698066931 c 0
 383.873129678 721.952553406 366.651378614 740.698242188 343.849609375 740.698242188 c 0
 325.930664062 740.698242188 310.747070312 728.889648438 305.6640625 712.63671875 c 0
 297.40234375 686.215820312 265.58203125 561.923828125 260.859375 549.791015625 c 0
 258.991657591 544.992811639 258.121896176 540.113099239 258.121896176 535.344774871 c 0
 258.121896176 514.231336097 275.17433507 495.301757812 298.150390625 495.301757812 c 0
 315.118164062 495.301757812 329.631835938 505.889648438 335.44140625 520.8125 c 0
 345.174804688 545.817382812 371.685546875 655.666015625 382.03515625 688.759765625 c 0
EndSplineSet
EndChar

StartChar: numbersign
Encoding: 35 35 3
Width: 500
Flags: HW
LayerCount: 2
Fore
SplineSet
91.4736328125 249.692382812 m 0
 91.4736328125 227.607471664 109.406290791 209.692790779 131.46963218 209.692790779 c 0
 131.728218231 209.692790779 131.987371681 209.695251581 132.247070312 209.700195312 c 0
 137.248333107 209.795257162 142.147016973 209.888369236 146.945929874 209.979588031 c 1
 126.277948054 155.357919107 105.24210156 101.260907698 84.189453125 49.3076171875 c 0
 82.1820567937 44.3536928217 81.2491188722 39.2999463523 81.2491188722 34.36255611 c 0
 81.2491188722 13.2747935956 98.2675233585 -5.6904296875 121.278320312 -5.6904296875 c 0
 138.052734375 -5.6904296875 152.428710938 4.6572265625 158.3671875 19.3115234375 c 0
 183.558335766 81.4778333636 208.645882539 146.459483314 233.069335947 211.618128822 c 1
 266.0801296 212.247400519 292.157645243 212.747020567 313.551922232 213.16226132 c 1
 264.389338928 86.3047519848 264.389338928 86.3047519848 251.284179688 51.771484375 c 0
 249.500162654 47.0704944249 248.668326479 42.2983008493 248.668326479 37.634358333 c 0
 248.668326479 16.5051386758 265.740874426 -2.40234375 288.696289062 -2.40234375 c 0
 305.783203125 -2.40234375 320.381835938 8.3349609375 326.108398438 23.423828125 c 0
 332.752585556 40.9317720118 332.752585556 40.9317720118 400.03962934 214.922016276 c 1
 417.654604729 215.309657609 434.323275963 215.700493249 457.67578125 216.248046875 c 0
 479.3125 216.755859375 496.721679688 234.479492188 496.721679688 256.237304688 c 0
 496.721679688 278.325769865 478.784148419 296.237794713 456.72512128 296.237794713 c 0
 456.40678472 296.237794713 456.087589827 296.234064402 455.767578125 296.2265625 c 0
 446.669015369 296.013082158 438.587314084 295.823460521 431.068699457 295.648565357 c 1
 450.622288308 346.923464387 470.187714354 399.172639542 488.760141867 450.823945798 c 1
 502.790130196 451.406990422 516.873994534 451.97186107 530.974609375 452.495117188 c 0
 552.353515625 453.288085938 569.467773438 470.89453125 569.467773438 492.466796875 c 0
 569.467773438 514.54296875 551.543945312 532.466796875 529.467773438 532.466796875 c 0
 527.16412498 532.466796875 522.994029945 532.345150047 517.276137881 532.130175453 c 1
 534.928067804 583.918469342 550.981084757 634.207201933 564.356445312 681.30859375 c 0
 565.399620388 684.98213887 565.8926743 688.657334966 565.8926743 692.257032295 c 0
 565.8926743 713.573905886 548.602098458 732.243164062 525.872070312 732.243164062 c 0
 507.5859375 732.243164062 492.149414062 719.946289062 487.387695312 703.177734375 c 0
 472.005053719 649.008552048 452.692772828 589.734930155 431.299513112 528.383305794 c 1
 404.701960147 527.246331958 375.337264456 526.07435865 346.523969949 525.162311947 c 1
 397.995178116 670.743537015 397.995178116 670.743537015 400.547851562 677.912109375 c 0
 402.136730883 682.374003079 402.879885738 686.884837625 402.879885738 691.295110111 c 0
 402.879885738 712.465306971 385.756159879 731.318359375 362.853515625 731.318359375 c 0
 345.478515625 731.318359375 330.67578125 720.215820312 325.159179688 704.724609375 c 0
 314.564702968 674.972983814 261.693944297 525.301883847 261.051874559 523.489889511 c 0
 260.321802403 523.489889511 259.595495192 523.48828125 258.873046875 523.48828125 c 0
 210.633789062 523.48828125 188.134765625 525.4921875 184.125 525.4921875 c 0
 162.048828125 525.4921875 144.125 507.568359375 144.125 485.4921875 c 0
 144.125 464.247070312 160.723632812 446.848632812 181.6484375 445.567382812 c 0
 197.404468638 444.602984476 212.752444634 443.842454022 232.592356325 443.528780439 c 1
 214.759935785 393.689608387 196.150840282 342.247976765 177.060413408 290.565978321 c 1
 162.662320433 290.292161211 147.242824815 289.999040989 130.700195312 289.684570312 c 0
 108.979492188 289.272460938 91.4736328125 271.510742188 91.4736328125 249.692382812 c 0
317.85610843 444.358229014 m 1
 341.205236192 444.97224839 368.867738957 445.899393336 402.287279724 447.211254642 c 1
 383.595077358 396.025738562 364.050089142 344.332830562 344.663475455 293.787898583 c 1
 324.002041152 293.376842274 298.17282427 292.876852162 262.931664588 292.202514376 c 1
 281.904724601 343.948296671 300.307766013 395.113550248 317.85610843 444.358229014 c 1
EndSplineSet
EndChar

StartChar: dollar
Encoding: 36 36 4
Width: 500
Flags: HW
LayerCount: 2
Fore
SplineSet
90.4853515625 184.271484375 m 0
 90.4853515625 150.784275628 145.422716353 122.624249615 161.265528548 115.199268917 c 1
 150.009416204 89.0415811561 139.341411307 63.6969856856 129.483398438 39.4873046875 c 0
 127.458287784 34.5141445909 126.517355769 29.4388250469 126.517355769 24.4805123817 c 0
 126.517355769 3.39571614732 143.532249581 -15.5732421875 166.546875 -15.5732421875 c 0
 183.296875 -15.5732421875 197.65625 -5.2548828125 203.610351562 9.3662109375 c 0
 214.918116961 37.1366076565 226.902749564 65.5790145486 239.351094096 94.4466399936 c 1
 247.01859606 93.7578015053 254.706940116 93.4216528274 262.384958302 93.4216528274 c 0
 380.377094289 93.4216528274 495.930664062 172.806801217 495.930664062 271.545898438 c 0
 495.930664062 329.806936917 457.120869549 380.621748201 385.856743082 420.007918324 c 1
 410.836165359 475.19070761 434.621113642 528.613304154 455.729132604 578.704277935 c 1
 470.500563863 573.303948623 485.373165483 565.585453745 500.018554688 555.134765625 c 0
 507.202837855 550.007893174 515.171808612 547.691048639 522.96233287 547.691048639 c 0
 543.722674385 547.691048639 563.215820312 564.143571826 563.215820312 587.715820312 c 0
 563.215820312 601.147460938 556.581054688 613.041992188 546.413085938 620.296875 c 0
 526.694709134 634.36776086 506.356030777 645.092657416 485.859082068 652.844472394 c 1
 491.911805278 668.422037409 497.57497054 683.530657748 502.791992188 698.110351562 c 0
 504.394987431 702.589984802 505.144572373 707.120147182 505.144572373 711.549216944 c 0
 505.144572373 732.715637347 488.025089285 751.573242188 465.118164062 751.573242188 c 0
 447.764648438 751.573242188 432.9765625 740.498046875 427.444335938 725.036132812 c 0
 421.216243591 707.631062464 414.036770247 688.81311169 406.072758744 668.824269934 c 1
 403.429708709 668.909234244 400.794295405 668.95129415 398.167565158 668.95129415 c 0
 286.562677385 668.95129415 190.6328125 593.022975878 190.6328125 505.940429688 c 0
 190.6328125 477.240442171 201.990877646 421.869658458 280.312776703 381.169883176 c 1
 251.075767614 316.799933064 221.1914344 251.281181389 193.337316785 188.497141268 c 1
 180.852108274 194.603253408 169.007574655 202.713408096 158.198242188 213.10546875 c 0
 150.174887113 220.819174349 140.440271169 224.269523946 130.883587453 224.269523946 c 0
 110.27057156 224.269523946 90.4853515625 208.217427843 90.4853515625 184.271484375 c 0
313.389679436 454.22716504 m 1
 292.489580011 465.717987398 270.6328125 483.176762213 270.6328125 505.940429688 c 0
 270.6328125 538.336582539 313.938630303 577.294042772 371.963768566 586.770722137 c 1
 354.037729065 545.02092013 334.16200749 500.330606237 313.389679436 454.22716504 c 1
274.169593277 173.773591025 m 1
 288.916719162 206.875768542 297.138631742 225.331107695 352.657957757 347.026767537 c 1
 404.621177959 317.117769752 415.930664062 288.550253929 415.930664062 271.545898438 c 0
 415.930664062 226.202804565 347.450545917 178.662339072 274.169593277 173.773591025 c 1
EndSplineSet
EndChar

StartChar: percent
Encoding: 37 37 5
Width: 500
Flags: HW
LayerCount: 2
Fore
SplineSet
389.227539062 145.041992188 m 1
 389.274414062 175.245117188 401.686523438 229.591796875 424.788085938 260.995117188 c 1
 424.69140625 230.106445312 412.514648438 174.000976562 389.227539062 145.041992188 c 1
374.965820312 53.7265625 m 0
 456.236674263 53.7265625 504.696166436 171.074046548 504.696166436 257.892958255 c 0
 504.696166436 289.373522898 498.324761461 316.840221754 484.8359375 333.243164062 c 0
 474.975585938 345.233398438 458.306640625 354.881835938 439.810546875 354.881835938 c 0
 362.658345503 354.881835938 309.346456521 238.329607237 309.346456521 150.241053485 c 0
 309.346456521 96.7324857566 329.017697747 53.7265625 374.965820312 53.7265625 c 0
565.765625 647.596679688 m 0
 570.024729466 654.333776927 571.960138757 661.615782963 571.960138757 668.728584369 c 0
 571.960138757 689.554415724 555.368237671 708.9296875 531.930664062 708.9296875 c 0
 517.694335938 708.9296875 505.185546875 701.4765625 498.095703125 690.262695312 c 0
 494.138462251 684.003183758 159.203361999 171.169726218 95.294921875 68.841796875 c 0
 91.1166606826 62.1518399186 89.2168849928 54.9374750785 89.2168849928 47.8911588516 c 0
 89.2168849928 27.0587930708 105.82251096 7.6953125 129.247070312 7.6953125 c 0
 143.5625 7.6953125 156.130859375 15.2314453125 163.19921875 26.548828125 c 0
 225.979698005 127.070268779 561.810668698 641.340935512 565.765625 647.596679688 c 0
237.826171875 468.569335938 m 1
 239.3125 507.038085938 264.713867188 569.883789062 290.111328125 602.682617188 c 1
 290.02734375 564.356445312 265.53515625 496.168945312 237.826171875 468.569335938 c 1
229.849609375 381.303710938 m 0
 312.384765625 381.303710938 370.111328125 523.95703125 370.111328125 602.865234375 c 0
 370.111328125 662.747967684 336.588860061 694.59293349 299.048330226 694.59293349 c 0
 280.440533098 694.59293349 260.845534625 686.768914133 243.856445312 670.657226562 c 0
 200.643554688 629.677734375 157.768554688 530.916992188 157.768554688 465.727539062 c 0
 157.768554688 401.745117188 198 381.303710938 229.849609375 381.303710938 c 0
EndSplineSet
EndChar

StartChar: ampersand
Encoding: 38 38 6
Width: 500
Flags: HW
LayerCount: 2
Fore
SplineSet
345.481445312 181.51953125 m 1
 321.638671875 155.948242188 265.022460938 101.7890625 213.184570312 101.7890625 c 0
 199.483398438 101.7890625 180.1640625 106.0234375 172.811523438 128.166992188 c 0
 168.106485045 142.336581316 165.843812251 156.33249633 165.843812251 170.237085444 c 0
 165.843812251 224.632368649 200.471852991 277.629996404 258.969726562 334.16015625 c 1
 277.95703125 281.977539062 306.734375 229.88671875 345.481445312 181.51953125 c 1
324.482421875 392.45703125 m 1
 409.217773438 464.419921875 503.890625 554.409179688 503.890625 629.122070312 c 0
 503.890625 670.80078125 473.3359375 708.837890625 410.697265625 708.837890625 c 0
 367.979492188 708.837890625 318.32421875 690.899414062 290.044921875 659.354492188 c 0
 268.350150899 635.155791852 231.050983676 579.752343881 231.050983676 484.904274456 c 0
 231.050983676 465.595385711 232.596795785 444.65176949 236.134765625 422.00390625 c 1
 174.952318618 368.089197291 85.7296055051 280.520022072 85.7296055051 170.252783045 c 0
 85.7296055051 148.667486774 89.1486004001 126.212405652 96.8662109375 102.969726562 c 0
 112.339620095 56.3725099259 154.946389577 21.7401189154 213.152353694 21.7401189154 c 0
 265.561991724 21.7401189154 330.618688122 49.8183550558 399.90234375 122.522460938 c 1
 409.114257812 113.821289062 418.709960938 105.321289062 428.688476562 97.0478515625 c 0
 436.3531928 90.6934122366 445.202675354 87.83869513 453.869003536 87.83869513 c 0
 474.552831015 87.83869513 494.193359375 104.099971412 494.193359375 127.853515625 c 0
 494.193359375 140.240234375 488.55078125 151.319335938 479.698242188 158.659179688 c 0
 469.788085938 166.875 460.333984375 175.348632812 451.331054688 184.038085938 c 1
 462.596679688 199.204101562 473.901367188 215.5625 485.227539062 233.170898438 c 0
 489.604380953 239.974658339 491.591622857 247.353609758 491.591622857 254.561745947 c 0
 491.591622857 275.37792149 475.018412124 294.76953125 451.5625 294.76953125 c 0
 437.439453125 294.76953125 425.015625 287.43359375 417.897460938 276.368164062 c 0
 410.942382812 265.556640625 404.04296875 255.342773438 397.212890625 245.702148438 c 1
 362.061523438 293.240234375 338.028320312 343.899414062 324.482421875 392.45703125 c 1
423.682617188 627.098632812 m 1
 422.629882812 620.681640625 415.682617188 581.315429688 311.197265625 486.891601562 c 1
 311.69140625 538.5703125 326.463867188 580.154296875 349.623046875 605.987304688 c 0
 360.439636284 618.05245306 388.589198308 628.828415156 410.314060481 628.828415156 c 0
 415.181893664 628.828415156 419.727167109 628.287395095 423.682617188 627.098632812 c 1
EndSplineSet
EndChar

StartChar: quotesingle
Encoding: 39 39 7
Width: 500
Flags: HW
LayerCount: 2
Fore
SplineSet
442.03515625 688.759765625 m 0
 443.284964178 692.756561509 443.873129678 696.770155051 443.873129678 700.698066931 c 0
 443.873129678 721.952553406 426.651378614 740.698242188 403.849609375 740.698242188 c 0
 385.930664062 740.698242188 370.747070312 728.889648438 365.6640625 712.63671875 c 0
 357.40234375 686.215820312 325.58203125 561.923828125 320.859375 549.791015625 c 0
 318.991657591 544.992811639 318.121896176 540.113099239 318.121896176 535.344774871 c 0
 318.121896176 514.231336097 335.17433507 495.301757812 358.150390625 495.301757812 c 0
 375.118164062 495.301757812 389.631835938 505.889648438 395.44140625 520.8125 c 0
 405.174804688 545.817382812 431.685546875 655.666015625 442.03515625 688.759765625 c 0
EndSplineSet
EndChar

StartChar: parenleft
Encoding: 40 40 8
Width: 500
Flags: HW
LayerCount: 2
Fore
SplineSet
550.173828125 710.989257812 m 0
 550.173828125 734.765396479 531.12883 752.317897515 501.480314339 752.317897515 c 0
 488.9845949 752.317897515 474.605371322 749.200044571 458.974609375 742.116210938 c 0
 348.488481256 692.044737432 158.442408946 420.45710357 158.442408946 212.890901538 c 0
 158.442408946 167.393490648 167.573422489 124.972073668 188.674804688 88.6337890625 c 0
 216.301757812 41.05859375 263.95703125 5.76953125 328.98046875 -11.6376953125 c 0
 332.465963619 -12.5706663692 335.946513056 -13.0127616969 339.357370729 -13.0127616969 c 0
 360.713157226 -13.0127616969 379.336914062 4.31808859014 379.336914062 27.0068359375 c 0
 379.336914062 45.5029296875 366.756835938 61.0830078125 349.693359375 65.6513671875 c 0
 299.592773438 79.0625 238.262695312 110.294921875 238.262695312 212.971679688 c 0
 238.262695312 381.565429688 401.348632812 620.3203125 486.827148438 666.659179688 c 1
 500.876953125 672.077148438 l 1
 504.015007259 671.329055691 507.139723642 670.972866418 510.205290398 670.972866418 c 0
 531.634741301 670.972866418 550.173828125 688.378160572 550.173828125 710.989257812 c 0
EndSplineSet
EndChar

StartChar: parenright
Encoding: 41 41 9
Width: 500
Flags: HW
LayerCount: 2
Fore
SplineSet
398.366210938 739.985351562 m 0
 390.079907909 749.972697015 379.002134768 754.42687831 368.074032939 754.42687831 c 0
 347.55792435 754.42687831 327.569335938 738.728008004 327.569335938 714.469726562 c 0
 327.569335938 704.774414062 331.026367188 695.880859375 336.772460938 688.954101562 c 0
 385.576171875 630.131835938 407.359375 559.950195312 407.359375 485.486328125 c 0
 407.359375 322.40234375 301.512695312 144.87109375 151.291992188 53.8623046875 c 0
 138.03818604 45.8327005547 132.103617782 32.9935634408 132.103617782 20.2340561623 c 0
 132.103617782 -0.17181659656 147.282216164 -20.3740234375 171.975585938 -20.3740234375 c 0
 179.54296875 -20.3740234375 186.622070312 -18.2685546875 192.659179688 -14.6103515625 c 0
 367.311239705 91.1988053688 487.3207658 294.149001108 487.3207658 485.639549843 c 0
 487.3207658 576.952532911 460.031861704 665.65971277 398.366210938 739.985351562 c 0
EndSplineSet
EndChar

StartChar: asterisk
Encoding: 42 42 10
Width: 500
Flags: HW
LayerCount: 2
Fore
SplineSet
254 483.734375 m 0
 230.845850961 483.734375 213.968483108 464.626019034 213.968483108 443.637466602 c 0
 213.968483108 437.975433038 215.196727026 432.176568903 217.861328125 426.579101562 c 0
 228.205183367 404.847624405 243.826126661 385.023774318 264.869526152 366.446322732 c 1
 232.074347247 348.441197098 203.001512521 330.323935178 186.712890625 311.779296875 c 0
 173.410689128 296.63465097 168.099596763 282.348365212 168.099596763 270.104463215 c 0
 168.099596763 246.544618238 187.764373576 230.546875 208 230.546875 c 0
 225.661132812 230.546875 240.6640625 242.017578125 245.958984375 257.909179688 c 0
 252.430908742 265.318827371 263.864496027 273.399613675 278.425596753 282.106261505 c 1
 272.309821605 260.818698586 265.258178618 239.540799238 256 214.674804688 c 0
 254.276868363 210.046477984 253.472662383 205.354127517 253.472662383 200.767664106 c 0
 253.472662383 179.626071671 270.560488819 160.734375 293.5 160.734375 c 0
 310.674804688 160.734375 325.3359375 171.583007812 331 186.794921875 c 0
 345.821100465 226.602165474 355.658610631 259.091183748 364.49991723 294.618385262 c 1
 373.665376671 287.045524285 379.575056038 280.226973301 380.23828125 274.159179688 c 0
 382.426757812 254.143554688 399.40625 238.546875 420 238.546875 c 0
 442.979280798 238.546875 459.68254629 255.814940187 459.68254629 280.718741611 c 0
 459.68254629 302.392488771 447.031160477 329.849694569 414.854937427 356.740905029 c 1
 462.750165245 385.931152092 485.292112389 408.367967949 499.401367188 429.731445312 c 0
 503.960629165 436.634741839 506.028147331 444.161657162 506.028147331 451.515504531 c 0
 506.028147331 472.317346059 489.484788963 491.734375 466 491.734375 c 0
 452.049804688 491.734375 439.756835938 484.577148438 432.598632812 473.737304688 c 0
 424.997581054 462.228500916 412.105196946 450.910285301 396.006140609 439.710137667 c 1
 400.456357959 460.913259468 405.436174367 484.372594898 411.17578125 510.727539062 c 0
 411.804544228 513.614729872 412.104973874 516.485044347 412.104973874 519.303568231 c 0
 412.104973874 540.789408162 394.646590807 559.265625 372.090820312 559.265625 c 0
 352.944335938 559.265625 336.921875 545.784179688 333.005859375 527.803710938 c 0
 324.859006344 490.39650833 318.228576992 458.765842504 312.505936594 431.301034782 c 1
 302.980708115 440.449677064 295.252081301 450.14878379 290.138671875 460.890625 c 0
 283.711914062 474.392578125 269.938476562 483.734375 254 483.734375 c 0
EndSplineSet
EndChar

StartChar: plus
Encoding: 43 43 11
Width: 500
Flags: HW
LayerCount: 2
Fore
SplineSet
266.62109375 393.6875 m 0
 232.658203125 393.6875 210.516601562 396.84765625 209.948242188 396.84765625 c 0
 187.872070312 396.84765625 169.948242188 378.924804688 169.948242188 356.84765625 c 0
 169.948242188 336.858398438 184.643554688 320.274414062 203.810546875 317.317382812 c 0
 220.925842979 314.676765924 242.866530413 313.666109849 266.998933869 313.666109849 c 0
 271.103580331 313.666109849 275.271633418 313.695348259 279.490133646 313.750777676 c 1
 270.571713485 272.662550314 262.487128029 237.261663699 257.467773438 219.608398438 c 0
 256.422112716 215.93064981 255.927910057 212.251083413 255.927910057 208.647143499 c 0
 255.927910057 187.330787186 273.217151415 168.66015625 295.948242188 168.66015625 c 0
 314.23046875 168.66015625 329.6640625 180.951171875 334.4296875 197.712890625 c 0
 341.327494342 221.973052753 351.542964563 267.42109457 362.175723095 317.166527985 c 0
 363.025392939 317.218361232 442.053504186 322.531233697 447.122070312 322.677734375 c 0
 468.657226562 323.298828125 485.948242188 340.9765625 485.948242188 362.66015625 c 0
 485.948242188 384.737304688 468.025390625 402.66015625 445.948242188 402.66015625 c 0
 437.776412146 402.66015625 411.675228245 400.582085491 379.220587566 398.426082051 c 1
 379.419743194 399.388181533 396.02302942 479.886340358 399.104492188 494.642578125 c 0
 399.684403644 497.419203359 399.961925511 500.178001411 399.961925511 502.888196833 c 0
 399.961925511 524.398777202 382.479557842 542.84765625 359.948242188 542.84765625 c 0
 340.684570312 542.84765625 324.58203125 529.200195312 320.79296875 511.053710938 c 0
 320.548898945 509.885263819 301.346641684 417.006380961 296.573147566 394.170060864 c 1
 286.258654171 393.864996699 276.178313604 393.6875 266.62109375 393.6875 c 0
EndSplineSet
EndChar

StartChar: comma
Encoding: 44 44 12
Width: 500
Flags: HW
LayerCount: 2
Fore
SplineSet
139.606445312 -70.55078125 m 0
 139.606445312 -93.2866761991 156.374315034 -110.370539437 182.472853017 -110.370539437 c 0
 201.396170262 -110.370539437 225.224893204 -101.38905197 251.124023438 -79.068359375 c 0
 331.015625 -10.22265625 344.393554688 106.737304688 344.393554688 118.572265625 c 0
 344.393554688 140.6484375 326.469726562 158.572265625 304.393554688 158.572265625 c 0
 283.969726562 158.572265625 267.099609375 143.231445312 264.689453125 123.454101562 c 0
 252.905561677 26.7848941031 200.815876984 -24.2146602376 179.53125 -30.55078125 c 1
 157.489257812 -30.591796875 139.606445312 -48.4990234375 139.606445312 -70.55078125 c 0
EndSplineSet
EndChar

StartChar: hyphen
Encoding: 45 45 13
Width: 500
Flags: HW
LayerCount: 2
Fore
SplineSet
345.630859375 328.052734375 m 0
 409.548828125 328.052734375 454.11328125 325.780273438 455.208984375 325.780273438 c 0
 477.28515625 325.780273438 495.208984375 343.704101562 495.208984375 365.780273438 c 0
 495.208984375 387.125 478.454101562 404.587890625 457.389648438 405.721679688 c 0
 449.301553336 406.156870539 399.765365274 408.113828129 343.058708069 408.113828129 c 0
 289.949489727 408.113828129 230.550725402 406.397291247 193.021484375 400.106445312 c 0
 174.10546875 396.936523438 159.671875 380.469726562 159.671875 360.658203125 c 0
 159.671875 338.58203125 177.595703125 320.658203125 199.671875 320.658203125 c 0
 204.875 320.658203125 237.8984375 328.052734375 345.630859375 328.052734375 c 0
EndSplineSet
Substitution2: "longhyphen-1" longhyphen
Substitution2: "righthyphen-1" righthyphen
Substitution2: "lefthyphen-1" lefthyphen
EndChar

StartChar: period
Encoding: 46 46 14
Width: 500
Flags: HW
LayerCount: 2
Fore
SplineSet
260.834960938 -5.478515625 m 0
 298.99609375 -5.478515625 323.474609375 29.12109375 323.474609375 58.98828125 c 0
 323.474609375 92.103515625 296.58984375 118.98828125 263.474609375 118.98828125 c 0
 240.549804688 118.98828125 220.611328125 106.103515625 210.510742188 87.1884765625 c 0
 203.82561956 76.9164925355 200.791977319 65.7500746089 200.791977319 54.8413684695 c 0
 200.791977319 23.6263471963 225.631608763 -5.478515625 260.834960938 -5.478515625 c 0
EndSplineSet
EndChar

StartChar: slash
Encoding: 47 47 15
Width: 500
Flags: HW
LayerCount: 2
Fore
SplineSet
85.76953125 73.18359375 m 0
 81.3231225859 66.3412740241 79.3052345826 58.9053740296 79.3052345826 51.6411483405 c 0
 79.3052345826 30.8304473754 95.8664352201 11.4287109375 119.333984375 11.4287109375 c 0
 133.390625 11.4287109375 145.763671875 18.6953125 152.8984375 29.673828125 c 0
 285.252929688 233.342773438 498.467773438 546.919921875 574.280273438 652.251953125 c 0
 579.472970645 659.466308317 581.818707756 667.484999836 581.818707756 675.324739547 c 0
 581.818707756 696.080551015 565.376675893 715.58203125 541.793945312 715.58203125 c 0
 528.420898438 715.58203125 516.572265625 709.004882812 509.307617188 698.912109375 c 0
 431.793945312 591.21875 219.133789062 278.407226562 85.76953125 73.18359375 c 0
EndSplineSet
EndChar

StartChar: zero
Encoding: 48 48 16
Width: 500
Flags: HW
LayerCount: 2
Fore
SplineSet
134.760742188 -15.6767578125 m 0
 160.156586227 -15.6767578125 169.272553046 3.74896954976 173.634749427 13.0446196186 c 1
 196.831851917 -2.6404104118 243.891133347 -8.33794038249 251.614257812 -10.6884765625 c 1
 464.015625 -10.6884765625 560.30078125 373.872070312 560.30078125 562.892578125 c 0
 560.30078125 595.239045557 555.788284642 624.354629043 547.660240903 649.395881512 c 1
 553.594554965 663.777824685 558.925322816 677.953720252 563.569335938 691.892578125 c 0
 564.974869425 696.111578749 565.634372922 700.361149429 565.634372922 704.518004301 c 0
 565.634372922 725.73089053 548.459762167 744.529296875 525.609375 744.529296875 c 0
 512.699648701 744.529296875 501.209717073 738.399812125 493.893763308 728.895025817 c 1
 476.751097673 741.104993895 457.099464013 747.676757812 435.931640625 747.676757812 c 0
 240.172851562 747.676757812 101.079101562 388.005859375 101.079101562 181.084960938 c 0
 101.079101562 143.448738384 106.997881823 110.403636909 118.663782587 82.4370946561 c 1
 111.456137806 68.4433626781 104.681939212 54.631675538 98.4140625 41.03515625 c 0
 95.8934336423 35.5674679662 94.7296429977 29.9228191257 94.7296429977 24.4109502955 c 0
 94.7296429977 3.40262857252 111.636381417 -15.6767578125 134.760742188 -15.6767578125 c 0
181.249692291 192.82054335 m 1
 186.756218629 385.981965007 315.076608323 667.676757812 435.931640625 667.676757812 c 0
 444.548338325 667.676757812 453.069731386 661.105316933 460.306141554 649.631370037 c 1
 396.193669645 512.146212654 275.124941674 347.126881452 181.249692291 192.82054335 c 1
477.927080336 511.279975951 m 1
 461.674333099 320.623804804 372.26490827 69.3115234375 251.614257812 69.3115234375 c 0
 235.869804306 69.3115234375 222.283138217 73.9854930061 210.853823275 85.1199479062 c 1
 286.31753114 220.549620256 396.680187066 370.550156043 477.927080336 511.279975951 c 1
EndSplineSet
EndChar

StartChar: one
Encoding: 49 49 17
Width: 500
Flags: HW
LayerCount: 2
Fore
SplineSet
243.862304688 -3.544921875 m 0
 311.119140625 -3.544921875 405.900390625 -7.4599609375 407.538085938 -7.4599609375 c 0
 429.614257812 -7.4599609375 447.538085938 10.4638671875 447.538085938 32.5400390625 c 0
 447.538085938 54.1318359375 430.392578125 71.751953125 408.985351562 72.5146484375 c 0
 371.911345566 73.8356023902 335.358532818 75.0726656489 300.621346852 75.8129745478 c 1
 368.200590838 293.51240971 395.584062478 484.966367176 461.569335938 704.64453125 c 0
 462.728533973 708.503852101 463.275058632 712.37289368 463.275058632 716.160608861 c 0
 463.275058632 737.44098086 446.024086876 756.154296875 423.252929688 756.154296875 c 0
 411.423828125 756.154296875 400.786132812 751.0078125 393.4609375 742.833984375 c 0
 346.033203125 689.91796875 299.169921875 651.29296875 256.30078125 616.029296875 c 0
 244.1171875 606.006835938 232.25390625 596.251953125 220.799804688 586.483398438 c 0
 211.097028798 578.209200609 206.769331958 567.29269558 206.769331958 556.530492403 c 0
 206.769331958 536.003626894 222.512775486 516.038085938 246.732421875 516.038085938 c 0
 256.623046875 516.038085938 265.6796875 519.635742188 272.665039062 525.592773438 c 0
 273.393554688 526.213867188 344.584960938 585.391601562 346.23828125 586.794921875 c 1
 331.716796875 529.299804688 318.833984375 473.202148438 306.064453125 417.626953125 c 0
 280.07860602 304.538330959 254.56842271 193.669753801 216.884020843 76.3719632778 c 1
 169.545497338 75.7550031897 129.126140358 73.1266575456 100.361328125 66.9765625 c 0
 82.3076171875 63.1162109375 68.751953125 47.05859375 68.751953125 27.859375 c 0
 68.751953125 5.31463961047 87.2163454544 -12.154782627 108.713249193 -12.154782627 c 0
 111.48366948 -12.154782627 114.304456286 -11.8646356595 117.142578125 -11.2578125 c 0
 141.482421875 -6.0537109375 191.213867188 -3.544921875 243.862304688 -3.544921875 c 0
EndSplineSet
EndChar

StartChar: two
Encoding: 50 50 18
Width: 500
Flags: HW
LayerCount: 2
Fore
SplineSet
525.5234375 621.321289062 m 0
 525.5234375 695.942382812 474.966796875 749.0703125 397.26953125 749.0703125 c 0
 314.501953125 749.0703125 220.116210938 689.22265625 176.388671875 580.802734375 c 0
 174.398061787 575.867107043 173.472706273 570.83394018 173.472706273 565.916557574 c 0
 173.472706273 544.825944199 190.495037492 525.865234375 213.501953125 525.865234375 c 0
 230.298828125 525.865234375 244.69140625 536.241210938 250.615234375 550.927734375 c 0
 283.216140928 631.759589885 351.712903135 669.064774976 397.634316261 669.064774976 c 0
 410.912330973 669.064774976 422.302918189 665.945849469 430.392578125 659.858398438 c 0
 440.525701225 652.233080002 445.610599754 639.109783626 445.610599754 621.646905248 c 0
 445.610599754 585.55814931 423.893868615 530.935781535 380.13671875 468.00390625 c 0
 335.101077374 403.232467416 335.101077374 403.232467416 68.80078125 58.7685546875 c 0
 63.0388446926 51.3156785136 60.443600672 42.8798635125 60.443600672 34.6260211109 c 0
 60.443600672 13.9071740107 76.7965851881 -5.6650390625 100.463867188 -5.6650390625 c 0
 103.3984375 -5.6650390625 302.912109375 3.4150390625 393.764648438 3.4150390625 c 0
 410.1640625 3.4150390625 415.583984375 3.0888671875 417.403320312 3.0888671875 c 0
 439.479492188 3.0888671875 457.403320312 21.0126953125 457.403320312 43.0888671875 c 0
 457.403320312 64.677734375 440.263671875 82.2939453125 418.861328125 83.0625 c 0
 412.103336687 83.305086951 403.542028285 83.4132698104 393.646012231 83.4132698104 c 0
 338.447415088 83.4132698104 241.722688938 80.0474275852 184.794921875 77.8662109375 c 1
 318.169921875 249.700195312 391.1875 343.772460938 445.865234375 422.41015625 c 0
 500.3671875 500.795898438 525.5234375 565.892578125 525.5234375 621.321289062 c 0
EndSplineSet
EndChar

StartChar: three
Encoding: 51 51 19
Width: 500
Flags: HW
LayerCount: 2
Fore
SplineSet
417.403320312 429.475585938 m 1
 467.81640625 462.83984375 538.438476562 524.017578125 538.438476562 604.931640625 c 0
 538.438476562 687.386042822 465.327096611 743.022888825 384.989121926 743.022888825 c 0
 317.808071544 743.022888825 245.573599684 704.117091156 206.8125 609.453125 c 0
 204.767310861 604.458316147 203.817308153 599.358563227 203.817308153 594.376494926 c 0
 203.817308153 573.295331436 220.826929327 554.321289062 243.846679688 554.321289062 c 0
 260.569335938 554.321289062 274.909179688 564.60546875 280.880859375 579.189453125 c 0
 306.047711135 640.652332998 348.394666629 663.417333495 385.421188951 663.417333495 c 0
 424.963890354 663.417333495 458.438476562 637.453160858 458.438476562 604.931640625 c 0
 458.438476562 561.248046875 404.364257812 501.383789062 283.491210938 448.500976562 c 0
 269.37109375 442.322265625 259.494140625 428.22265625 259.494140625 411.834960938 c 0
 259.494140625 389.758789062 277.41796875 371.834960938 299.494140625 371.834960938 c 0
 299.627929688 371.834960938 307.755859375 372.185546875 312.90234375 372.185546875 c 0
 411.319335938 372.185546875 446.95703125 304.735351562 446.95703125 259.229492188 c 0
 446.95703125 177.312527042 348.870497781 72.5207440067 255.884485473 72.5207440067 c 0
 211.879251838 72.5207440067 169.016338699 95.990071504 138.232421875 156.459960938 c 0
 131.620117188 169.447265625 118.123046875 178.352539062 102.561523438 178.352539062 c 0
 79.3439392927 178.352539062 62.5294388634 159.181686333 62.5294388634 138.232468441 c 0
 62.5294388634 132.246632137 63.9022095999 126.115606409 66.890625 120.245117188 c 0
 113.267042914 29.1468236613 182.275000997 -7.12853851656 252.822880436 -7.12853851656 c 0
 387.100571568 -7.12853851656 526.95703125 124.288464616 526.95703125 259.229492188 c 0
 526.95703125 325.705078125 489.182617188 394.715820312 417.403320312 429.475585938 c 1
EndSplineSet
EndChar

StartChar: four
Encoding: 52 52 20
Width: 500
Flags: HW
LayerCount: 2
Fore
SplineSet
515.69372192 479.979167151 m 1
 581.184072397 691.786466338 581.184072397 691.786466338 583.995117188 703.041015625 c 0
 584.812719726 706.314982783 585.201272941 709.57835715 585.201272941 712.778492496 c 0
 585.201272941 734.17875859 567.82517882 752.750976562 545.18359375 752.750976562 c 0
 526.455078125 752.750976562 510.715820312 739.8515625 506.372070312 722.4609375 c 0
 504.343241964 714.335356757 504.343241964 714.335356757 431.53401159 478.65900738 c 1
 363.41259265 465.883460672 318.524867646 458.664862704 279.936523438 455.571289062 c 1
 332.325195312 527.801757812 372.3125 582.435546875 425.1328125 646.268554688 c 0
 431.4703935 653.927521325 434.317712199 662.765374553 434.317712199 671.420148811 c 0
 434.317712199 692.10502571 418.053595858 711.744140625 394.302734375 711.744140625 c 0
 381.90234375 711.744140625 370.8125 706.088867188 363.47265625 697.219726562 c 0
 310.648593434 633.381501202 310.648593434 633.381501202 168.458984375 438.17578125 c 0
 163.182922184 430.931835188 160.792898538 422.833846938 160.792898538 414.908988248 c 0
 160.792898538 394.829007317 176.137151018 375.860539943 198.756835938 374.712890625 c 0
 211.372026965 374.072892425 223.452189142 373.744307306 235.372608751 373.744307306 c 0
 285.445569999 373.744307306 332.699861934 379.542215793 404.951690156 392.410823595 c 1
 367.155212073 269.426459268 327.52594591 138.713183186 302.629882812 50.07421875 c 0
 301.608031989 46.4361389408 301.124823624 42.7977587399 301.124823624 39.2337693495 c 0
 301.124823624 17.9098701449 318.422783332 -0.7509765625 341.145507812 -0.7509765625 c 0
 359.471679688 -0.7509765625 374.935546875 11.599609375 379.661132812 28.423828125 c 0
 406.882355847 125.341726932 452.567821807 275.256169511 493.805367028 409.079710046 c 1
 504.501800232 411.145190248 530.250976562 419.224000556 530.250976562 449.138671875 c 0
 530.250976562 461.695670299 524.513866988 472.704598531 515.69372192 479.979167151 c 1
EndSplineSet
EndChar

StartChar: five
Encoding: 53 53 21
Width: 500
Flags: HW
LayerCount: 2
Fore
SplineSet
317.291015625 729.21875 m 0
 298.383789062 729.21875 278.532226562 731.384765625 278.139648438 731.384765625 c 0
 259.064453125 731.384765625 243.08984375 718.00390625 239.098632812 700.124023438 c 0
 221.939453125 623.252929688 190.892578125 509.461914062 161.04296875 443.344726562 c 0
 158.540264765 437.801411748 157.406976855 432.239299323 157.406976855 426.882622036 c 0
 157.406976855 405.152806492 176.056226782 386.803606926 197.59206836 386.803606926 c 0
 203.5749495 386.803606926 209.780613823 388.219772975 215.87109375 391.373046875 c 0
 262.415039062 415.470703125 301.517578125 425.538085938 330.674804688 425.538085938 c 0
 349.956054688 425.538085938 414.271484375 425.538085938 429.4140625 316.536132812 c 0
 429.949424206 312.68177515 430.201038416 308.70348418 430.201038416 304.630022579 c 0
 430.201038416 247.409525606 380.551963453 171.409748398 370.321289062 156.35546875 c 0
 335.007475948 104.388576915 276.176105741 69.6453723082 230.72665159 69.6453723082 c 0
 200.706406548 69.6453723082 176.524502054 84.8033406699 168.814453125 120.16796875 c 0
 164.895507812 138.143554688 148.875 151.62109375 129.731445312 151.62109375 c 0
 107.17480646 151.62109375 89.7174390457 133.143769625 89.7174390457 111.658492619 c 0
 89.7174390457 108.837257478 90.0184452221 105.964158138 90.6484375 103.07421875 c 0
 95.5711343582 80.4927553405 122.023616874 -9.8681640625 230.129882812 -9.8681640625 c 0
 303.748046875 -9.8681640625 385.216796875 35.951171875 436.536132812 111.46875 c 0
 456.094921802 140.250738234 510.152224763 225.136782607 510.152224763 305.244479175 c 0
 510.152224763 312.763200506 509.676019859 320.239828123 508.650390625 327.624023438 c 0
 502.206054688 374.012695312 487.43359375 414.139648438 462.240234375 445.305664062 c 0
 442.696877486 469.482686582 401.587602745 505.543256244 330.235348275 505.543256244 c 0
 311.300912004 505.543256244 290.236797765 503.003909878 266.880859375 497.029296875 c 1
 283.489257812 547.466796875 298.130859375 601.971679688 309.459960938 649.286132812 c 1
 311.815230317 649.245000484 314.202982737 649.225054486 316.622753091 649.225054486 c 0
 372.802099936 649.225054486 446.239761193 659.976351287 531.115234375 665.95703125 c 0
 551.866210938 667.419921875 568.268554688 684.73828125 568.268554688 705.857421875 c 0
 568.268554688 727.93359375 550.344726562 745.857421875 528.268554688 745.857421875 c 0
 502.469726562 745.857421875 370.530273438 729.21875 317.291015625 729.21875 c 0
EndSplineSet
EndChar

StartChar: six
Encoding: 54 54 22
Width: 500
Flags: HW
LayerCount: 2
Fore
SplineSet
93.8515625 159.676757812 m 0
 93.8515625 114.198865543 106.226413598 -12.91015625 244.581054688 -12.91015625 c 0
 402.073242188 -12.91015625 504.947265625 139.465820312 504.947265625 276.076171875 c 0
 504.947265625 373.242289553 450.887023566 445.839269133 356.653742751 445.839269133 c 0
 326.158613456 445.839269133 291.456343636 438.236516037 253.017578125 421.403320312 c 1
 269.350071794 452.599104302 366.960144772 631.142092729 481.640625 671.075195312 c 0
 497.26953125 676.517578125 508.497070312 691.388671875 508.497070312 708.862304688 c 0
 508.497070312 731.747126379 489.663113181 748.888540858 468.478565633 748.888540858 c 0
 464.154752949 748.888540858 459.733020059 748.174468844 455.353515625 746.649414062 c 0
 274.311523438 683.607421875 93.8515625 355.440429688 93.8515625 159.676757812 c 0
387.201171875 359.7265625 m 0
 412.750204064 347.509098442 425.002254854 315.703308516 425.002254854 277.339576554 c 0
 425.002254854 189.431886716 360.671177168 67.0908203125 244.581054688 67.0908203125 c 0
 206.091796875 67.0908203125 193.807617188 84.005859375 188.209960938 93.1083984375 c 0
 178.847463952 108.332022335 173.922880794 130.998973449 173.922880794 159.557854582 c 0
 173.922880794 196.95978667 182.369349404 244.467346053 200.35546875 298.595703125 c 1
 230.926338387 320.129824022 302.399808521 365.981200198 356.724688413 365.981200198 c 0
 367.751947799 365.981200198 378.072619515 364.091947697 387.201171875 359.7265625 c 0
EndSplineSet
EndChar

StartChar: seven
Encoding: 55 55 23
Width: 500
Flags: HW
LayerCount: 2
Fore
SplineSet
321.44140625 723.211914062 m 0
 285.194335938 723.211914062 249.120117188 727.384765625 248.388671875 727.384765625 c 0
 226.3125 727.384765625 208.388671875 709.4609375 208.388671875 687.384765625 c 0
 208.388671875 666.850585938 223.89453125 649.91015625 243.826171875 647.642578125 c 0
 272.575925227 644.371944741 289.599014389 642.435361737 311.363559915 642.435361737 c 0
 342.958205511 642.435361737 384.544554386 646.516336288 486.5 656.521484375 c 1
 448.804064487 589.213935967 255.439632951 228.195196778 148.13671875 51.953125 c 0
 144.124023108 45.3623672077 142.297273409 38.288243639 142.297273409 31.3797201451 c 0
 142.297273409 10.5330972591 158.930633405 -8.8056640625 182.328125 -8.8056640625 c 0
 196.805664062 -8.8056640625 209.497070312 -1.09765625 216.51953125 10.435546875 c 0
 353.442382812 235.327148438 486.024414062 497.022460938 592.326171875 680.822265625 c 0
 596.020073054 687.209278203 597.705969291 694.004686049 597.705969291 700.639945173 c 0
 597.705969291 721.515396174 581.018641395 740.805664063 557.674804688 740.805664062 c 0
 482.002929688 740.805664062 401.229492188 723.211914062 321.44140625 723.211914062 c 0
EndSplineSet
EndChar

StartChar: eight
Encoding: 56 56 24
Width: 500
Flags: HW
LayerCount: 2
Fore
SplineSet
396.47265625 218 m 0
 396.47265625 131.399051242 287.255393023 71.1103515625 229.885742188 71.1103515625 c 0
 195.388237722 71.1103515625 176.526051509 90.5911544314 176.526051509 125.112213229 c 0
 176.526051509 176.567903743 218.433443487 261.439545809 312.934570312 365.021484375 c 1
 375.951171875 306.227539062 396.47265625 255.802734375 396.47265625 218 c 0
554.651367188 708.328125 m 0
 535.44766248 708.328125 527.416946381 698.18776369 517.854492188 686.11328125 c 1
 478.83465566 727.881351922 429.514415473 746.1273321 382.729706616 746.1273321 c 0
 345.111508061 746.1273321 309.132604482 734.330773616 281.465820312 713.48046875 c 0
 223.334595062 669.672035001 201.117859093 616.415117055 201.117859093 564.227742162 c 0
 201.117859093 511.521135101 223.778879922 459.905459554 254.990234375 420.215820312 c 1
 209.540039062 370.46875 96.9111328125 241.271484375 96.9111328125 123.7109375 c 0
 96.9111328125 42.5991075522 152.54053453 -8.93098131148 230.284317401 -8.93098131148 c 0
 268.513382985 -8.93098131148 312.089702628 3.52898647684 357.028320312 31.05859375 c 0
 428.657834147 74.9392715682 476.634968627 140.911483181 476.634968627 218.078992394 c 0
 476.634968627 280.835059858 444.904478326 350.995326962 368.360351562 422.69921875 c 1
 393.975585938 448.2578125 420.2578125 473.336914062 445.751953125 497.6328125 c 0
 500.857421875 550.150390625 552.180664062 598.548828125 586.626953125 644.303710938 c 0
 592.172924252 651.670358246 594.6735351 659.950382462 594.6735351 668.04934938 c 0
 594.6735351 688.781984529 578.286670281 708.328125 554.651367188 708.328125 c 0
311.416015625 478.932617188 m 1
 297.750430768 498.427437466 280.956957932 529.227524549 280.956957932 562.86451679 c 0
 280.956957932 591.444686837 293.080675845 622.07290485 329.547851562 649.5546875 c 0
 341.687402278 658.703203711 361.645828805 666.143689823 384.048052256 666.143689823 c 0
 410.161242876 666.143689823 439.594927821 656.033974216 463.8359375 626.735351562 c 1
 408.09375 570.416992188 376.443359375 543.826171875 311.416015625 478.932617188 c 1
EndSplineSet
EndChar

StartChar: nine
Encoding: 57 57 25
Width: 500
Flags: HW
LayerCount: 2
Fore
SplineSet
187.444335938 493.005859375 m 0
 187.444335938 478.313708407 190.461569737 365.14453125 283.423828125 365.14453125 c 0
 314.884765625 365.14453125 352.162109375 378.865234375 403.396484375 426.2890625 c 1
 344.83880141 266.99606326 300.493186714 127.409145515 300.493186714 49.5718965701 c 0
 300.493186714 8.05320862091 313.11038606 -15.896484375 342.91796875 -15.896484375 c 0
 364.994140625 -15.896484375 382.91796875 2.02734375 382.91796875 24.103515625 c 0
 382.91796875 32.154296875 380.70703125 33.7763671875 380.70703125 48.599609375 c 0
 380.70703125 187.264529022 566.609375 605.904219375 566.609375 649.759765625 c 0
 566.609375 662.7578125 560.396484375 674.31640625 550.780273438 681.624023438 c 0
 492.685364382 725.777016457 439.541862976 744.036216102 392.893029622 744.036216102 c 0
 266.226022107 744.036216102 187.444335937 609.410760981 187.444335938 493.005859375 c 0
274.116210938 453.982421875 m 0
 269.665265235 463.681419262 267.455834682 476.994101202 267.455834682 492.248235059 c 0
 267.455834682 559.316390874 310.166661454 663.915039062 392.861328125 663.915039062 c 0
 413.65234375 663.915039062 439.967773438 657.380859375 471.794921875 638.62109375 c 1
 418.587890625 558.23828125 374.33203125 506.639648438 340.62890625 477.42578125 c 0
 312.385716765 452.945387312 291.678655744 445.173378716 283.230998087 445.173378716 c 0
 281.841222524 445.173378716 280.78325436 445.383732342 280.078125 445.764648438 c 0
 279.479492188 446.087890625 277.063476562 447.560546875 274.116210938 453.982421875 c 0
EndSplineSet
EndChar

StartChar: colon
Encoding: 58 58 26
Width: 500
Flags: HW
LayerCount: 2
Fore
SplineSet
376.888671875 521.795898438 m 0
 415.046875 521.795898438 439.528320312 556.391601562 439.528320312 586.26171875 c 0
 439.528320312 619.376953125 412.643554688 646.26171875 379.528320312 646.26171875 c 0
 356.606445312 646.26171875 336.668945312 633.379882812 326.567382812 614.466796875 c 0
 319.87996893 604.193624044 316.84533923 593.02554824 316.84533923 582.115250949 c 0
 316.84533923 550.900551869 341.685296233 521.795898438 376.888671875 521.795898438 c 0
278.471679688 93.73828125 m 0
 316.629882812 93.73828125 341.111328125 128.333007812 341.111328125 158.204101562 c 0
 341.111328125 191.319335938 314.2265625 218.204101562 281.111328125 218.204101562 c 0
 258.189453125 218.204101562 238.251953125 205.322265625 228.150390625 186.409179688 c 0
 221.462976743 176.136006857 218.428347043 164.967931052 218.428347043 154.057633762 c 0
 218.428347043 122.842934681 243.268304046 93.73828125 278.471679688 93.73828125 c 0
EndSplineSet
EndChar

StartChar: semicolon
Encoding: 59 59 27
Width: 500
Flags: HW
LayerCount: 2
Fore
SplineSet
156.78515625 41.744140625 m 0
 156.78515625 19.0086447601 173.553346664 1.92442915448 199.652389834 1.92442915448 c 0
 218.575784214 1.92442915448 242.40453137 10.9058273866 268.303710938 33.2265625 c 0
 348.194335938 102.072265625 361.572265625 219.03125 361.572265625 230.866210938 c 0
 361.572265625 252.942382812 343.6484375 270.866210938 321.572265625 270.866210938 c 0
 301.1484375 270.866210938 284.278320312 255.525390625 281.868164062 235.748046875 c 0
 270.085940389 139.092521008 218.002754846 88.0808424911 196.7109375 81.744140625 c 1
 174.66796875 81.7041015625 156.78515625 63.7958984375 156.78515625 41.744140625 c 0
376.888671875 521.795898438 m 0
 415.046875 521.795898438 439.528320312 556.391601562 439.528320312 586.26171875 c 0
 439.528320312 619.376953125 412.643554688 646.26171875 379.528320312 646.26171875 c 0
 356.606445312 646.26171875 336.668945312 633.379882812 326.567382812 614.466796875 c 0
 319.87996893 604.193624044 316.84533923 593.02554824 316.84533923 582.115250949 c 0
 316.84533923 550.900551869 341.685296233 521.795898438 376.888671875 521.795898438 c 0
EndSplineSet
EndChar

StartChar: less
Encoding: 60 60 28
Width: 500
Flags: HW
LayerCount: 2
Fore
SplineSet
433.171875 198.161132812 m 0
 433.171875 244.072388181 385.545086352 222.222417235 281.599609375 351.443359375 c 1
 359.389648438 405.708984375 427.267578125 453.060546875 487.571289062 482.02734375 c 0
 501.005859375 488.48046875 510.2890625 502.216796875 510.2890625 518.10546875 c 0
 510.2890625 541.26794071 491.172383606 558.137066997 470.189100792 558.137066997 c 0
 464.48409692 558.137066997 458.641112713 556.890092394 453.006835938 554.18359375 c 0
 384.178710938 521.123046875 308.872070312 468.10546875 249.610351562 426.67578125 c 0
 231.736328125 414.180664062 215.399414062 402.763671875 201.5078125 393.428710938 c 0
 189.924865678 385.643890483 183.781257365 372.976082685 183.781257365 360.150117283 c 0
 183.781257365 351.454819087 186.604917041 342.686830182 192.471679688 335.318359375 c 0
 249.271591099 263.978540861 289.565462177 213.37005612 372.728515625 163.780273438 c 0
 379.23715065 159.899142473 386.197667924 158.130472536 392.994763897 158.130472536 c 0
 413.852763746 158.130472536 433.171875 174.785498336 433.171875 198.161132812 c 0
EndSplineSet
Substitution2: "leftarrowhead-1" leftarrowhead
EndChar

StartChar: equal
Encoding: 61 61 29
Width: 500
Flags: HW
LayerCount: 2
Fore
SplineSet
337.541992188 396.544921875 m 0
 387.599609375 396.544921875 450.865234375 392.345703125 452.010742188 392.345703125 c 0
 474.086914062 392.345703125 492.010742188 410.26953125 492.010742188 432.345703125 c 0
 492.010742188 453.6796875 475.272460938 471.135742188 454.223632812 472.28515625 c 0
 394.58984375 475.543945312 376.26953125 476.544921875 337.541992188 476.544921875 c 0
 299.36328125 476.544921875 258.474609375 474.849609375 221.60546875 468.576171875 c 0
 202.737304688 465.365234375 188.352539062 448.920898438 188.352539062 429.143554688 c 0
 188.352539062 407.067382812 206.276367188 389.143554688 228.352539062 389.143554688 c 0
 236.733398438 389.143554688 263.716796875 396.544921875 337.541992188 396.544921875 c 0
306.099609375 255.283203125 m 0
 356.157226562 255.283203125 419.422851562 251.083984375 420.568359375 251.083984375 c 0
 442.64453125 251.083984375 460.568359375 269.0078125 460.568359375 291.083984375 c 0
 460.568359375 312.41796875 443.830078125 329.874023438 422.78125 331.0234375 c 0
 363.147460938 334.282226562 344.827148438 335.283203125 306.099609375 335.283203125 c 0
 267.920898438 335.283203125 227.032226562 333.587890625 190.163085938 327.314453125 c 0
 171.294921875 324.103515625 156.91015625 307.659179688 156.91015625 287.881835938 c 0
 156.91015625 265.805664062 174.833984375 247.881835938 196.91015625 247.881835938 c 0
 205.291015625 247.881835938 232.274414062 255.283203125 306.099609375 255.283203125 c 0
EndSplineSet
Substitution2: "longequal-1" longequal
Substitution2: "rightequal-1" rightequal
Substitution2: "leftequal-1" leftequal
EndChar

StartChar: greater
Encoding: 62 62 30
Width: 500
Flags: HW
LayerCount: 2
Fore
SplineSet
163.286132812 220.100585938 m 0
 150.882862174 211.936649247 145.339817035 199.544474594 145.339817035 187.252383925 c 0
 145.339817035 166.819954765 160.655519082 146.6640625 185.237304688 146.6640625 c 0
 199.235105028 146.6640625 199.235105028 146.6640625 344.954101562 246.135742188 c 0
 385.80078125 274.018554688 427.170898438 302.2578125 470.428710938 331 c 0
 482.326464537 338.905003398 488.302936165 351.622453172 488.302936165 364.349207329 c 0
 488.302936165 376.789113196 482.592835819 389.237908748 471.12109375 397.209960938 c 0
 376.01953125 463.297851562 333.749023438 495.515625 289.952148438 539.337890625 c 0
 281.85554862 547.438898297 271.88166763 551.059361418 262.082579059 551.059361418 c 0
 241.487764903 551.059361418 221.665039062 535.067150229 221.665039062 511.067382812 c 0
 221.665039062 500.033203125 226.142578125 490.036132812 233.377929688 482.796875 c 0
 273.340820312 442.811523438 312.622070312 411.38671875 377.634765625 365.106445312 c 1
 353.947265625 349.109375 223.006835938 259.408203125 163.286132812 220.100585938 c 0
EndSplineSet
Substitution2: "rightarrowhead-1" rightarrowhead
EndChar

StartChar: question
Encoding: 63 63 31
Width: 500
Flags: HW
LayerCount: 2
Fore
SplineSet
404.276367188 652.955078125 m 0
 437.806640625 652.955078125 455.772460938 603.498046875 455.772460938 562.387695312 c 0
 455.772460938 522.802734375 440.462890625 488.8125 417.498046875 473.979492188 c 0
 352.49128189 431.989724404 262.004885744 339.024832224 254.182617188 260.638671875 c 0
 254.046850819 259.278139882 253.980486324 257.928338668 253.980486324 256.592544753 c 0
 253.980486324 234.733862618 271.751197916 216.625976562 293.983398438 216.625976562 c 0
 314.706054688 216.625976562 331.768554688 232.41796875 333.784179688 252.61328125 c 0
 337.970703125 294.563476562 404.969726562 370.653320312 460.822265625 406.729492188 c 0
 512.315111546 439.990712076 535.908941999 501.224224105 535.908941999 561.733029873 c 0
 535.908941999 648.08197337 487.860938383 732.955078125 404.276367188 732.955078125 c 0
 345.690429688 732.955078125 275.765625 690.7578125 195.749023438 569.743164062 c 0
 191.181562737 562.835438083 189.110429638 555.301845729 189.110429638 547.941411634 c 0
 189.110429638 527.140049275 205.652303744 507.721679688 229.138671875 507.721679688 c 0
 243.081054688 507.721679688 255.368164062 514.87109375 262.528320312 525.700195312 c 0
 283.651911328 557.646673571 351.125851957 652.955078125 404.276367188 652.955078125 c 0
256.03515625 29.38671875 m 0
 294.71875 29.38671875 319.135742188 64.98828125 319.135742188 94.5029296875 c 0
 319.135742188 127.618164062 292.25 154.50390625 259.134765625 154.50390625 c 0
 236.305664062 154.50390625 216.436523438 141.725585938 206.296875 122.938476562 c 0
 199.205743603 112.451865214 195.993545352 100.960611003 195.993545352 89.7317113829 c 0
 195.993545352 58.5475109916 220.76760435 29.38671875 256.03515625 29.38671875 c 0
EndSplineSet
EndChar

StartChar: at
Encoding: 64 64 32
Width: 500
Flags: HW
LayerCount: 2
Fore
SplineSet
311.935546875 323.174804688 m 1
 315.868164062 339.459960938 326.303710938 365.627929688 345.1171875 392.233398438 c 1
 334.740234375 363.649414062 323.755859375 340.90625 311.935546875 323.174804688 c 1
445.685546875 383.833007812 m 1
 446.772365842 426.580987995 447.120723626 441.163301253 447.120723626 451.986681341 c 0
 447.120723626 456.315414151 447.065002324 460.042889685 446.978515625 464.73046875 c 0
 446.423828125 494.727539062 412.592773438 512.840820312 386.528320312 512.840820312 c 0
 323.178710938 512.840820312 265.962890625 429.008789062 243.530273438 371.508789062 c 0
 233.48465384 345.759300551 229.341040939 323.872485411 229.341040939 305.469052225 c 0
 229.341040939 246.603471892 271.735035397 223.376953125 298.978515625 223.376953125 c 0
 327.336914062 223.376953125 350.96875 241.775390625 369.869140625 266.30859375 c 1
 377.672686693 227.100976284 400.382528533 211.200909646 423.331579045 211.200909646 c 0
 436.143711662 211.200909646 449.030401606 216.156693444 459.439453125 224.779296875 c 0
 496.971282243 255.86978129 550.577873945 413.40882225 550.577873945 539.46115348 c 0
 550.577873945 605.921518122 535.675966171 663.629003135 495.659179688 689.435546875 c 0
 480.920482178 698.940426487 460.892883722 705.044387643 437.31637478 705.044387643 c 0
 399.336688618 705.044387643 352.147444343 689.204375554 303.022460938 646.224609375 c 0
 175.9765625 535.069335938 115.99609375 322.859375 115.99609375 203.861328125 c 0
 115.99609375 160.08203125 123.391601562 123.764648438 139.939453125 94.7578125 c 0
 151.365234375 74.7294921875 180.611328125 36.6318359375 237.760742188 36.6318359375 c 0
 289.942382812 36.6318359375 345.403320312 69.2041015625 392.249023438 122.216796875 c 0
 399.172852846 130.05214185 402.276906303 139.282032658 402.276906303 148.32969883 c 0
 402.276906303 168.982363189 386.103249262 188.685546875 362.268554688 188.685546875 c 0
 350.336914062 188.685546875 339.619140625 183.450195312 332.288085938 175.154296875 c 0
 323.577148438 165.296875 278.51171875 116.631835938 237.760742188 116.631835938 c 0
 209.341054335 116.631835938 196.040288661 151.761436222 196.040288661 203.766860058 c 0
 196.040288661 301.549612928 243.062590136 458.993597496 325.021484375 554.76171875 c 0
 373.473848686 611.378716296 416.222656086 625.023011621 438.407710686 625.023011621 c 0
 445.032022193 625.023011621 449.822909902 623.806513056 452.384765625 622.154296875 c 0
 462.853515625 615.403320312 469.897460938 587.038085938 469.897460938 543.696289062 c 0
 469.897460938 504.553936684 468.374952513 467.741732901 445.685546875 383.833007812 c 1
EndSplineSet
EndChar

StartChar: A
Encoding: 65 65 33
Width: 500
Flags: HW
LayerCount: 2
Fore
SplineSet
401.364257812 243.1171875 m 0
 401.364257812 110.330078125 394.672851562 36.8212890625 394.672851562 34.736328125 c 0
 394.672851562 12.66015625 412.596679688 -5.263671875 434.672851562 -5.263671875 c 0
 455.745117188 -5.263671875 473.033203125 11.0654296875 474.5625 31.7490234375 c 0
 479.821289062 102.834960938 481.364257812 172.588867188 481.364257812 243.1171875 c 0
 481.364257812 346.150390625 478.06640625 451.251953125 478.06640625 565.663085938 c 0
 478.06640625 639.805664062 479.497070312 684.161132812 479.497070312 687.51171875 c 0
 479.497070312 712.124307633 459.327953329 727.40207651 438.903176807 727.40207651 c 0
 426.481583516 727.40207651 413.965431418 721.75140684 405.833984375 709.11328125 c 0
 303.769992939 550.483374946 241.186001484 440.588936235 176.522479829 313.503842768 c 0
 161.293745054 286.553666353 48.1892306086 50.4495849433 46.912109375 47.783203125 c 0
 44.2190069502 42.1607319788 42.9780159499 36.3318323566 42.9780159499 30.6405066959 c 0
 42.9780159499 9.65558345715 59.8496259619 -9.458984375 83.009765625 -9.458984375 c 0
 98.9140625 -9.458984375 112.662109375 -0.1572265625 119.107421875 13.298828125 c 0
 163.646820619 106.288552034 199.836697934 181.853568037 234.360048773 250.696653984 c 1
 267.589001554 246.932402904 315.954000615 242.76606927 366.982095708 242.76606927 c 0
 378.356533859 242.76606927 389.86329278 242.973081135 401.364228805 243.43770218 c 1
 401.364228805 243.33048226 401.364257812 243.223643584 401.364257812 243.1171875 c 0
400.693949851 323.490145894 m 1
 391.279710361 323.073265914 380.125542835 322.782226563 367.078125 322.782226562 c 0
 334.980468702 322.782226562 302.558833637 324.60317684 273.523275999 327.161795463 c 1
 311.049064043 398.729257454 349.637067088 467.125263392 398.096679688 546.458007812 c 1
 398.227257287 503.437816029 399.7763984 401.422324467 400.693949851 323.490145894 c 1
EndSplineSet
EndChar

StartChar: B
Encoding: 66 66 34
Width: 500
Flags: HW
LayerCount: 2
Fore
SplineSet
295.297851562 655.655273438 m 1
 318.209069236 661.614819244 337.440911868 664.24009228 353.507334629 664.24009228 c 0
 410.958946755 664.24009228 427.934577921 630.670927458 427.934577921 595.951265358 c 0
 427.934577921 575.530396061 422.062072827 554.711526768 415.098632812 540.090820312 c 0
 390.661132812 488.78515625 326.590820312 461.080078125 247.540039062 437.442382812 c 1
 276.381835938 575.6875 285.185546875 613.42578125 295.297851562 655.655273438 c 1
391.709960938 330.747070312 m 0
 402.959677741 317.402300295 409.322349108 296.063730414 409.322349108 271.269287156 c 0
 409.322349108 191.432034643 343.353039915 75.763671875 162.150390625 75.763671875 c 1
 188.891601562 168.612304688 209.518554688 258.368164062 228.423828125 346.633789062 c 1
 260.411284872 351.981313219 288.149054471 354.698033983 311.492318971 354.698033983 c 0
 351.155258222 354.698033983 378.131266406 346.854864323 391.709960938 330.747070312 c 0
405.655273438 417.46484375 m 1
 475.328997967 461.875333555 508.79509647 530.665577782 508.79509647 593.683860861 c 0
 508.79509647 673.520799818 455.082059792 744.09375 353.23046875 744.09375 c 0
 322.375 744.09375 288.166015625 738.098632812 249.561523438 725.610351562 c 0
 236.48046875 721.37890625 226.338867188 710.5859375 223.024414062 697.119140625 c 0
 202.965820312 615.604492188 186.282226562 535.595703125 169.63671875 455.814453125 c 0
 141.80859375 322.426757812 114.083984375 189.744140625 71.216796875 50.802734375 c 0
 70.0014666522 46.8637321436 69.4277638195 42.9015845581 69.4277638195 39.0180583233 c 0
 69.4277638195 19.3320246549 84.1695787461 1.66623793758 104.805664062 -0.7236328125 c 0
 125.279381697 -3.09409904512 144.94198113 -4.22142509057 163.791894229 -4.22142509057 c 0
 380.007021123 -4.22142509057 489.297851563 144.099691386 489.297851562 265.961914062 c 0
 489.297851562 311.309570312 477.415039062 385.129882812 405.655273438 417.46484375 c 1
EndSplineSet
EndChar

StartChar: C
Encoding: 67 67 35
Width: 500
Flags: HW
LayerCount: 2
Fore
SplineSet
105.012695312 304.3125 m 0
 97.480269768 273.935378898 93.8699350134 243.174601004 93.8699350134 213.342999203 c 0
 93.8699350134 90.6943946005 154.896587548 -16.248046875 255.284179688 -16.248046875 c 0
 319.721679688 -16.248046875 402.633789062 28.2607421875 499.268554688 177.9296875 c 0
 503.670431388 184.747347965 505.668703861 192.146833264 505.668703861 199.375214783 c 0
 505.668703861 220.189450668 489.099809988 239.584960937 465.639648438 239.584960938 c 0
 451.540039062 239.584960938 439.134765625 232.274414062 432.010742188 221.240234375 c 0
 401.83877225 174.509544122 323.168188592 63.751953125 255.284179688 63.751953125 c 0
 206.696623248 63.751953125 174.009729729 133.028634543 174.009729729 213.546428869 c 0
 174.009729729 236.89785386 176.758995248 261.194758852 182.666992188 285.021484375 c 0
 255.922021511 580.444316498 377.871760166 660.257634513 444.659080159 660.257634513 c 0
 468.536635401 660.257634513 485.363446039 650.056063679 490.393554688 635.858398438 c 0
 495.892578125 620.3359375 510.711914062 609.204101562 528.109375 609.204101562 c 0
 550.185546875 609.204101562 568.109375 627.127929688 568.109375 649.204101562 c 0
 568.109375 678.376953125 527.018554688 739.979492188 443.45703125 739.979492188 c 0
 346.862304688 739.979492188 191.50390625 653.1171875 105.012695312 304.3125 c 0
EndSplineSet
EndChar

StartChar: D
Encoding: 68 68 36
Width: 500
Flags: HW
LayerCount: 2
Fore
SplineSet
391.522460938 654.908203125 m 0
 427.996358579 636.847806106 446.978135108 578.105645535 446.978135108 504.49576275 c 0
 446.978135108 345.519840577 358.440623939 117.195766534 166.359375 79.564453125 c 1
 222.095703125 275.94921875 252.42578125 465.755859375 296.692382812 650.482421875 c 1
 315.971580839 657.454538215 336.538569127 662.483518222 355.756380926 662.483518222 c 0
 368.533050889 662.483518222 380.713377687 660.260682384 391.522460938 654.908203125 c 0
526.809570312 506.500976562 m 0
 526.809570312 679.060546875 444.23046875 742.490234375 355.755859375 742.490234375 c 0
 321.434570312 742.490234375 285.274414062 733.473632812 246.6875 716.615234375 c 0
 235.395507812 711.681640625 226.814453125 701.68359375 223.822265625 689.499023438 c 0
 203.884765625 608.309570312 187.301757812 528.620117188 170.756835938 449.158203125 c 0
 143.096679688 316.303710938 115.540039062 184.15234375 72.9345703125 45.76953125 c 0
 71.7202633093 41.8253891166 71.1485192899 37.8681217662 71.1485192899 33.9953328657 c 0
 71.1485192899 12.7230132039 88.3983041035 -6.00055206348 111.161804897 -6.00055206348 c 0
 111.313680343 -6.00055206348 111.465801226 -5.99971860192 111.618164062 -5.998046875 c 0
 389.20790317 -2.96016354555 526.809570312 281.944234119 526.809570312 506.500976562 c 0
EndSplineSet
EndChar

StartChar: E
Encoding: 69 69 37
Width: 500
Flags: HW
LayerCount: 2
Fore
SplineSet
179.520507812 75.0107421875 m 1
 191.193678728 147.159660119 220.151595465 340.85667656 220.563994142 343.541685096 c 1
 232.565490477 342.870308452 245.307652006 342.593518629 258.123210476 342.593518629 c 0
 304.567678674 342.593518629 351.976133189 346.228841871 368.587890625 347.892578125 c 0
 388.775390625 349.915039062 404.559570312 366.975585938 404.559570312 387.692382812 c 0
 404.559570312 409.768554688 386.635742188 427.692382812 364.559570312 427.692382812 c 0
 363.499023438 427.692382812 312.15625 422.680664062 258.6171875 422.680664062 c 0
 249.809711785 422.680664062 241.163899138 422.863499777 233.136460108 423.191302305 c 1
 245.680445738 500.136160448 259.66102288 577.567512785 277.336914062 658.46875 c 1
 295.440429688 661.599609375 321.060546875 662.623046875 359.560546875 662.623046875 c 0
 360.219726562 662.623046875 423.561523438 662.337890625 425.52734375 662.337890625 c 0
 459.435546875 662.337890625 493.529296875 662.912109375 524.420898438 666.44140625 c 0
 544.342773438 668.717773438 559.838867188 685.654296875 559.838867188 706.181640625 c 0
 559.838867188 728.2578125 541.915039062 746.181640625 519.838867188 746.181640625 c 0
 511.524414062 746.181640625 498.658203125 742.337890625 425.52734375 742.337890625 c 0
 403.474609375 742.337890625 381.056640625 742.623046875 359.560546875 742.623046875 c 0
 272.517578125 742.623046875 213.137695312 737.924804688 204.215820312 698.30859375 c 0
 186.668879261 620.395496167 169.711363311 545.099603213 127.30859375 261.82421875 c 0
 116.522460938 189.76953125 105.596679688 116.7890625 92.732421875 40.52734375 c 0
 92.3496041377 38.2582027273 92.1650517997 36.0076514569 92.1650517997 33.7918250717 c 0
 92.1650517997 12.1595809939 109.754460553 -6.1630859375 132.173828125 -6.1630859375 c 0
 136.942382812 -6.1630859375 143.991210938 -4.7353515625 163.350585938 -4.7353515625 c 0
 198.032226562 -4.7353515625 237.362304688 -9.568359375 282.874023438 -9.568359375 c 0
 324.522460938 -9.568359375 371.907226562 -5.4091796875 425.352539062 10.078125 c 0
 442.016601562 14.9072265625 454.213867188 30.2919921875 454.213867188 48.50390625 c 0
 454.213867188 70.580078125 436.290039062 88.50390625 414.213867188 88.50390625 c 0
 398.546875 88.50390625 364.293945312 70.431640625 282.874023438 70.431640625 c 0
 248.770507812 70.431640625 207.405273438 74.1767578125 179.520507812 75.0107421875 c 1
EndSplineSet
EndChar

StartChar: F
Encoding: 70 70 38
Width: 500
Flags: HW
LayerCount: 2
Fore
SplineSet
364.559570312 427.692382812 m 0
 363.499023438 427.692382812 312.15625 422.680664062 258.6171875 422.680664062 c 0
 249.809711785 422.680664062 241.163899138 422.863499777 233.136460108 423.191302305 c 1
 245.680445738 500.136160448 259.66102288 577.567512785 277.336914062 658.46875 c 1
 295.440429688 661.599609375 321.060546875 662.623046875 359.560546875 662.623046875 c 0
 360.219726562 662.623046875 423.561523438 662.337890625 425.52734375 662.337890625 c 0
 459.435546875 662.337890625 493.529296875 662.912109375 524.420898438 666.44140625 c 0
 544.342773438 668.717773438 559.838867188 685.654296875 559.838867188 706.181640625 c 0
 559.838867188 728.2578125 541.915039062 746.181640625 519.838867188 746.181640625 c 0
 511.524414062 746.181640625 498.658203125 742.337890625 425.52734375 742.337890625 c 0
 403.474609375 742.337890625 381.056640625 742.623046875 359.560546875 742.623046875 c 0
 272.517578125 742.623046875 213.137695312 737.924804688 204.215820312 698.30859375 c 0
 186.668879261 620.395496167 169.711363311 545.099603213 127.30859375 261.82421875 c 0
 116.522460938 189.76953125 105.596679688 116.7890625 92.732421875 40.52734375 c 0
 92.3496041377 38.2582027273 92.1650517997 36.0076514569 92.1650517997 33.7918250717 c 0
 92.1650517997 12.1595809939 109.754460553 -6.1630859375 132.173828125 -6.1630859375 c 0
 151.970703125 -6.1630859375 168.427734375 8.25 171.615234375 27.146484375 c 0
 175.553470273 50.4911795423 175.553470273 50.4911795423 220.563994142 343.541685096 c 1
 232.565490477 342.870308452 245.307652006 342.593518629 258.123210476 342.593518629 c 0
 304.567678674 342.593518629 351.976133189 346.228841871 368.587890625 347.892578125 c 0
 388.775390625 349.915039062 404.559570312 366.975585938 404.559570312 387.692382812 c 0
 404.559570312 409.768554688 386.635742188 427.692382812 364.559570312 427.692382812 c 0
EndSplineSet
EndChar

StartChar: G
Encoding: 71 71 39
Width: 500
Flags: HW
LayerCount: 2
Fore
SplineSet
185.149414062 193.747070312 m 0
 185.149414062 364.85993915 333.32430326 663.641601562 473.546875 663.641601562 c 0
 485.741210938 663.641601562 503.045898438 660.024414062 508.18359375 640.6328125 c 0
 512.716796875 623.51953125 528.322265625 610.890625 546.853515625 610.890625 c 0
 569.534423012 610.890625 586.872327314 629.506320447 586.872327314 650.868133933 c 0
 586.872327314 654.247128043 586.438521634 657.694831819 585.5234375 661.1484375 c 0
 571.544904876 713.908950114 525.403568583 743.645000086 473.73776485 743.645000086 c 0
 472.398719821 743.645000086 471.055963934 743.625025984 469.709960938 743.584960938 c 0
 262.811523438 737.422851562 105.149414062 384.646484375 105.149414062 193.747070312 c 0
 105.149414062 88.5039441182 162.79853153 -11.6690553502 249.587552532 -11.6690553502 c 0
 252.652650085 -11.6690553502 255.754092845 -11.5441129911 258.890625 -11.2900390625 c 0
 327.319335938 -5.7470703125 491.896484375 42.015625 520.388671875 369.430664062 c 0
 520.493072055 370.630226111 520.544173139 371.81909224 520.544173139 372.995309932 c 0
 520.544173139 395.233522253 502.277710947 412.950457188 480.59957599 412.950457188 c 0
 478.123374958 412.950457188 475.602660058 412.719295126 473.059570312 412.237304688 c 0
 446.822265625 407.265625 363.693359375 404.317382812 319.106445312 398.9609375 c 0
 299.295898438 396.581054688 283.918945312 379.696289062 283.918945312 359.248046875 c 0
 283.918945312 336.962028882 302.088261032 319.243554968 323.879934778 319.243554968 c 0
 325.479505514 319.243554968 327.098593431 319.339021696 328.731445312 319.53515625 c 0
 336.423338747 320.459027325 336.423338747 320.459027325 435.052734375 327.680664062 c 1
 422.2299522 240.157965403 381.177292836 78.8815849276 252.35546875 68.4462890625 c 0
 251.570957629 68.3827448498 250.788812588 68.351332411 250.009301121 68.351332411 c 0
 214.909561005 68.351332411 185.149414062 132.040333976 185.149414062 193.747070312 c 0
EndSplineSet
EndChar

StartChar: H
Encoding: 72 72 40
Width: 500
Flags: HW
LayerCount: 2
Fore
SplineSet
560.206054688 696.080078125 m 0
 560.561307628 698.267734504 560.732777481 700.437143363 560.732777481 702.573932776 c 0
 560.732777481 724.226303425 543.126188172 742.529296875 520.724609375 742.529296875 c 0
 500.84375 742.529296875 484.330078125 727.993164062 481.243164062 708.978515625 c 0
 465.031083784 609.141505809 449.157472391 517.414671074 432.8769622 431.509245049 c 1
 422.168789808 431.718312249 411.723155326 431.830698531 399.574394748 431.830698531 c 0
 368.499102203 431.830698531 326.280522853 431.095372721 240.021448536 429.361877273 c 1
 259.903540632 520.177324436 280.876727486 605.901324628 304.41796875 698.609375 c 0
 305.261769442 701.932806114 305.662499752 705.246828267 305.662499752 708.496124325 c 0
 305.662499752 729.885843071 288.297140454 748.470703125 265.64453125 748.470703125 c 0
 246.970703125 748.470703125 231.267578125 735.646484375 226.87109375 718.33203125 c 0
 169.165295615 491.073691909 130.211337335 316.200901408 87.7685546875 48.2021484375 c 0
 87.430326612 46.0664135596 87.2669486826 43.9486790694 87.2669486826 41.8622610509 c 0
 87.2669486826 20.1956778734 104.885556777 1.90625 127.275390625 1.90625 c 0
 147.209960938 1.90625 163.758789062 16.5205078125 166.782226562 35.6103515625 c 0
 185.815597106 155.79673764 204.106558536 256.544529687 223.031516402 349.107103034 c 1
 265.546366941 350.071177153 340.362267614 351.609375 391.560546875 351.609375 c 1
 400.888053428 351.609375 409.478972325 351.568991545 417.249709755 351.504781863 c 1
 395.584945932 243.991612891 372.826458493 145.144471874 347.321289062 49.8876953125 c 0
 346.387840636 46.4014221591 345.945524242 42.9200595848 345.945524242 39.5084075157 c 0
 345.945524242 18.1531774627 363.276063519 -0.470703125 385.96484375 -0.470703125 c 0
 404.459960938 -0.470703125 420.040039062 12.1083984375 424.608398438 29.1708984375 c 0
 476.88671875 224.421875 517.510742188 433.155273438 560.206054688 696.080078125 c 0
EndSplineSet
EndChar

StartChar: I
Encoding: 73 73 41
Width: 500
Flags: HW
LayerCount: 2
Fore
SplineSet
179.596679688 77.1552734375 m 1
 136.551684372 77.1552734375 81.7294921875 75.3678097904 81.7294921875 31.3466796875 c 0
 81.7294921875 9.2705078125 99.6533203125 -8.6533203125 121.729492188 -8.6533203125 c 0
 132.766601562 -8.6533203125 137.595703125 -2.8447265625 179.596679688 -2.8447265625 c 0
 228.800163125 -2.8447265625 297.284214704 -9.44118500726 366.681615383 -9.44118500726 c 0
 390.050773217 -9.44118500726 413.523501658 -8.69316959461 436.3984375 -6.693359375 c 0
 456.828125 -4.9072265625 472.875976562 12.263671875 472.875976562 33.1533203125 c 0
 472.875976562 55.2294921875 454.952148438 73.1533203125 432.875976562 73.1533203125 c 0
 432.21484375 73.1533203125 404.314453125 70.560546875 366.783203125 70.560546875 c 0
 351.259315195 70.560546875 335.670958556 70.9171047787 320.227815806 71.4644044843 c 1
 349.892338749 209.388955244 393.187524329 517.955860461 418.273144819 664.811740891 c 1
 429.364133635 665.085230235 440.228109182 665.244913379 450.663088033 665.244913379 c 0
 477.731427726 665.244913379 501.91311804 664.170431333 519.682617188 661.220703125 c 0
 521.917086062 660.849752668 524.133087033 660.670830727 526.315256045 660.670830727 c 0
 547.956641151 660.670830727 566.270507812 678.268572377 566.270507812 700.6796875 c 0
 566.270507812 720.512695312 551.8046875 736.994140625 532.858398438 740.138671875 c 0
 509.989403159 743.93496342 480.537471449 745.27713747 448.795482424 745.27713747 c 0
 372.166991739 745.27713747 282.19227057 737.455078125 239.268554688 737.455078125 c 0
 232.890625 737.455078125 225.334960938 737.887695312 225.194335938 737.887695312 c 0
 203.118164062 737.887695312 185.194335938 719.963867188 185.194335938 697.887695312 c 0
 185.194335938 676.897460938 201.397460938 659.661132812 221.967773438 658.016601562 c 0
 226.401851016 657.661904595 231.980233315 657.506565041 238.509121929 657.506565041 c 0
 261.945314948 657.506565041 297.629097418 659.508166762 336.596639148 661.4753956 c 1
 310.774406147 506.291603597 264.916707637 189.855363833 239.094899638 75.3250865752 c 1
 217.862740423 76.361681514 180.156027143 77.1380677066 179.596679688 77.1552734375 c 1
EndSplineSet
EndChar

StartChar: J
Encoding: 74 74 42
Width: 500
Flags: HW
LayerCount: 2
Fore
SplineSet
187.892578125 202.25 m 0
 187.892578125 224.849609375 191.880859375 235.028320312 191.880859375 243.421875 c 0
 191.880859375 265.498046875 173.95703125 283.421875 151.880859375 283.421875 c 0
 132.419921875 283.421875 116.186523438 269.494140625 112.61328125 251.072265625 c 0
 109.383403392 234.423369281 107.854334235 217.993473617 107.854334235 201.98660418 c 0
 107.854334235 89.5617913682 183.283389723 -1.9951171875 274.638671875 -1.9951171875 c 0
 360.762695312 -1.9951171875 435.345703125 75.09375 479.4765625 222.418945312 c 0
 507.169921875 314.87109375 553.676757812 514.866210938 570.118164062 697.965820312 c 0
 570.228298961 699.191931084 570.282249363 700.408860409 570.282249363 701.614227196 c 0
 570.282249363 723.505514865 552.487213842 741.583007813 530.280273438 741.583007812 c 0
 509.422851562 741.583007812 492.272460938 725.583984375 490.442382812 705.200195312 c 0
 474.745117188 530.389648438 428.732421875 331.8671875 402.826171875 245.379882812 c 0
 361.708007812 108.11328125 305.174804688 78.0048828125 274.638671875 78.0048828125 c 0
 229.157226562 78.0048828125 187.892578125 134.90234375 187.892578125 202.25 c 0
EndSplineSet
EndChar

StartChar: K
Encoding: 75 75 43
Width: 500
Flags: HW
LayerCount: 2
Fore
SplineSet
567.665039062 703.815429688 m 0
 570.362880526 709.442117896 571.605979351 715.276003331 571.605979351 720.972157513 c 0
 571.605979351 741.956851457 554.734721509 761.072265625 531.57421875 761.072265625 c 0
 515.67578125 761.072265625 501.930664062 751.776367188 495.483398438 738.329101562 c 0
 428.989432854 599.642684451 374.658200508 534.923658692 276.84134295 460.184671983 c 1
 298.508105121 550.048241638 321.213392737 635.323195465 346.348632812 706.466796875 c 0
 347.914621402 710.899329504 348.647351171 715.378383742 348.647351171 719.757830693 c 0
 348.647351171 740.932881478 331.517475252 759.779296875 308.62109375 759.779296875 c 0
 291.2109375 759.779296875 276.383789062 748.6328125 270.893554688 733.091796875 c 0
 202.885100983 540.599145694 151.600862161 247.296493357 95.6220703125 45.390625 c 0
 94.6250476601 41.7944244876 94.15331429 38.1994593041 94.15331429 34.6775874522 c 0
 94.15331429 13.3451011429 111.460739004 -5.3056640625 134.173828125 -5.3056640625 c 0
 152.545898438 -5.3056640625 168.041992188 7.107421875 172.725585938 23.998046875 c 0
 198.854488309 118.24278944 223.235664294 228.05009051 248.202203554 337.419066676 c 1
 266.279326014 344.703673416 282.18490547 348.160209542 296.000585084 348.160209542 c 0
 345.070420136 348.160209542 367.776324415 304.556263887 367.776324415 233.994996503 c 0
 367.776324415 183.750583616 356.263507222 119.837711932 334.55859375 48.2666015625 c 0
 333.378346505 44.374818791 332.822140462 40.4717400294 332.822140462 36.6510186034 c 0
 332.822140462 15.3769528812 350.066455514 -3.34375 372.844726562 -3.34375 c 0
 390.883789062 -3.34375 406.150390625 8.6240234375 411.130859375 25.0458984375 c 0
 429.262248204 84.8322306377 447.744886859 161.60834177 447.744886859 232.837819292 c 0
 447.744886859 281.735039612 439.034994295 328.018424119 415.522460938 364.397460938 c 0
 404.697265625 381.147460938 384.75390625 404.420898438 352.134765625 417.625976562 c 1
 442.787109375 491.270507812 501.1953125 565.180664062 567.665039062 703.815429688 c 0
EndSplineSet
EndChar

StartChar: L
Encoding: 76 76 44
Width: 500
Flags: HW
LayerCount: 2
Fore
SplineSet
442.958007812 43.798828125 m 0
 442.958007812 66.020956197 424.862323528 83.8015272362 402.990633513 83.8015272362 c 0
 401.71080661 83.8015272362 400.418050543 83.740645996 399.115234375 83.6162109375 c 0
 331.030273438 77.11328125 233.092773438 79.744140625 165.76953125 74.9677734375 c 1
 218.583007812 273.219726562 278.689453125 578.7890625 312.915039062 675.084960938 c 0
 314.498485209 679.539895376 315.239167359 684.04319865 315.239167359 688.446168347 c 0
 315.239167359 709.617343964 298.114173083 728.46875 275.212890625 728.46875 c 0
 257.829101562 728.46875 243.020507812 717.35546875 237.510742188 701.852539062 c 0
 195.318359375 583.146484375 132.303710938 242.670898438 72.642578125 38.767578125 c 0
 71.5261873154 34.9517586941 71.0026411789 31.1579282276 71.0026411789 27.460919352 c 0
 71.0026411789 5.82222797542 88.9382431817 -12.4995570232 110.914222838 -12.4995570232 c 0
 113.800288164 -12.4995570232 116.756038246 -12.1835595515 119.75 -11.517578125 c 0
 178.850585938 1.6279296875 316.6796875 -4.6259765625 406.80078125 3.9814453125 c 0
 427.077148438 5.91796875 442.958007812 23.0185546875 442.958007812 43.798828125 c 0
EndSplineSet
EndChar

StartChar: M
Encoding: 77 77 45
Width: 500
Flags: HW
LayerCount: 2
Fore
SplineSet
414.508789062 363.666992188 m 1
 413.954101562 360.502929688 362.640625 62.130859375 362.640625 46.64453125 c 0
 362.640625 24.568359375 380.564453125 6.64453125 402.640625 6.64453125 c 0
 422.618164062 6.64453125 439.194335938 21.3212890625 442.166015625 40.470703125 c 0
 474.54296875 249.09375 519.8046875 509.349609375 558.802734375 695.491210938 c 0
 559.386178134 698.276072911 559.665357255 701.043159172 559.665357255 703.761402467 c 0
 559.665357255 725.270680386 542.18469232 743.721679687 519.65234375 743.721679688 c 0
 504.1953125 743.721679688 490.774414062 734.935546875 484.115234375 722.088867188 c 0
 456.69140625 669.182617188 419.333984375 580.411132812 379.6484375 486.438476562 c 0
 362.013671875 444.680664062 343.950195312 401.947265625 326.389648438 361.389648438 c 1
 324.293945312 482.860351562 321.443359375 603.751953125 312.076171875 716.498046875 c 0
 310.372070312 737.008789062 293.163085938 753.147460938 272.21484375 753.147460938 c 0
 253.7265625 753.147460938 238.150390625 740.576171875 233.576171875 723.5234375 c 0
 183.223632812 535.811523438 154.821289062 394.595703125 122.158203125 232.193359375 c 0
 110.74609375 175.456054688 98.8056640625 116.08984375 85.2021484375 51.0966796875 c 0
 84.6198546015 48.3143901892 84.3412131646 45.5498831881 84.3412131646 42.8341362327 c 0
 84.3412131646 21.3241381507 101.821471302 2.873046875 124.354492188 2.873046875 c 0
 143.612304688 2.873046875 159.7109375 16.5126953125 163.506835938 34.6494140625 c 0
 164.336914062 38.6142578125 231.047851562 367.217773438 245.026367188 431.365234375 c 1
 245.080078125 428.90234375 249.333984375 193.827148438 249.528320312 185.045898438 c 0
 250.0078125 163.384765625 267.743164062 145.946289062 289.518554688 145.946289062 c 0
 304.984375 145.946289062 318.412109375 154.743164062 325.06640625 167.6015625 c 0
 351.654296875 218.97265625 382.8515625 289.607421875 414.508789062 363.666992188 c 1
EndSplineSet
EndChar

StartChar: N
Encoding: 78 78 46
Width: 500
Flags: HW
LayerCount: 2
Fore
SplineSet
88.833984375 43.8447265625 m 0
 88.2521096741 41.0635033822 87.9736662808 38.3000749974 87.9736662808 35.5853801347 c 0
 87.9736662808 14.0753837991 105.455039636 -4.375 127.987304688 -4.375 c 0
 147.247070312 -4.375 163.345703125 9.265625 167.140625 27.4052734375 c 0
 168.13238957 32.1455955922 243.131958076 411.183026105 263.733398438 501.970703125 c 1
 295.4765625 330.640625 329.284179688 148.165039062 329.55078125 35.509765625 c 0
 329.603515625 13.4775390625 347.506835938 -4.3935546875 369.55078125 -4.3935546875 c 0
 385.924804688 -4.3935546875 400.013671875 5.4658203125 406.200195312 19.56640625 c 0
 480.434248083 188.767989285 556.012695312 697.367861159 556.012695312 704.377929688 c 0
 556.012695312 726.454101562 538.088867188 744.377929688 516.012695312 744.377929688 c 0
 496.203125 744.377929688 479.737304688 729.946289062 476.564453125 711.033203125 c 0
 418.513258838 364.888032964 418.513258838 364.888032964 390.12890625 243.595703125 c 1
 365.23046875 410.776367188 330.150390625 566.77734375 310.174804688 702.078125 c 0
 307.327148438 721.370117188 290.68359375 736.196289062 270.60546875 736.196289062 c 0
 252.115234375 736.196289062 236.538085938 723.623046875 231.965820312 706.567382812 c 0
 185.263671875 532.389648438 159.315429688 399.463867188 130.48828125 251.793945312 c 0
 117.844726562 187.02734375 104.634765625 119.364257812 88.833984375 43.8447265625 c 0
EndSplineSet
EndChar

StartChar: O
Encoding: 79 79 47
Width: 500
Flags: HW
LayerCount: 2
Fore
SplineSet
430.822265625 747.670898438 m 0
 235.717773438 747.670898438 97.1435546875 389.487304688 97.1435546875 183.42578125 c 0
 97.1435546875 131.952148438 108.263671875 89.083984375 130.073242188 56.0908203125 c 0
 157.767578125 14.1953125 201.598632812 -7.6708984375 247.239257812 -7.6708984375 c 0
 458.922851562 -7.6708984375 554.856445312 375.2890625 554.856445312 563.532226562 c 0
 554.856445312 674.79296875 501.236328125 747.670898438 430.822265625 747.670898438 c 0
177.143554688 183.42578125 m 0
 177.143554688 373.085811129 307.304907278 667.670898438 430.822265625 667.670898438 c 0
 453.11328125 667.670898438 474.856445312 623.14453125 474.856445312 563.532226562 c 0
 474.856445312 388.364588121 382.950719348 72.3291015625 247.239257812 72.3291015625 c 0
 229.869464983 72.3291015625 177.143554688 80.7831988241 177.143554688 183.42578125 c 0
EndSplineSet
EndChar

StartChar: P
Encoding: 80 80 48
Width: 500
Flags: HW
LayerCount: 2
Fore
SplineSet
240.033203125 335.583984375 m 1
 252.44396548 334.469632044 264.711173613 333.916811479 276.786464895 333.916811479 c 0
 425.598992834 333.916811479 545.264318948 417.875944956 545.264318948 569.489854672 c 0
 545.264318948 575.940834692 545.047677461 582.514296567 544.607421875 589.208984375 c 0
 538.550157503 681.307849393 463.99937681 741.865064662 361.216429114 741.865064662 c 0
 334.150256949 741.865064662 305.126341435 737.665759473 274.879882812 728.737304688 c 0
 261.512695312 724.791992188 251.05078125 714.044921875 247.5078125 700.510742188 c 0
 223.73828125 609.706054688 205.028320312 531.76171875 187.0390625 456.821289062 c 0
 156.157226562 328.17578125 127.44140625 208.544921875 78.4736328125 45.5986328125 c 0
 77.31318021 41.7374448884 76.7660809268 37.8664606277 76.7660809268 34.0768725163 c 0
 76.7660809268 12.797147088 94.0170766361 -5.916015625 116.788085938 -5.916015625 c 0
 134.862304688 -5.916015625 150.153320312 6.09765625 155.102539062 22.5693359375 c 0
 191.454101562 143.53125 216.887695312 241.341796875 240.033203125 335.583984375 c 1
464.78125 583.890625 m 0
 465.106642517 578.942795969 465.265737476 574.125751863 465.265737476 569.436692607 c 0
 465.265737476 450.584709572 363.054689145 413.956988667 275.919980631 413.956988667 c 0
 270.253322629 413.956988667 264.650427453 414.11189941 259.143554688 414.409179688 c 1
 286.676757812 528.966796875 298.829101562 579.526367188 318.953125 657.334960938 c 1
 321.112014015 657.773090665 338.753308227 661.208826416 361.077827648 661.208826416 c 0
 402.656966914 661.208826416 460.481558023 649.290740655 464.78125 583.890625 c 0
EndSplineSet
EndChar

StartChar: Q
Encoding: 81 81 49
Width: 500
Flags: HW
LayerCount: 2
Fore
SplineSet
403.01171875 -17.6357421875 m 0
 403.01171875 -28.1298828125 411.759765625 -51.7431640625 411.759765625 -80.0478515625 c 0
 411.759765625 -101.96875 406.630859375 -106.192382812 406.630859375 -106.192382812 c 1
 406.637409018 -106.241568931 406.640668274 -106.289479571 406.640668274 -106.336102664 c 0
 406.640668274 -107.1186621 405.722439457 -107.538481129 404.033198235 -107.538481129 c 0
 390.796644593 -107.538481129 330.220132544 -81.7617034539 293.131826653 -2.74671295876 c 1
 469.907129298 51.2739602805 550.788085938 386.674049588 550.788085938 559.012695312 c 0
 550.788085938 669.916015625 497.163085938 742.604492188 426.78515625 742.604492188 c 0
 231.829101562 742.604492188 93.2119140625 385.782226562 93.2119140625 180.3515625 c 0
 93.2119140625 139.780315545 102.459070339 21.590311288 208.029493237 -5.71258839906 c 1
 243.156248133 -109.680072515 332.517563862 -186.46887093 403.978988486 -186.46887093 c 0
 416.159623513 -186.46887093 427.820206373 -184.237897526 438.603515625 -179.530273438 c 0
 461.989628585 -169.319959311 491.665331475 -143.783268568 491.665331475 -79.9259551309 c 0
 491.665331475 -59.9623738323 488.764939911 -36.2534790291 481.865234375 -8.0966796875 c 0
 477.58203125 9.380859375 461.801757812 22.3642578125 443.01171875 22.3642578125 c 0
 420.935546875 22.3642578125 403.01171875 4.4404296875 403.01171875 -17.6357421875 c 0
193.136522929 97.1221285821 m 1
 184.403810305 110.138045095 173.211914062 135.549492898 173.211914062 180.3515625 c 0
 173.211914062 369.286132812 303.307617188 662.604492188 426.78515625 662.604492188 c 0
 449.172851562 662.604492188 470.788085938 618.172851562 470.788085938 559.012695312 c 0
 470.788085938 401.047085594 394.040276243 117.4935666 273.036014901 75.0222021723 c 1
 272.86704901 78.2558504277 272.78010469 81.5159669652 272.78010469 84.8006279705 c 0
 272.78010469 114.850391934 280.056934819 146.95441226 298.379882812 179.639648438 c 0
 301.889998407 185.901360208 303.494528477 192.530509862 303.494528477 199.003002491 c 0
 303.494528477 219.896303803 286.775198607 239.157226562 263.462890625 239.157226562 c 0
 248.471679688 239.157226562 235.395507812 230.892578125 228.545898438 218.674804688 c 0
 205.800212567 178.09988468 194.966855551 136.915372724 193.136522929 97.1221285821 c 1
EndSplineSet
EndChar

StartChar: R
Encoding: 82 82 50
Width: 500
Flags: HW
LayerCount: 2
Fore
SplineSet
366.487304688 664.729492188 m 0
 407.206054688 664.729492188 454.028320312 647.330078125 454.028320312 589.940429688 c 0
 454.028320312 509.625976562 360.711914062 459.046875 278.204101562 434.954101562 c 1
 310.4140625 568.705078125 320.905273438 609.999023438 334.299804688 661.62890625 c 1
 345.850585938 663.7578125 356.627929688 664.729492188 366.487304688 664.729492188 c 0
255.772460938 342.471679688 m 1
 335.513224151 335.816560845 359.149281883 240.479325171 359.149281883 160.430743404 c 0
 359.149281883 114.794846614 351.467164536 74.1280201627 342.119140625 57.6953125 c 1
 335.20595526 49.8630846871 332.106537616 40.64019724 332.106537616 31.5994992019 c 0
 332.106537616 10.9464203143 348.28159317 -8.755859375 372.115234375 -8.755859375 c 0
 429.479492188 -8.755859375 439.254882812 110.52734375 439.254882812 159.681640625 c 0
 439.254882812 250.529296875 414.461914062 332.413085938 361.78515625 379.927734375 c 1
 426.29296875 407.620117188 534.028320312 471.5859375 534.028320312 589.940429688 c 0
 534.028320312 678.634432357 467.502159097 744.761689903 366.510652768 744.761689903 c 0
 342.937753256 744.761689903 317.487098682 741.158917547 290.56640625 733.399414062 c 0
 277.092773438 729.515625 266.530273438 718.733398438 262.958984375 705.130859375 c 0
 245.301757812 637.889648438 245.301757812 637.889648438 185.34375 391.326171875 c 0
 159.583007812 285.392578125 132.610351562 179.359375 91.6669921875 43.5380859375 c 0
 90.4998554327 39.6664238461 89.9496796822 35.7844689803 89.9496796822 31.9842439032 c 0
 89.9496796822 10.7060901873 107.198154126 -8.009765625 129.971679688 -8.009765625 c 0
 148.034179688 -8.009765625 163.31640625 3.98828125 168.276367188 20.4423828125 c 0
 205.865234375 145.130859375 231.932617188 245.465820312 255.772460938 342.471679688 c 1
EndSplineSet
EndChar

StartChar: S
Encoding: 83 83 51
Width: 500
Flags: HW
LayerCount: 2
Fore
SplineSet
549.379882812 656.458984375 m 0
 549.379882812 684.291823061 497.728904501 744.30078125 421.198242188 744.30078125 c 0
 307.320208909 744.30078125 197.132799937 624.584350819 197.132799937 516.736032393 c 0
 197.132799937 460.935817791 226.629739158 408.312671983 300.374023438 377.091796875 c 0
 358.69140625 352.401367188 415.365234375 312.456054688 415.365234375 250.450195312 c 0
 415.365234375 164.80078125 308.435546875 72.1953125 231.551757812 72.1953125 c 0
 216.428710938 72.1953125 166.98828125 72.1953125 160.528320312 168.200195312 c 0
 159.127929688 189.009765625 141.78125 205.479492188 120.619140625 205.479492188 c 0
 98.461438443 205.479492188 80.6176131715 187.45937463 80.6176131715 165.500006892 c 0
 80.6176131715 164.592661921 80.6480776096 163.678591539 80.7099609375 162.758789062 c 0
 83.4300925577 122.337534511 102.229859567 -7.8046875 231.551757812 -7.8046875 c 0
 349.88671875 -7.8046875 495.365234375 116.946289062 495.365234375 250.450195312 c 0
 495.365234375 303.393554688 471.604492188 391.482421875 331.508789062 450.796875 c 0
 292.208422278 467.436490682 276.739057584 493.42224455 276.739057584 521.607951386 c 0
 276.739057584 586.930007545 359.82629335 664.068192843 421.916739686 664.068192843 c 0
 430.882977037 664.068192843 439.411365963 662.459621541 447.188476562 658.974609375 c 0
 457.138671875 654.515625 467.00390625 647.012695312 476.77734375 633.290039062 c 0
 485.026736507 621.708321101 496.98074902 616.539025156 508.816078849 616.539025156 c 0
 529.275307952 616.539025156 549.379882812 631.986204786 549.379882812 656.458984375 c 0
EndSplineSet
EndChar

StartChar: T
Encoding: 84 84 52
Width: 500
Flags: HW
LayerCount: 2
Fore
SplineSet
221.967773438 658.016601562 m 0
 226.401851016 657.661904595 231.980233315 657.506565041 238.509121929 657.506565041 c 0
 261.945314948 657.506565041 297.629097418 659.508166762 336.596639148 661.4753956 c 1
 308.041936001 489.870286401 254.98717299 121.080109477 231.618164062 46.1796875 c 0
 230.373695606 42.1910026526 229.787988295 38.1859606256 229.787988295 34.266339982 c 0
 229.787988295 13.0104162275 247.012722923 -5.7333984375 269.811523438 -5.7333984375 c 0
 287.740234375 -5.7333984375 302.9296875 6.087890625 308.004882812 22.353515625 c 0
 336.615588733 114.059064059 389.457805814 496.121395714 418.273144819 664.811740891 c 1
 429.364133635 665.085230235 440.228109182 665.244913379 450.663088033 665.244913379 c 0
 477.731427726 665.244913379 501.91311804 664.170431333 519.682617188 661.220703125 c 0
 521.917086062 660.849752668 524.133087033 660.670830727 526.315256045 660.670830727 c 0
 547.956641151 660.670830727 566.270507812 678.268572377 566.270507812 700.6796875 c 0
 566.270507812 720.512695312 551.8046875 736.994140625 532.858398438 740.138671875 c 0
 509.989403159 743.93496342 480.537471449 745.27713747 448.795482424 745.27713747 c 0
 372.166991739 745.27713747 282.19227057 737.455078125 239.268554688 737.455078125 c 0
 232.890625 737.455078125 225.334960938 737.887695312 225.194335938 737.887695312 c 0
 203.118164062 737.887695312 185.194335938 719.963867188 185.194335938 697.887695312 c 0
 185.194335938 676.897460938 201.397460938 659.661132812 221.967773438 658.016601562 c 0
EndSplineSet
EndChar

StartChar: U
Encoding: 85 85 53
Width: 500
Flags: HW
LayerCount: 2
Fore
SplineSet
290.279296875 700.88671875 m 0
 291.519647458 704.869384412 292.103471839 708.868103214 292.103471839 712.781605744 c 0
 292.103471839 734.038502393 274.878809711 752.78125 252.080078125 752.78125 c 0
 234.14453125 752.78125 218.950195312 740.951171875 213.880859375 724.67578125 c 0
 189.92512005 647.760712269 120.726176574 419.858680765 120.726176574 238.68956317 c 0
 120.726176574 181.80474727 127.548367028 129.527239274 144.735351562 87.9775390625 c 0
 153.988220373 65.6080399561 185.84412903 -0.793698083967 263.019487862 -0.793698083967 c 0
 264.355810092 -0.793698083967 265.705720139 -0.773789309898 267.069335938 -0.7333984375 c 0
 442.290459342 4.45721058546 509.295243388 222.708345036 596.567382812 699.424804688 c 0
 597.016468561 701.877713776 597.232385449 704.311689393 597.232385449 706.70606144 c 0
 597.232385449 728.293741227 579.680843348 746.662109375 557.221679688 746.662109375 c 0
 537.616210938 746.662109375 521.286132812 732.526367188 517.875976562 713.899414062 c 0
 428.117729731 223.600557824 364.815718964 79.208984375 263.173828125 79.208984375 c 0
 211.07421875 79.208984375 200.807617188 178.46875 200.807617188 238.831054688 c 0
 200.807617188 343.2109375 226.998046875 497.712890625 290.279296875 700.88671875 c 0
EndSplineSet
EndChar

StartChar: V
Encoding: 86 86 54
Width: 500
Flags: HW
LayerCount: 2
Fore
SplineSet
287.026367188 694.258789062 m 0
 287.047037229 694.86596177 287.057229899 695.465479316 287.057229899 696.057405322 c 0
 287.057229899 725.109150629 262.504624811 735.874023438 247.05859375 735.874023438 c 0
 225.5234375 735.874023438 207.939453125 718.818359375 207.090820312 697.489257812 c 0
 202.709960938 587.424804688 191.361328125 296.934570312 183.198242188 31.52734375 c 0
 183.183956853 31.0629476069 183.176879681 30.6017379017 183.176879681 30.1437542244 c 0
 183.176879681 5.66383554468 203.396811341 -9.59911538923 223.832463802 -9.59911538923 c 0
 236.468495927 -9.59911538923 249.187005734 -3.7635500741 257.258789062 9.3369140625 c 0
 421.790039062 276.366210938 465.708007812 448.447265625 586.42578125 683.4765625 c 0
 589.459880866 689.383647505 590.852996318 695.559983928 590.852996318 701.589980633 c 0
 590.852996318 722.533625984 574.047261363 741.711914062 550.821289062 741.711914062 c 0
 535.311523438 741.711914062 521.8515625 732.865234375 515.216796875 719.947265625 c 0
 415.106445312 525.041015625 368.79296875 377.916015625 268.3515625 189.212890625 c 1
 273.588867188 344.185546875 280.9140625 514.640625 287.026367188 694.258789062 c 0
EndSplineSet
EndChar

StartChar: W
Encoding: 87 87 55
Width: 500
Flags: HW
LayerCount: 2
Fore
SplineSet
275.959960938 708.473632812 m 0
 276.080341758 709.755250082 276.139259171 711.027041422 276.139259171 712.28628027 c 0
 276.139259171 734.164681581 258.354065236 752.25390625 236.13671875 752.25390625 c 0
 215.334960938 752.25390625 198.220703125 736.340820312 196.313476562 716.034179688 c 0
 188.170973897 629.327101579 106.307974769 347.575006947 106.307974769 70.1851955709 c 0
 106.307974769 56.8419742559 106.497395723 43.5088467302 106.893554688 30.2080078125 c 0
 107.53515625 8.6904296875 125.204101562 -8.5810546875 146.875976562 -8.5810546875 c 0
 162.659179688 -8.5810546875 176.319335938 0.580078125 182.825195312 13.8701171875 c 0
 224.434570312 98.8701171875 255.857421875 174.215820312 282.665039062 242.6484375 c 1
 275.790247727 166.832778459 272.880973886 102.274180737 272.880973886 41.1322763065 c 0
 272.880973886 36.3622494476 272.898681022 31.6130181057 272.93359375 26.880859375 c 0
 273.115292604 2.29015345699 293.239835952 -12.6787368985 313.536858691 -12.6787368985 c 0
 326.511922132 -12.6787368985 339.557469732 -6.56166041343 347.508789062 7.0693359375 c 0
 391.939453125 83.236328125 439.663085938 202.353515625 483.450195312 323.974609375 c 0
 538.111328125 475.803710938 585.618164062 630.262695312 606.1484375 701.76171875 c 0
 607.213846588 705.471716912 607.71716023 709.18480716 607.71716023 712.821249407 c 0
 607.71716023 734.130416668 590.434194504 752.807617188 567.696289062 752.807617188 c 0
 549.451171875 752.807617188 534.041992188 740.565429688 529.244140625 723.853515625 c 0
 527.799804688 718.825195312 450.530273438 450.883789062 361.719726562 228.186523438 c 1
 367.98828125 299.208007812 368.639648438 304.333007812 397.680664062 532.609375 c 0
 397.900428398 534.336657918 398.007240907 536.049206003 398.007240907 537.74016894 c 0
 398.007240907 559.508223331 380.306429778 577.69921875 358.001953125 577.69921875 c 0
 342.056640625 577.69921875 328.27734375 568.348632812 321.854492188 554.836914062 c 0
 284.370148261 475.986983772 197.162134687 244.031913369 195.90234375 240.892578125 c 1
 209.203125 367.55859375 233.702148438 487.211914062 252.260742188 577.364257812 c 0
 263.744140625 633.14453125 273.000976562 676.961914062 275.959960938 708.473632812 c 0
EndSplineSet
EndChar

StartChar: X
Encoding: 88 88 56
Width: 500
Flags: HW
LayerCount: 2
Fore
SplineSet
540.123046875 748.5625 m 0
 481.46700569 748.5625 520.096166269 673.789556689 336.11305555 450.770450375 c 1
 312.769812899 520.942113269 294.702106768 592.83138021 294.702106768 680.492561695 c 0
 294.702106768 687.695842356 294.82410374 695.005618319 295.075195312 702.4296875 c 0
 295.075195312 731.319335938 272.205078125 743.803710938 255.098632812 743.803710938 c 0
 233.481445312 743.803710938 215.846679688 726.619140625 215.122070312 705.177734375 c 0
 214.832257937 696.60887989 214.691738816 688.190287864 214.691738816 679.91228705 c 0
 214.691738816 560.144175238 244.106606494 469.806021803 276.362673132 379.607124466 c 1
 206.893940805 296.32099548 136.543585295 203.085491392 80.2978515625 44.9423828125 c 0
 78.7126786573 40.4852614582 77.9712075354 35.9795535893 77.9712075354 31.5742287317 c 0
 77.9712075354 10.4033182169 95.0956891979 -8.44921875 117.998046875 -8.44921875 c 0
 178.457221117 -8.44921875 142.947675863 85.0037110899 307.535988445 291.488696553 c 1
 332.818977603 216.314101819 354.376254951 135.083886404 358.240234375 32.40234375 c 0
 359.044921875 11.033203125 376.646484375 -6.0693359375 398.211914062 -6.0693359375 c 0
 420.316301183 -6.0693359375 438.212548748 11.8882536129 438.212548748 33.9220336314 c 0
 438.212548748 34.432222551 438.202953725 34.9445969087 438.18359375 35.458984375 c 0
 433.047829024 171.92617697 400.083015777 270.982941227 367.04597187 363.12472471 c 1
 436.953975254 445.909141942 512.086239325 537.123953397 577.068359375 693.215820312 c 0
 579.174951235 698.275910258 580.152654627 703.449473777 580.152654627 708.503246824 c 0
 580.152654627 729.574046268 563.157008542 748.5625 540.123046875 748.5625 c 0
EndSplineSet
EndChar

StartChar: Y
Encoding: 89 89 57
Width: 500
Flags: HW
LayerCount: 2
Fore
SplineSet
292.138993237 373.551344286 m 1
 265.358640788 241.270006317 259.382596848 245.075173098 208.052734375 43.744140625 c 0
 207.202127637 40.4081390553 206.798237032 37.0812356435 206.798237032 33.8194432741 c 0
 206.798237032 12.4330239578 224.161337634 -6.154296875 246.81640625 -6.154296875 c 0
 265.4765625 -6.154296875 281.169921875 6.6513671875 285.580078125 23.947265625 c 0
 295.208007812 61.7109375 305.293945312 98.6953125 315.342773438 135.541992188 c 0
 335.249084317 208.526178669 355.049381027 281.018028161 370.564256794 357.691581807 c 1
 453.89100403 460.383306017 477.462798804 501.850959366 582.7890625 687.141601562 c 0
 586.380486326 693.459506294 588.021033055 700.162704943 588.021033055 706.707638474 c 0
 588.021033055 727.592704625 571.315904008 746.866210938 547.989257812 746.866210938 c 0
 533.083007812 746.866210938 520.0703125 738.6953125 513.189453125 726.590820312 c 0
 406.042987447 538.099870561 404.398737389 535.207322935 351.2265625 463.266601562 c 1
 329.823242188 549.75 309.889648438 648.250976562 300.583007812 707.299804688 c 0
 297.572265625 726.404296875 281.017578125 741.034179688 261.072265625 741.034179688 c 0
 238.684113821 741.034179688 221.064523731 722.747103319 221.064523731 701.079490484 c 0
 221.064523731 699.002530237 221.226417463 696.894508673 221.561523438 694.768554688 c 0
 234.111919767 615.126797882 263.285945927 475.248710653 292.138993237 373.551344286 c 1
EndSplineSet
EndChar

StartChar: Z
Encoding: 90 90 58
Width: 500
Flags: HW
LayerCount: 2
Fore
SplineSet
176.153320312 2.5166015625 m 0
 224.752820783 2.5166015625 292.546077851 -4.01229229512 361.228641281 -4.01229229512 c 0
 384.35949371 -4.01229229512 407.591211414 -3.27178406085 430.224609375 -1.2919921875 c 0
 450.653320312 0.4951171875 466.700195312 17.666015625 466.700195312 38.5546875 c 0
 466.700195312 60.630859375 448.776367188 78.5546875 426.700195312 78.5546875 c 0
 426.045898438 78.5546875 398.404296875 75.98828125 361.321289062 75.98828125 c 0
 296.724609375 75.98828125 251.462890625 81.013671875 193.151367188 82.3154296875 c 1
 553.352539062 678.663085938 l 2
 557.293745585 685.188318212 559.105932923 692.238677188 559.105932923 699.144794929 c 0
 559.105932923 717.800821592 545.881610092 735.404256939 525.678710938 738.759765625 c 0
 503.028501104 742.521495627 473.870819453 743.851275692 442.452376537 743.851275692 c 0
 366.638983133 743.851275692 277.661911433 736.108398438 235.188476562 736.108398438 c 0
 228.9140625 736.108398438 221.399414062 736.537109375 221.259765625 736.537109375 c 0
 199.18359375 736.537109375 181.259765625 718.61328125 181.259765625 696.537109375 c 0
 181.259765625 675.547851562 197.4609375 658.3125 218.029296875 656.666015625 c 0
 222.638037207 656.297029808 228.355262848 656.135869471 234.993388343 656.135869471 c 0
 280.843563771 656.135869471 370.62801686 663.824504595 442.532898251 663.824504595 c 0
 445.353420698 663.824504595 448.146432582 663.812674408 450.908203125 663.788085938 c 1
 84.6455078125 57.404296875 l 2
 80.6836561074 50.8449141154 78.8793579985 43.8144971453 78.8793579985 36.9488761564 c 0
 78.8793579985 16.0977334329 95.5214671516 -3.2333984375 118.91015625 -3.2333984375 c 0
 129.922851562 -3.2333984375 134.655273438 2.5166015625 176.153320312 2.5166015625 c 0
EndSplineSet
EndChar

StartChar: bracketleft
Encoding: 91 91 59
Width: 500
Flags: HW
LayerCount: 2
Fore
SplineSet
180.295898438 -8.0546875 m 0
 209.595703125 -8.0546875 240.205078125 -11.0029296875 279.65234375 -11.0029296875 c 0
 308.654296875 -11.0029296875 342.387695312 -9.37890625 383.391601562 -3.96484375 c 0
 402.977539062 -1.37890625 418.114257812 15.4013671875 418.114257812 35.689453125 c 0
 418.114257812 58.0064704133 399.907699849 75.6951128673 378.156231991 75.6951128673 c 0
 376.403584644 75.6951128673 374.627921969 75.5802693609 372.836914062 75.34375 c 0
 339.832456861 70.9854233572 326.209272192 69.1864454695 297.18864918 69.1864454695 c 0
 276.789921189 69.1864454695 248.783706806 70.0752751239 201.091796875 71.5888671875 c 1
 257.981445312 281.181640625 264.103515625 471.434570312 331.513671875 667.16015625 c 1
 366.463449997 665.601185129 400.689996746 664.299714124 430.971856392 664.299714124 c 0
 454.448152503 664.299714124 475.553584663 665.081933501 492.787109375 667.1328125 c 0
 512.619140625 669.4921875 528.018554688 686.387695312 528.018554688 706.850585938 c 0
 528.018554688 728.926757812 510.094726562 746.850585938 488.018554688 746.850585938 c 0
 487.446289062 746.850585938 466.114257812 744.311523438 430.833984375 744.311523438 c 0
 380.811523438 744.311523438 310.538085938 748.44140625 303.827148438 748.44140625 c 0
 286.669921875 748.44140625 272.020507812 737.615234375 266.344726562 722.427734375 c 0
 180.048828125 491.528320312 181.814453125 275.895507812 109.326171875 42.4912109375 c 0
 108.092123547 38.5181662094 107.511194517 34.5295603881 107.511194517 30.6258544652 c 0
 107.511194517 9.3680876385 124.737977003 -9.3720703125 147.534179688 -9.3720703125 c 0
 147.862304688 -9.3720703125 164.251953125 -8.0546875 180.295898438 -8.0546875 c 0
EndSplineSet
EndChar

StartChar: backslash
Encoding: 92 92 60
Width: 500
Flags: HW
LayerCount: 2
Fore
SplineSet
419.995117188 4.6513671875 m 0
 442.829675961 4.6513671875 460.019210597 23.4328529451 460.019210597 44.6587203766 c 0
 460.019210597 48.74130808 459.383287981 52.9143250836 458.029296875 57.0615234375 c 0
 417.099609375 182.424804688 355.200195312 339.65625 314.25 488.0859375 c 0
 293.172851562 564.48046875 278.4375 636.805664062 275.752929688 695.575195312 c 0
 274.783203125 716.79296875 257.250976562 733.72265625 235.794921875 733.72265625 c 0
 213.678798567 733.72265625 195.794284566 715.751251744 195.794284566 693.73454931 c 0
 195.794284566 693.116160391 195.808393558 692.494580159 195.836914062 691.870117188 c 0
 202.041015625 556.08203125 256.40625 390.536132812 334.19921875 170.5234375 c 0
 351.798828125 120.750976562 368.377929688 73.8447265625 381.9609375 32.2412109375 c 0
 387.1875 16.232421875 402.25 4.6513671875 419.995117188 4.6513671875 c 0
EndSplineSet
EndChar

StartChar: bracketright
Encoding: 93 93 61
Width: 500
Flags: HW
LayerCount: 2
Fore
SplineSet
474.9140625 669.020507812 m 1
 473.501606167 663.01728282 375.806663849 181.637476039 334.838867188 68.423828125 c 1
 325.347991126 67.8521900165 315.884090154 67.6208221189 306.387443758 67.6208221189 c 0
 266.03533287 67.6208221189 225.092010838 71.7981165 178.975937342 71.7981165 c 0
 164.17262457 71.7981165 148.836302484 71.367680817 132.815429688 70.23046875 c 0
 112.075195312 68.7587890625 95.68359375 51.4443359375 95.68359375 30.33203125 c 0
 95.68359375 8.255859375 113.607421875 -9.66796875 135.68359375 -9.66796875 c 0
 136.116210938 -9.66796875 156.31640625 -8.2060546875 178.94140625 -8.2060546875 c 0
 222.384477452 -8.2060546875 263.443558265 -12.3798660802 306.434573226 -12.3798660802 c 0
 326.28472813 -12.3798660802 346.54675736 -11.4900398087 367.645507812 -8.888671875 c 0
 402.756007205 -4.55774138362 420.658941014 22.7573981037 518.083984375 488.833984375 c 0
 538.381835938 585.935546875 556.18359375 669.262695312 563.875976562 692.750976562 c 0
 565.233206257 696.895543864 565.872462276 701.077732057 565.872462276 705.175947376 c 0
 565.872462276 724.691512848 551.376482961 742.302881889 530.884765625 744.879882812 c 0
 505.204739309 748.109697559 480.954873506 749.291238225 456.653739615 749.291238225 c 0
 426.751196086 749.291238225 396.771026002 747.502231967 363.953125 745.5390625 c 0
 335.604492188 743.84375 305.341796875 742.037109375 270.955078125 741.112304688 c 0
 249.3828125 740.532226562 232.048828125 722.837890625 232.048828125 701.126953125 c 0
 232.048828125 679.05078125 249.97265625 661.126953125 272.048828125 661.126953125 c 0
 311.489718962 661.126953125 399.162840382 669.241482197 459.068444835 669.241482197 c 0
 464.607765122 669.241482197 469.909666617 669.172101068 474.9140625 669.020507812 c 1
EndSplineSet
EndChar

StartChar: asciicircum
Encoding: 94 94 62
Width: 500
Flags: HW
LayerCount: 2
Fore
SplineSet
465.064453125 503.282226562 m 0
 487.271313967 503.282226562 505.067095027 521.36010586 505.067095027 543.25171833 c 0
 505.067095027 544.452372257 505.013565027 545.664497956 504.904296875 546.885742188 c 0
 496.900390625 636.34765625 466.794921875 663.489257812 459.16015625 725.640625 c 0
 456.511487456 747.199646598 438.111432009 760.705194458 419.125121599 760.705194458 c 0
 409.221439162 760.705194458 399.15824273 757.030472666 391.087890625 748.907226562 c 0
 331.879882812 689.309570312 284.544921875 618.639648438 244.119140625 569.83984375 c 0
 237.772040863 562.177841435 234.920553268 553.333535992 234.920553268 544.6722837 c 0
 234.920553268 523.987973053 251.18323682 504.34765625 274.935546875 504.34765625 c 0
 287.328125 504.34765625 298.412109375 509.995117188 305.751953125 518.85546875 c 0
 331.579101562 550.033203125 366.374023438 598.193359375 399.577148438 638.530273438 c 1
 416.6875 592.432617188 421.717773438 578.881835938 425.224609375 539.678710938 c 0
 427.048828125 519.288085938 444.202148438 503.282226562 465.064453125 503.282226562 c 0
EndSplineSet
EndChar

StartChar: underscore
Encoding: 95 95 63
Width: 500
Flags: HW
LayerCount: 2
Fore
SplineSet
331.430664062 -11.2705078125 m 0
 377.448242188 -11.2705078125 404.6640625 -14.6044921875 405.404296875 -14.6044921875 c 0
 427.48046875 -14.6044921875 445.404296875 3.3193359375 445.404296875 25.3955078125 c 0
 445.404296875 45.9033203125 429.9375 62.8271484375 410.04296875 65.12890625 c 0
 387.743494861 67.7087361488 362.097926966 68.7718793258 332.684621939 68.7718793258 c 0
 289.459446453 68.7718793258 238.097230573 66.4758489307 177.259765625 63.3232421875 c 0
 145.84765625 61.6962890625 117.727539062 60.2548828125 97.6611328125 59.888671875 c 0
 75.9267578125 59.4921875 58.404296875 41.7236328125 58.404296875 19.8955078125 c 0
 58.404296875 -2.1806640625 76.328125 -20.1044921875 98.404296875 -20.1044921875 c 0
 133.578125 -20.1044921875 250.890625 -11.2705078125 331.430664062 -11.2705078125 c 0
EndSplineSet
EndChar

StartChar: grave
Encoding: 96 96 64
Width: 500
Flags: HW
LayerCount: 2
Fore
SplineSet
314.587890625 747.369140625 m 0
 291.297393398 747.369140625 274.556104404 728.129083448 274.556104404 707.223464688 c 0
 274.556104404 700.861764482 276.106381174 694.34582995 279.494140625 688.170898438 c 0
 301.366210938 648.3046875 366.552734375 557.26953125 449.462890625 536.989257812 c 0
 452.675491735 536.203494713 455.876182988 535.829755224 459.01548999 535.829755224 c 0
 480.428921235 535.829755224 498.986328125 553.218728387 498.986328125 575.846679688 c 0
 498.986328125 594.642578125 485.995117188 610.426757812 468.509765625 614.704101562 c 0
 422.879882812 625.865234375 370.92578125 687.844726562 349.681640625 726.567382812 c 0
 342.8828125 738.959960938 329.708984375 747.369140625 314.587890625 747.369140625 c 0
EndSplineSet
EndChar

StartChar: a
Encoding: 97 97 65
Width: 500
Flags: HW
LayerCount: 2
Fore
SplineSet
352.947265625 67.35546875 m 1
 365.210510296 6.8280263457 376.731725953 -11.74609375 404.770507812 -11.74609375 c 0
 426.846679688 -11.74609375 444.770507812 6.177734375 444.770507812 28.25390625 c 0
 444.770507812 44.759765625 425.65234375 77.30078125 425.65234375 138.893554688 c 0
 425.65234375 223.684451541 467.866210938 340.436909953 467.866210938 368.8203125 c 0
 467.866210938 392.437915875 448.335035018 408.842921572 427.594826204 408.842921572 c 0
 419.581914094 408.842921572 411.388537134 406.394247996 404.071289062 400.966796875 c 1
 381.208715032 409.06743316 359.255488043 412.777749496 338.375514437 412.777749496 c 0
 202.642814926 412.777749496 112.263671875 255.98714985 112.263671875 129.205078125 c 0
 112.263671875 33.68359375 164.5 -11.9560546875 224.755859375 -11.9560546875 c 0
 254.321289062 -11.9560546875 302.97265625 -1.14453125 352.947265625 67.35546875 c 1
206.775390625 74.7001953125 m 0
 196.848636868 85.0196212911 192.118934632 103.921109526 192.118934632 126.982554962 c 0
 192.118934632 205.634409878 247.133627173 332.673828125 338.623046875 332.673828125 c 0
 349.928710938 332.673828125 362.438476562 330.744140625 376.2734375 325.956054688 c 1
 373.871715425 316.041794178 333.00555081 150.646497463 264.870117188 87.66015625 c 0
 248.966829814 72.958687328 235.178582409 67.8712083991 224.646361695 67.8712083991 c 0
 216.64157686 67.8712083991 210.51761265 70.8099543631 206.775390625 74.7001953125 c 0
EndSplineSet
EndChar

StartChar: b
Encoding: 98 98 66
Width: 500
Flags: HW
LayerCount: 2
Fore
SplineSet
262.360351562 398.502929688 m 1
 263.09375 401.615234375 330.491210938 691.038085938 330.491210938 710.836914062 c 0
 330.491210938 732.913085938 312.567382812 750.836914062 290.491210938 750.836914062 c 0
 270.779296875 750.836914062 254.377929688 736.547851562 251.090820312 717.770507812 c 0
 250.172851562 712.5234375 189.619140625 419.412109375 130.061523438 198.939453125 c 0
 114.413085938 154.26953125 95.2666015625 90.2294921875 77.84375 41.837890625 c 0
 76.2296078037 37.35434758 75.4716584656 32.8006766559 75.4716584656 28.3386118562 c 0
 75.4716584656 9.28204814458 89.2964189055 -8.10364831915 109.29296875 -11.2197265625 c 0
 134.648118557 -15.1750548151 158.59858809 -17.045995315 181.178062125 -17.045995315 c 0
 391.085565528 -17.045995315 482.5078125 144.645903125 482.5078125 296.541992188 c 0
 482.5078125 371.021484375 423.145507812 424.463867188 362.27734375 424.463867188 c 0
 324.334960938 424.463867188 290.834960938 415.02734375 262.360351562 398.502929688 c 1
362.27734375 344.463867188 m 0
 377.030273438 344.463867188 402.5078125 327.03515625 402.5078125 296.541992188 c 0
 402.5078125 215.68009838 364.535541928 62.9382958135 181.369448655 62.9382958135 c 0
 178.689282125 62.9382958135 175.9780284 62.970999093 173.235351562 63.037109375 c 1
 182.518554688 90.2568359375 193.616210938 127.56640625 206.309570312 174.359375 c 0
 248.665039062 294.5390625 288.5625 344.463867188 362.27734375 344.463867188 c 0
EndSplineSet
EndChar

StartChar: c
Encoding: 99 99 67
Width: 500
Flags: HW
LayerCount: 2
Fore
SplineSet
191.267578125 126.002929688 m 0
 191.267578125 189.737304688 257.456054688 338.46875 368.07421875 338.46875 c 0
 379.51171875 338.46875 405.108398438 325.95703125 407.125976562 311.65625 c 0
 409.866210938 292.241210938 426.56640625 277.286132812 446.732421875 277.286132812 c 0
 469.074889259 277.286132812 486.738952797 295.521143341 486.738952797 317.244194511 c 0
 486.738952797 319.112136075 486.608343065 321.005868537 486.338867188 322.916015625 c 0
 478.553710938 378.0859375 420.778320312 418.46875 368.07421875 418.46875 c 0
 207.153320312 418.46875 111.267578125 230.911132812 111.267578125 126.002929688 c 0
 111.267578125 45.147511923 170.832230053 -18.3490558595 255.070487668 -18.3490558595 c 0
 288.616914784 -18.3490558595 326.076310956 -8.27918167461 365.245117188 14.7744140625 c 0
 392.830078125 31.0107421875 418.728515625 52.7421875 435.4609375 81.5390625 c 0
 439.182666751 87.9446130091 440.880867455 94.7648448912 440.880867455 101.424391792 c 0
 440.880867455 122.29736224 424.198097179 141.591796875 400.849609375 141.591796875 c 0
 386.078125 141.591796875 373.166015625 133.567382812 366.23828125 121.64453125 c 0
 347.010742188 88.5517578125 288.697265625 61.53125 255.02734375 61.53125 c 0
 212.813476562 61.53125 191.267578125 91.7314453125 191.267578125 126.002929688 c 0
EndSplineSet
EndChar

StartChar: d
Encoding: 100 100 68
Width: 500
Flags: HW
LayerCount: 2
Fore
SplineSet
95.87109375 138.068359375 m 0
 95.87109375 114.458721346 101.948657486 -17.7392578125 238.068359375 -17.7392578125 c 0
 382.465820312 -17.7392578125 540.268554688 277.623046875 566.05859375 713.34375 c 0
 566.106447235 714.152703401 566.130047855 714.957068163 566.130047855 715.756170884 c 0
 566.130047855 737.738734542 548.270318192 755.739257812 526.12890625 755.739257812 c 0
 504.856445312 755.739257812 487.440429688 739.09765625 486.19921875 718.134765625 c 0
 479.061523438 597.540039062 461.58203125 490.967773438 438.16796875 400.615234375 c 1
 426.711914062 410.357421875 394.39453125 435.37109375 344.91015625 435.37109375 c 0
 207.2578125 435.37109375 95.87109375 259.850585938 95.87109375 138.068359375 c 0
409.165039062 304.813476562 m 1
 347.625 129.537109375 272.3671875 62.2607421875 238.068359375 62.2607421875 c 0
 217.71875 62.2607421875 175.87109375 65.80078125 175.87109375 138.068359375 c 0
 175.87109375 225.25390625 262.255859375 355.37109375 344.91015625 355.37109375 c 0
 346.868800383 355.37109375 393.152116802 354.840183723 409.165039062 304.813476562 c 1
EndSplineSet
EndChar

StartChar: e
Encoding: 101 101 69
Width: 500
Flags: HW
LayerCount: 2
Fore
SplineSet
198.088867188 177.0859375 m 1
 217.473961821 168.761586389 236.668258964 165.120074865 255.302834389 165.120074865 c 0
 342.256552976 165.120074865 417.022916238 244.410181728 442.118164062 297.188476562 c 0
 451.343231288 316.589721147 455.457312457 334.413218534 455.457312457 350.303097578 c 0
 455.457312457 400.815688689 413.882436047 431.788085938 362.7578125 431.788085938 c 0
 252.20703125 431.788085938 111.16015625 282.576171875 111.16015625 126.565429688 c 0
 111.16015625 41.365234375 181.780273438 -11.35546875 251.665039062 -11.35546875 c 0
 339.6953125 -11.35546875 402.751953125 44.2998046875 436.409179688 101.169921875 c 0
 440.243381195 107.648573286 441.991298725 114.567965045 441.991298725 121.324713924 c 0
 441.991298725 142.187150426 425.327445294 161.499023438 401.959960938 161.499023438 c 0
 387.302734375 161.499023438 374.477539062 153.598632812 367.510742188 141.828125 c 0
 343.419921875 101.120117188 303.171875 68.64453125 251.665039062 68.64453125 c 0
 218.838867188 68.64453125 191.16015625 91.029296875 191.16015625 126.565429688 c 0
 191.16015625 143.2578125 193.623046875 160.267578125 198.088867188 177.0859375 c 1
230.452148438 250.258789062 m 1
 272.327220989 316.997823762 330.669945453 351.868737871 362.902696138 351.868737871 c 0
 367.683422456 351.868737871 371.889768572 351.101630141 375.3828125 349.557617188 c 1
 373.720245795 321.826051124 314.165635532 245.41263644 255.096259587 245.41263644 c 0
 246.81847443 245.41263644 238.550218444 246.913264777 230.452148438 250.258789062 c 1
EndSplineSet
EndChar

StartChar: f
Encoding: 102 102 70
Width: 500
Flags: HW
LayerCount: 2
Fore
SplineSet
442.780273438 754.111328125 m 0
 345.096768518 754.111328125 307.281815062 602.358397678 273.876290167 397.78335652 c 1
 262.360814791 398.225160287 251.152492105 398.53515625 240.852539062 398.53515625 c 0
 218.776367188 398.53515625 200.852539062 380.611328125 200.852539062 358.53515625 c 0
 200.852539062 336.54296875 218.638671875 318.672851562 240.598632812 318.536132812 c 0
 247.813062715 318.491231053 254.730739016 318.359849674 261.425378073 318.171601488 c 1
 227.261052983 92.6623271808 205.343018611 -52.0125643159 166.801757812 -89.0400390625 c 1
 149 -74.6181640625 138.1640625 -37.5419921875 138.1640625 -12.193359375 c 0
 138.1640625 -1.7626953125 139.544921875 0.9033203125 139.544921875 6.904296875 c 0
 139.544921875 28.98046875 121.62109375 46.904296875 99.544921875 46.904296875 c 0
 79.5205078125 46.904296875 62.9140625 32.1591796875 59.9990234375 12.943359375 c 0
 58.7708344889 4.84740786662 58.1728798808 -3.58232484421 58.1728798808 -12.1848160994 c 0
 58.1728798808 -84.9652063109 100.973345827 -170.111328125 167.026367188 -170.111328125 c 0
 269.099609375 -170.111328125 296.977539062 14.453125 334.7109375 266.651367188 c 0
 337.090038801 282.552755851 339.505257547 298.695522196 341.971015161 314.928831479 c 1
 346.592949668 314.835291462 351.269573386 314.782226562 356.032226562 314.782226562 c 0
 374.026367188 314.782226562 393.305664062 315.551757812 415.005859375 317.71875 c 0
 435.200195312 319.735351562 450.990234375 336.797851562 450.990234375 357.51953125 c 0
 450.990234375 379.595703125 433.06640625 397.51953125 410.990234375 397.51953125 c 0
 405.4765625 397.51953125 388.139648438 394.782226562 356.032226562 394.782226562 c 0
 355.545058517 394.782226562 355.054672386 394.784730013 354.561153414 394.784730013 c 1
 372.814298673 505.01900078 394.533524829 607.935498865 424.326171875 655.345703125 c 0
 435.82269232 673.638652377 442.108584343 674.112744938 442.729334543 674.112744938 c 0
 442.763269055 674.112744938 442.780273438 674.111328125 442.780273438 674.111328125 c 1
 456.567382812 674.111328125 480.103515625 636.516601562 480.103515625 571.995117188 c 0
 480.103515625 562.260742188 479.608398438 557.037109375 479.608398438 554.436523438 c 0
 479.608398438 532.360351562 497.532226562 514.436523438 519.608398438 514.436523438 c 0
 540.92578125 514.436523438 558.370117188 531.1484375 559.544921875 552.173828125 c 0
 559.928502806 559.037451883 560.116611286 565.784145568 560.116611286 572.404387752 c 0
 560.116611286 679.939947124 510.484263764 754.111328125 442.780273438 754.111328125 c 0
EndSplineSet
EndChar

StartChar: g
Encoding: 103 103 71
Width: 500
Flags: HW
LayerCount: 2
Fore
SplineSet
90.8642578125 173.263671875 m 0
 90.8642578125 86.5899527303 149.353496314 52.0133484716 215.986989498 52.0133484716 c 0
 261.843380893 52.0133484716 311.556917016 68.3889374026 348.71875 95.4296875 c 1
 343.48046875 79.0205078125 337.94140625 63.8427734375 332.178710938 49.8125 c 1
 108.477227499 27.809552369 23.66796875 -21.4574495332 23.66796875 -91.4287109375 c 0
 23.66796875 -141.725270202 63.7965510039 -192.339239097 165.085116942 -192.339239097 c 0
 167.544037615 -192.339239097 170.039002501 -192.309410104 172.5703125 -192.249023438 c 0
 233.458984375 -190.796875 320.67578125 -151.198242188 385.4921875 -25.94140625 c 1
 401.029296875 -24.771484375 416.735351562 -23.767578125 432.486328125 -22.9296875 c 0
 453.563476562 -21.8095703125 470.33203125 -4.3408203125 470.33203125 17.0126953125 c 0
 470.33203125 25.912298441 467.303988083 56.6712724229 425.443004567 56.6712724229 c 0
 423.769914812 56.6712724229 422.03479247 56.6221373654 420.235351562 56.5205078125 c 1
 444.596679688 127.961914062 462.591796875 217.642578125 470.643554688 329.162109375 c 0
 470.698506529 329.924539652 470.725781741 330.697673352 470.725781741 331.480730262 c 0
 470.725781741 368.172139313 410.841855908 426.650390625 332.370117188 426.650390625 c 0
 212.489257812 426.650390625 90.8642578125 306.560546875 90.8642578125 173.263671875 c 0
285.099609375 -36.3447265625 m 1
 260.528320312 -69.8037109375 218.766601562 -112.336914062 165.241210938 -112.336914062 c 0
 164.594097206 -112.336914062 104.37630951 -111.682208004 103.802734375 -92.017578125 c 1
 125.103128031 -58.7929454038 272.709833363 -38.0350981384 285.099609375 -36.3447265625 c 1
388.916992188 322.828125 m 1
 363.007646132 168.567151204 269.279657671 131.912882088 216.001950574 131.912882088 c 0
 200.556071003 131.912882088 188.510010331 134.993648715 182.501953125 139.182617188 c 0
 175.010126657 144.405877752 170.712460472 157.456938347 170.712460472 174.764144824 c 0
 170.712460472 211.576148964 190.155208766 267.643062523 239.659179688 308.596679688 c 0
 269.528320312 333.306640625 304.18359375 346.650390625 332.370117188 346.650390625 c 0
 354.196289062 346.650390625 372.979492188 340.0390625 388.916992188 322.828125 c 1
EndSplineSet
EndChar

StartChar: h
Encoding: 104 104 72
Width: 500
Flags: HW
LayerCount: 2
Fore
SplineSet
348.333007812 706.05078125 m 0
 348.710205344 708.303601392 348.892092052 710.537896163 348.892092052 712.737895201 c 0
 348.892092052 734.37476215 331.298896524 752.694335938 308.8828125 752.694335938 c 0
 289.069335938 752.694335938 272.6015625 738.2578125 269.432617188 719.337890625 c 0
 256.978515625 644.96484375 154.560546875 282.280273438 98.36328125 36.0126953125 c 0
 97.6753318561 32.9979241034 97.3472119633 29.9984904952 97.3472119633 27.0545759981 c 0
 97.3472119633 5.59751333055 114.778228536 -12.91015625 137.362304688 -12.91015625 c 0
 155.955078125 -12.91015625 171.6015625 -0.197265625 176.077148438 17.001953125 c 0
 213.073242188 159.180664062 259.61328125 249.8984375 300.212890625 299.637695312 c 0
 329.890760371 335.997440054 357.054038956 350.072736076 369.314765522 350.072736076 c 0
 371.943275579 350.072736076 373.886853539 349.425825264 375.0234375 348.212890625 c 0
 378.573242188 344.423828125 384.375 330.319335938 384.375 299.860351562 c 0
 384.375 252.709960938 371.360351562 175.010742188 330.912109375 44.1318359375 c 0
 329.689319458 40.1755023294 329.113561352 36.2045440297 329.113561352 32.3179771306 c 0
 329.113561352 11.056362839 346.344154821 -7.6796875 369.13671875 -7.6796875 c 0
 387.102539062 -7.6796875 402.318359375 4.1904296875 407.361328125 20.5087890625 c 0
 445.597857524 144.229557513 464.385120908 234.98664955 464.385120908 299.534900424 c 0
 464.385120908 353.849829252 451.082629197 389.607351118 424.872070312 410.83203125 c 0
 411.321452827 421.805092621 392.222097944 429.650204066 369.365400948 429.650204066 c 0
 340.194316203 429.650204066 304.903125292 416.871778923 267.215820312 381.508789062 c 1
 331.616210938 628.577148438 342.084960938 668.740234375 348.333007812 706.05078125 c 0
EndSplineSet
EndChar

StartChar: i
Encoding: 105 105 73
Width: 500
Flags: HW
LayerCount: 2
Fore
SplineSet
400.362304688 475.654296875 m 0
 438.903320312 475.654296875 463.359375 510.997070312 463.359375 540.610351562 c 0
 463.359375 573.725585938 436.474609375 600.610351562 403.359375 600.610351562 c 0
 380.544921875 600.610351562 360.686523438 587.848632812 350.541015625 569.081054688 c 0
 343.507698299 558.624256556 340.320938965 547.178895537 340.320938965 535.995276175 c 0
 340.320938965 504.806989614 365.104718873 475.654296875 400.362304688 475.654296875 c 0
140.255859375 306.57421875 m 0
 140.255859375 278.568532638 163.23410696 265.404320291 192.355642833 265.404320291 c 0
 204.644274136 265.404320291 218.026809847 267.74840529 231.23828125 272.310546875 c 1
 200.835025241 186.009021459 190.605237871 127.701010533 190.605237871 87.2266938531 c 0
 190.605237871 53.8959711201 197.542642373 32.6592974884 205.864257812 17.8427734375 c 0
 219.104231713 -5.73196006797 243.20940813 -24.3192462928 275.606254141 -24.3192462928 c 0
 317.552034431 -24.3192462928 373.39775967 6.84000967517 437.557617188 98.6767578125 c 0
 442.524390839 105.786143894 444.770981583 113.633188642 444.770981583 121.303035098 c 0
 444.770981583 142.074789215 428.293267164 161.546875 404.745117188 161.546875 c 0
 369.549148407 161.546875 367.395346105 123.931823541 313.18359375 76.9111328125 c 0
 312.876274641 76.6449141317 288.164304853 55.6078484735 277.73617755 55.6078484735 c 0
 277.262141108 55.6078484735 276.817620555 55.6513191074 276.40625 55.7421875 c 0
 276.364284309 55.7056917899 276.313672836 55.6870967511 276.255302092 55.6870967511 c 0
 275.047734751 55.6870967511 270.519287272 63.6455623437 270.519287272 85.7105491321 c 0
 270.519287272 124.811023048 284.739498063 208.208732582 356.858398438 370.115234375 c 0
 359.232517823 375.444764752 360.330593454 380.927621489 360.330593454 386.282061182 c 0
 360.330593454 407.311101908 343.393334984 426.359375 320.299804688 426.359375 c 0
 304.890625 426.359375 297.743164062 419.888671875 286.270507812 409.50390625 c 0
 239.198242188 366.892578125 213.916992188 345.599609375 192.364257812 345.599609375 c 0
 187.37109375 345.599609375 185.75390625 346.57421875 180.255859375 346.57421875 c 0
 158.1796875 346.57421875 140.255859375 328.650390625 140.255859375 306.57421875 c 0
EndSplineSet
EndChar

StartChar: j
Encoding: 106 106 74
Width: 500
Flags: HW
LayerCount: 2
Fore
SplineSet
34.6142578125 -46.38671875 m 0
 23.3738328968 -65.3309074267 18.2664209169 -83.8256502785 18.2664209169 -100.746192253 c 0
 18.2664209169 -146.834857589 56.15956272 -181.244140625 111.219726562 -181.244140625 c 0
 182.252929688 -181.244140625 268.43359375 -126.4453125 313.55078125 -9.546875 c 0
 321.66015625 11.46484375 329.514648438 32.5458984375 337.158203125 54.298828125 c 1
 364.442382812 64.62109375 394.4375 75.0263671875 427.322265625 85.4013671875 c 0
 443.526367188 90.513671875 455.2890625 105.671875 455.2890625 123.556640625 c 0
 455.2890625 146.364466196 436.536767963 163.580256923 415.28835799 163.580256923 c 0
 411.32913293 163.580256923 407.283245179 162.982541476 403.255859375 161.711914062 c 0
 391.094726562 157.875 379.28515625 154.03125 367.8203125 150.182617188 c 1
 385.82421875 212.651367188 402.860351562 284.690429688 419.619140625 375.9453125 c 0
 420.070896152 378.405380902 420.288074973 380.846521884 420.288074973 383.247871306 c 0
 420.288074973 404.834182521 402.738620524 423.205078125 380.27734375 423.205078125 c 0
 367.850585938 423.205078125 356.740234375 417.526367188 349.401367188 408.624023438 c 0
 319.928710938 372.875 266.423828125 330.373046875 227.157226562 310.897460938 c 0
 213.967773438 304.35546875 204.892578125 290.749023438 204.892578125 275.040039062 c 0
 204.892578125 251.847599749 224.038801764 235.008401804 245.003543833 235.008401804 c 0
 250.862377517 235.008401804 256.863234959 236.323519721 262.627929688 239.182617188 c 0
 280.193359375 247.89453125 298.508789062 259.204101562 316.716796875 272.151367188 c 1
 302.7890625 211.458984375 288.583007812 161.348632812 273.479492188 115.375 c 1
 210.776367188 89.8232421875 80.8427734375 31.52734375 34.6142578125 -46.38671875 c 0
235.340820312 10.435546875 m 1
 198.963746813 -75.7709279115 140.313229834 -101.26250824 110.953215837 -101.26250824 c 0
 105.776509399 -101.26250824 101.510389841 -100.470022751 98.4375 -99.078125 c 1
 100.943359375 -85.8330078125 125.416992188 -44.1201171875 235.340820312 10.435546875 c 1
405.56640625 465.801757812 m 0
 444.086914062 465.801757812 468.483398438 501.059570312 468.483398438 530.680664062 c 0
 468.483398438 563.795898438 441.598632812 590.680664062 408.483398438 590.680664062 c 0
 385.580078125 590.680664062 365.657226562 577.8203125 355.546875 558.932617188 c 0
 348.650603239 548.547399419 345.524089251 537.211060918 345.524089251 526.134898072 c 0
 345.524089251 494.936206609 370.329959624 465.801757812 405.56640625 465.801757812 c 0
EndSplineSet
EndChar

StartChar: k
Encoding: 107 107 75
Width: 500
Flags: HW
LayerCount: 2
Fore
SplineSet
388.631835938 -17.5078125 m 0
 419.59969072 -17.5078125 450.546875 -9.04985749788 450.546875 24.759765625 c 0
 450.546875 46.8359375 432.623046875 64.759765625 410.546875 64.759765625 c 0
 403.029296875 64.759765625 398.637695312 62.4921875 388.631835938 62.4921875 c 0
 340.003018074 62.4921875 335.43589626 153.191257644 288.750976562 213.255859375 c 1
 389.102539062 251.887695312 434.077148438 293.76171875 459.668945312 334.935546875 c 0
 470.145507812 351.7890625 479.103515625 370.407226562 479.103515625 393.387695312 c 0
 479.103515625 436.287387093 446.682550348 458.926987709 401.178733585 458.926987709 c 0
 355.580918794 458.926987709 296.846145743 436.19375645 244.432617188 388.333007812 c 1
 291.760742188 566.100585938 305.879882812 625.787109375 321.4453125 696.35546875 c 0
 322.089734051 699.276945668 322.397495481 702.181928455 322.397495481 705.034134838 c 0
 322.397495481 726.511932624 304.946034391 744.997070312 282.3828125 744.997070312 c 0
 263.272460938 744.997070312 247.274414062 731.567382812 243.3203125 713.638671875 c 0
 219.609375 606.137695312 193.444335938 507.828125 167.462890625 410.245117188 c 0
 135.579101562 290.48828125 103.953125 171.779296875 77.97265625 39.3427734375 c 0
 77.4589963776 36.7242573777 77.2126224209 34.1244254244 77.2126224209 31.5687508976 c 0
 77.2126224209 10.0198672705 94.7285548556 -8.3896484375 117.224609375 -8.3896484375 c 0
 136.60546875 -8.3896484375 152.78515625 5.423828125 156.448242188 23.734375 c 0
 168.9921875 86.44921875 184.751953125 138.220703125 202.154296875 180.876953125 c 1
 263.25430415 165.593558448 254.667329144 -17.5078125 388.631835938 -17.5078125 c 0
392.342773438 378.240234375 m 1
 381.477539062 359.848632812 354.497070312 324.502929688 261.588867188 288.55078125 c 1
 326.39453125 374.25390625 391.916015625 378.240234375 392.342773438 378.240234375 c 1
EndSplineSet
EndChar

StartChar: l
Encoding: 108 108 76
Width: 500
Flags: HW
LayerCount: 2
Fore
SplineSet
285.291992188 560.208007812 m 1
 167.300076865 176.734283016 167.300076865 176.734283016 158.69921875 119.046875 c 0
 157.126156738 108.496283117 156.389234138 98.6780595041 156.389234138 89.5579495754 c 0
 156.389234138 15.0533218397 205.569200518 -12.861328125 249.836914062 -12.861328125 c 0
 327.885742188 -12.861328125 425.30078125 63.53515625 468.30859375 163.6875 c 0
 470.534311463 168.87034752 471.56567337 174.183906487 471.56567337 179.373752012 c 0
 471.56567337 200.425345217 454.596051581 219.44140625 431.53515625 219.44140625 c 0
 415.05078125 219.44140625 400.8828125 209.448242188 394.76171875 195.1953125 c 0
 360.151367188 114.59765625 285.077148438 67.138671875 249.836914062 67.138671875 c 0
 241.344726562 67.138671875 240.791992188 69.0419921875 240.337890625 69.64453125 c 0
 237.683330064 73.1688196301 236.405509053 79.2430656305 236.405509053 87.8365652725 c 0
 236.405509053 131.39644364 269.237953296 239.686244263 322.01953125 408.70703125 c 0
 347.697265625 490.935546875 378.01171875 588.009765625 411.521484375 701.559570312 c 0
 412.643034256 705.359860891 413.172229061 709.167132341 413.172229061 712.894937818 c 0
 413.172229061 734.186503964 395.908909711 752.885742188 373.150390625 752.885742188 c 0
 360.724609375 752.885742188 349.614257812 747.20703125 342.275390625 738.306640625 c 0
 301.264331355 688.566684992 230.841822588 603.155273438 197.608398438 603.155273438 c 0
 175.532226562 603.155273438 157.608398438 585.231445312 157.608398438 563.155273438 c 0
 157.608398438 547.322265625 168.750976562 523.098632812 199.8515625 523.098632812 c 0
 217.03515625 523.098632812 244.89453125 527.708984375 285.291992188 560.208007812 c 1
EndSplineSet
EndChar

StartChar: m
Encoding: 109 109 77
Width: 500
Flags: HW
LayerCount: 2
Fore
SplineSet
356.302734375 369.069335938 m 1
 349.649022085 400.08761513 328.692980154 422.805762847 301.306398435 422.805762847 c 0
 281.433447446 422.805762847 258.174422065 410.843261918 234.537109375 381.409179688 c 1
 228.387145115 414.184838993 209.276001133 427.329014621 190.826333943 427.329014621 c 0
 170.232533216 427.329014621 150.462890625 410.952205296 150.462890625 387.220703125 c 0
 150.462890625 380.228515625 152.260742188 373.653320312 155.418945312 367.932617188 c 0
 156.385078648 364.979766027 156.833677028 360.88620073 156.833677028 355.81858054 c 0
 156.833677028 289.864441105 80.84765625 58.9196138041 80.84765625 30.3876953125 c 0
 80.84765625 8.3115234375 98.771484375 -9.6123046875 120.84765625 -9.6123046875 c 0
 138.630859375 -9.6123046875 153.71875 2.017578125 158.915039062 18.080078125 c 0
 181.044921875 86.48828125 228.1484375 222.08203125 278.251953125 303.974609375 c 1
 273.35546875 251.165039062 255.59375 163.5703125 219.825195312 43.9990234375 c 0
 218.674688461 40.1533123483 218.132162827 36.2985183157 218.132162827 32.524618159 c 0
 218.132162827 11.2420964887 235.385996986 -7.4677734375 258.154296875 -7.4677734375 c 0
 276.0390625 -7.4677734375 291.19921875 4.2958984375 296.310546875 20.501953125 c 0
 320.379882812 96.810546875 362.278320312 218.733398438 405.33984375 295.989257812 c 1
 400.233398438 241.655273438 383.24609375 154.848632812 350.217773438 39.826171875 c 0
 349.152364349 36.1161737127 348.649050708 32.4030627129 348.649050708 28.7665850116 c 0
 348.649050708 7.45720999298 365.932016433 -11.220703125 388.669921875 -11.220703125 c 0
 406.915039062 -11.220703125 422.32421875 1.021484375 427.122070312 17.732421875 c 0
 442.922604193 72.756150566 487.05185767 230.212485364 487.05185767 326.913176044 c 0
 487.05185767 342.424097937 485.916473982 356.371862472 483.346679688 368.083007812 c 0
 480.626544654 380.479170585 468.682423163 420.551757812 427.939453125 420.551757812 c 0
 403.986328125 420.551757812 381.319335938 405.393554688 356.302734375 369.069335938 c 1
EndSplineSet
EndChar

StartChar: n
Encoding: 110 110 78
Width: 500
Flags: HW
LayerCount: 2
Fore
SplineSet
247.646484375 328.046875 m 1
 248.132234396 333.395055508 248.565950336 340.311992989 248.565950336 347.960971368 c 0
 248.565950336 378.728635103 241.548367338 421.340820312 202.671875 421.340820312 c 0
 179.373655705 421.340820312 162.64036963 402.09360372 162.64036963 381.192445357 c 0
 162.64036963 374.79207723 164.209468942 368.236617098 167.639648438 362.03125 c 1
 168.609898764 359.089478909 169.060295146 354.858351519 169.060295146 349.536913098 c 0
 169.060295146 281.1380848 94.6498101872 32.6077636718 93.32421875 26.625 c 1
 93.32421875 4.548828125 111.248046875 -13.375 133.32421875 -13.375 c 0
 149.671875 -13.375 163.743164062 -3.546875 169.944335938 10.5185546875 c 0
 207.516763976 95.734936443 302.3737648 299.991160245 363.37890625 335.895507812 c 1
 371.9910018 319.414362292 376.036965261 289.669173666 376.036965261 254.664084227 c 0
 376.036965261 185.695301409 360.330997703 96.3081850287 332.897460938 47.720703125 c 0
 329.345385561 41.4298010624 327.722287014 34.7624312577 327.722287014 28.2526134704 c 0
 327.722287014 7.36350610541 344.435001266 -11.9033203125 367.75390625 -11.9033203125 c 0
 382.701171875 -11.9033203125 395.745117188 -3.6865234375 402.610351562 8.47265625 c 0
 433.358149838 62.9304426821 456.400270284 163.397286577 456.400270284 251.187717122 c 0
 456.400270284 341.261688728 432.143849973 417.991210938 367.06640625 417.991210938 c 0
 324.629882812 417.991210938 286.045898438 381.771484375 247.646484375 328.046875 c 1
EndSplineSet
EndChar

StartChar: o
Encoding: 111 111 79
Width: 500
Flags: HW
LayerCount: 2
Fore
SplineSet
241.439453125 -19.365234375 m 0
 369.221679688 -19.365234375 483.784179688 134.91796875 483.784179688 254.051757812 c 0
 483.784179688 365.097588443 421.429075198 423.619618439 344.898049501 423.619618439 c 0
 296.35277323 423.619618439 242.103619629 400.072472876 194.447265625 351.447265625 c 0
 134.495578958 290.276621052 104.034808386 208.904680102 104.034808386 137.974264217 c 0
 104.034808386 51.5546621586 149.251668084 -19.365234375 241.439453125 -19.365234375 c 0
403.784179688 254.051757812 m 0
 403.784179688 172.133789062 317.012695312 60.634765625 241.439453125 60.634765625 c 0
 212.533203125 60.634765625 201.6875 73.46484375 195.657226562 83.953125 c 0
 188.200587453 96.9203978932 184.201244785 115.339235658 184.201244785 136.642208541 c 0
 184.201244785 184.730986044 204.580845029 247.516558908 251.575195312 295.465820312 c 0
 279.473137293 323.929615129 314.837105829 343.514173601 344.45475334 343.514173601 c 0
 377.750564497 343.514173601 403.784179687 318.763224101 403.784179688 254.051757812 c 0
EndSplineSet
EndChar

StartChar: p
Encoding: 112 112 80
Width: 500
Flags: HW
LayerCount: 2
Fore
SplineSet
440.450195312 407.5625 m 0
 427.927892484 415.990893973 395.663520638 436.323680609 353.792988951 436.323680609 c 0
 316.120587613 436.323680609 270.671770625 419.863804569 224.829101562 363.463867188 c 1
 221.439453125 382.114257812 205.09765625 396.275390625 185.474609375 396.275390625 c 0
 164.850585938 396.275390625 147.8515625 380.633789062 145.703125 360.576171875 c 0
 136.836914062 277.790039062 66.9560546875 -23.671875 52.447265625 -155.720703125 c 0
 52.2828207017 -157.21701043 52.202608851 -158.701039719 52.202608851 -160.168399634 c 0
 52.202608851 -181.993490281 69.9476637417 -200.130859375 92.2060546875 -200.130859375 c 0
 112.629882812 -200.130859375 129.498046875 -184.791015625 131.91015625 -165.014648438 c 0
 138.68359375 -109.477539062 149.138671875 -53.1279296875 163.421875 6.69921875 c 1
 176.08965904 5.48725270097 188.387310335 4.90306416951 200.315726102 4.90306416951 c 0
 396.931157247 4.90306416951 493.229909467 163.619788056 493.229909467 285.852584341 c 0
 493.229909467 338.254709624 475.531144264 383.951447211 440.450195312 407.5625 c 0
297.655273438 325.307617188 m 0
 318.50829037 347.343077493 336.837847217 356.266270596 354.347164627 356.266270596 c 0
 368.419986262 356.266270596 381.962943693 350.502001772 395.860351562 341.1484375 c 0
 405.91796875 334.37890625 413.298828125 312.96875 413.298828125 286.354492188 c 0
 413.298828125 204.36715274 350.066934767 84.9089941038 200.143542876 84.9089941038 c 0
 194.943478607 84.9089941038 189.639121345 85.0527065693 184.229492188 85.3466796875 c 1
 204.72265625 155.418945312 244.091796875 268.708007812 297.655273438 325.307617188 c 0
EndSplineSet
EndChar

StartChar: q
Encoding: 113 113 81
Width: 500
Flags: HW
LayerCount: 2
Fore
SplineSet
298.069335938 18.4697265625 m 1
 275.589167512 -46.4772546831 263.509905894 -88.7786785772 263.509905894 -119.397842044 c 0
 263.509905894 -134.658822587 266.510578559 -147.01775161 272.719726562 -157.83203125 c 0
 278.910006981 -168.614215694 293.70182091 -186.535060257 323.633873061 -186.535060257 c 0
 335.26960901 -186.535060257 349.193299738 -183.82690723 365.7890625 -176.938476562 c 0
 449.852539062 -142.045898438 490.96875 -63.4462890625 490.96875 -33.9912109375 c 0
 490.96875 -11.9150390625 473.044921875 6.0087890625 450.96875 6.0087890625 c 0
 431.556640625 6.0087890625 415.35546875 -7.849609375 411.727539062 -26.203125 c 0
 410.78515625 -30.9736328125 393.567382812 -72.9150390625 346.666992188 -97.615234375 c 1
 362.930664062 -18.890625 435.985351562 144.790039062 486.391601562 336.203125 c 0
 487.28337095 339.589337172 487.713556544 343.009650143 487.713556544 346.389365469 c 0
 487.713556544 360.619353597 480.087417909 374.129644777 467.178710938 381.344726562 c 0
 428.584960938 402.916015625 390.788085938 413.48046875 354.62109375 413.48046875 c 0
 206.793739127 413.48046875 119.186220799 235.967509585 119.186220799 111.288363607 c 0
 119.186220799 45.6839493607 143.442258837 -5.29227992171 195.944335938 -8.08203125 c 0
 199.030208704 -8.24588791885 202.143449072 -8.33066840531 205.281959181 -8.33066840531 c 0
 234.578049102 -8.33066840531 266.075914568 -0.943667358911 298.069335938 18.4697265625 c 1
204.682617188 71.6728515625 m 1
 200.782802717 79.867819859 198.856245739 92.0467984949 198.856245739 106.740247578 c 0
 198.856245739 184.709415174 253.103798202 333.48046875 354.62109375 333.48046875 c 0
 367.803710938 333.48046875 382.721679688 331.022460938 399.53515625 324.83203125 c 1
 374.037109375 244.319335938 307.388671875 71.6728515625 204.682617188 71.6728515625 c 1
EndSplineSet
EndChar

StartChar: r
Encoding: 114 114 82
Width: 500
Flags: HW
LayerCount: 2
Fore
SplineSet
274.846679688 378.201171875 m 1
 276.392578125 384.106445312 277.060546875 386.65625 277.060546875 391.810546875 c 0
 277.060546875 413.88671875 259.13671875 431.810546875 237.060546875 431.810546875 c 0
 218.540039062 431.810546875 202.942382812 419.196289062 198.397460938 402.09765625 c 0
 173.09765625 306.89453125 151.791992188 184.116210938 114.375 37.8662109375 c 0
 113.518893201 34.5198001365 113.112446103 31.182246321 113.112446103 27.9101316621 c 0
 113.112446103 6.52530621066 130.47279384 -12.064453125 153.130859375 -12.064453125 c 0
 171.477539062 -12.064453125 186.956054688 0.3134765625 191.662109375 17.16796875 c 0
 233.19921875 165.903320312 277.310546875 254.840820312 313.415039062 301.126953125 c 0
 342.875 338.89453125 363.916015625 344.572265625 370.197265625 344.572265625 c 0
 381.584960938 344.572265625 390.579101562 325.909179688 390.806640625 306.3828125 c 0
 391.061523438 284.524414062 408.885742188 266.857421875 430.803710938 266.857421875 c 0
 452.879882812 266.857421875 470.803710938 284.78125 470.803710938 306.857421875 c 0
 470.803710938 372.474384109 427.599089059 424.766117916 370.284768329 424.766117916 c 0
 340.876676207 424.766117916 307.753872111 410.999082086 274.846679688 378.201171875 c 1
EndSplineSet
EndChar

StartChar: s
Encoding: 115 115 83
Width: 500
Flags: HW
LayerCount: 2
Fore
SplineSet
446.431640625 340.32421875 m 0
 420.846053723 393.259788506 374.911997396 414.924290822 328.114928905 414.924290822 c 0
 253.490188192 414.924290822 176.670898438 359.833743101 176.670898438 288.607421875 c 0
 176.670898438 264.1484375 184.250976562 224.607421875 229.100585938 204.734375 c 0
 265.095703125 188.784179688 309.819335938 191.997070312 331.7109375 181.225585938 c 0
 336.248082118 178.993394866 343.975177021 175.190993269 343.975177021 153.10702363 c 0
 343.975177021 148.51551438 343.641156699 143.13374497 342.875 136.811523438 c 0
 339.10546875 105.708984375 300.397460938 60.75 260.002929688 60.75 c 0
 243.325195312 60.75 223.0546875 67.5341796875 200.6796875 100.356445312 c 0
 192.47252106 112.395558268 180.273675519 117.772432302 168.18331802 117.772432302 c 0
 147.739295349 117.772432302 127.60546875 102.398524059 127.60546875 77.865234375 c 0
 127.60546875 47.4328413014 186.451068818 -19.1053438788 262.643581356 -19.1053438788 c 0
 293.080725778 -19.1053438788 326.286120825 -8.48706393539 359.614257812 19.29296875 c 0
 403.358196978 55.7539991636 424.754466219 105.973694748 424.754466219 151.498636684 c 0
 424.754466219 195.008034393 405.210828835 234.229181571 366.954101562 253.052734375 c 0
 328.203125 272.120117188 282.0859375 268.76953125 261.447265625 277.915039062 c 0
 258.277745294 279.319754178 257.873494625 279.786456011 257.873494625 279.93315107 c 0
 257.873494625 279.983384953 257.920898438 279.99609375 257.920898438 279.99609375 c 2
 257.864257812 280.09765625 256.670898438 282.081054688 256.670898438 288.607421875 c 0
 256.670898438 307.927539098 293.609781465 335.377132623 327.728226311 335.377132623 c 0
 346.20207879 335.377132623 363.849031115 327.329421002 374.357421875 305.5859375 c 0
 380.828125 292.198242188 394.540039062 282.955078125 410.39453125 282.955078125 c 0
 433.56306316 282.955078125 450.426552795 302.078003916 450.426552795 323.057877849 c 0
 450.426552795 328.792116471 449.166777102 334.66507716 446.431640625 340.32421875 c 0
EndSplineSet
EndChar

StartChar: t
Encoding: 116 116 84
Width: 500
Flags: HW
LayerCount: 2
Fore
SplineSet
437.373046875 195.997070312 m 0
 437.373046875 227.626953125 412.0546875 237.78515625 397.412109375 237.78515625 c 0
 375.934570312 237.78515625 358.388671875 220.821289062 357.451171875 199.573242188 c 0
 354.162925662 124.98687554 288.506074273 64.194725475 252.562774083 64.194725475 c 0
 248.417620208 64.194725475 244.667650897 65.003249478 241.454101562 66.6923828125 c 0
 239.871285507 68.3024453029 234.361889397 76.9851486701 234.361889397 104.371305017 c 0
 234.361889397 129.989948455 239.183077654 171.975697483 256.549804688 239.849609375 c 0
 263.543156192 267.182168622 272.040352983 296.632817467 281.119846299 326.385004526 c 1
 320.415074698 326.350412143 328.555472965 326.244438796 328.555472965 326.161179244 c 0
 328.555472965 326.102280035 324.481703635 326.054747686 324.481703635 326.051893497 c 0
 324.481703635 326.05180339 324.485763844 326.051757812 324.494140625 326.051757812 c 0
 353.017578125 326.051757812 383.446289062 327.126953125 414.13671875 333.7890625 c 0
 432.129882812 337.694335938 445.625 353.723632812 445.625 372.879882812 c 0
 445.625 395.433694279 427.150286923 412.89395655 405.662460472 412.89395655 c 0
 402.852729594 412.89395655 399.991480602 412.595421563 397.11328125 411.970703125 c 0
 375.545898438 407.2890625 350.76171875 406.051757812 324.494140625 406.051757812 c 0
 324.225799968 406.051757812 316.717906191 406.155852766 306.423913208 406.266520762 c 1
 333.92757795 490.765700452 357.953486316 575.117381946 359.293945312 579.509765625 c 1
 359.293945312 601.5859375 341.370117188 619.509765625 319.293945312 619.509765625 c 0
 300.7578125 619.509765625 285.149414062 606.874023438 280.620117188 589.75390625 c 0
 261.155273438 516.1796875 210.147460938 381.29296875 179.0390625 259.711914062 c 0
 165.553198897 207.004432049 154.304252052 152.497131955 154.304252052 105.969768269 c 0
 154.304252052 56.1070379925 167.223793029 15.4093537272 204.155273438 -4.0859375 c 0
 219.373797459 -12.1195207238 235.618203619 -15.8251181414 252.183163081 -15.8251181414 c 0
 337.999549342 -15.8251181414 432.419134148 83.627890296 437.373046875 195.997070312 c 0
EndSplineSet
EndChar

StartChar: u
Encoding: 117 117 85
Width: 500
Flags: HW
LayerCount: 2
Fore
SplineSet
494.946289062 376.08984375 m 0
 495.687050812 379.213042294 496.039824023 382.322667913 496.039824023 385.373602501 c 0
 496.039824023 406.805276694 478.632099657 425.340820312 456.0234375 425.340820312 c 0
 437.130859375 425.340820312 421.279296875 412.21484375 417.100585938 394.591796875 c 0
 414.716796875 384.5390625 412.21484375 372.736328125 409.380859375 359.3984375 c 0
 392.161015173 278.361899092 348.025214782 70.6589465254 263.342640019 70.6589465254 c 0
 263.100178452 70.6589465254 262.857384489 70.6606492342 262.614257812 70.6640625 c 0
 242.20703125 70.9501953125 234.166015625 79.15234375 228.247070312 91.66015625 c 0
 221.132619664 106.695578352 218.120552319 127.654560142 218.120552319 151.903749801 c 0
 218.120552319 218.11806231 240.578701674 308.864356094 263.296875 370.529296875 c 0
 264.98762043 375.118216276 265.777113681 379.767388222 265.777113681 384.311922489 c 0
 265.777113681 405.459817171 248.680742646 424.341796875 225.75 424.341796875 c 0
 208.52734375 424.341796875 193.83203125 413.432617188 188.203125 398.154296875 c 0
 180.510603254 377.27490725 138.123238236 257.506652701 138.123238236 153.586887558 c 0
 138.123238236 118.219479368 143.032843504 84.6877556342 155.890625 57.5146484375 c 0
 167.706054688 32.544921875 197.366210938 -9.341796875 263.395507812 -9.341796875 c 0
 412.823242188 -9.341796875 461.875976562 221.494140625 487.635742188 342.713867188 c 0
 490.46484375 356.02734375 492.91015625 367.501953125 494.946289062 376.08984375 c 0
EndSplineSet
EndChar

StartChar: v
Encoding: 118 118 86
Width: 500
Flags: HW
LayerCount: 2
Fore
SplineSet
264.331054688 298.348632812 m 0
 264.331054688 335.115154101 259.008424989 423.584960938 207.776367188 423.584960938 c 0
 184.424996067 423.584960938 167.745151569 404.287990657 167.745151569 383.41685636 c 0
 167.745151569 376.742092132 169.451122991 369.906326474 173.190429688 363.489257812 c 0
 179.893554688 351.985351562 184.331054688 329.509765625 184.331054688 298.348632812 c 0
 184.331054688 252.665039062 176.715820312 195.953125 176.715820312 139.52734375 c 0
 176.715820312 92.75390625 181.552734375 43.7099609375 203.567382812 -1.1669921875 c 0
 210.827695626 -15.9674074606 225.174155897 -23.523782878 239.555530901 -23.523782878 c 0
 252.832133092 -23.523782878 266.138491778 -17.0837721657 273.926757812 -3.9580078125 c 0
 331.630859375 93.2880859375 408.745117188 187.880859375 453.633789062 270.978515625 c 0
 472.966796875 306.76953125 487.732421875 341.735351562 490.135742188 378.126953125 c 0
 490.195411971 379.030186854 490.224794599 379.927859969 490.224794599 380.819032802 c 0
 490.224794599 402.782612341 472.377474464 420.797851562 450.223632812 420.797851562 c 0
 429.043945312 420.797851562 411.6875 404.301757812 410.311523438 383.46875 c 0
 407.068359375 334.370117188 350.612304688 253.147460938 296.755859375 175.666015625 c 0
 283.7734375 156.987304688 270.440429688 137.817382812 257.205078125 118.25 c 1
 256.863916354 125.362418648 256.714303931 132.581110958 256.714303931 139.878992061 c 0
 256.714303931 191.950221128 264.331054688 248.052942275 264.331054688 298.348632812 c 0
EndSplineSet
EndChar

StartChar: w
Encoding: 119 119 87
Width: 500
Flags: HW
LayerCount: 2
Fore
SplineSet
187.286132812 -15.2060546875 m 0
 220.102539062 -15.2060546875 243.703125 12.8134765625 264.662109375 52.90625 c 1
 274.889769679 5.87574877333 299.343273528 -18.2506527258 327.865491778 -18.2506527258 c 0
 353.960405809 -18.2506527258 383.460988159 1.94406067675 408.588867188 43.26953125 c 0
 469.299804688 143.116210938 507.966796875 350.14453125 507.966796875 395.250976562 c 0
 507.966796875 417.327148438 490.04296875 435.250976562 467.966796875 435.250976562 c 0
 446.658203125 435.250976562 429.21875 418.552734375 428.03125 397.540039062 c 0
 424.750976562 339.5078125 387.030273438 161.955078125 340.26953125 84.8916015625 c 1
 337.082314531 107.081918002 335.965956622 132.071274615 335.965956622 156.241669702 c 0
 335.965956622 212.779723615 342.07421875 264.836748967 342.07421875 266.106445312 c 0
 342.07421875 288.182617188 324.150390625 306.106445312 302.07421875 306.106445312 c 0
 284.16796875 306.106445312 268.995117188 294.315429688 263.900390625 278.081054688 c 0
 247.392578125 225.474609375 225.250976562 155.905273438 200.380859375 103.493164062 c 1
 200.15235335 109.448994866 200.042033513 115.598994562 200.042033513 121.904514416 c 0
 200.042033513 217.569462522 225.43523714 349.031735579 248.750976562 381.323242188 c 0
 253.968379455 388.548968365 256.324950119 396.586361217 256.324950119 404.444558705 c 0
 256.324950119 425.198820957 239.886942052 444.703125 216.30078125 444.703125 c 0
 202.94921875 444.703125 191.1171875 438.147460938 183.850585938 428.083007812 c 0
 145.475252026 374.935655144 120.113809532 226.902784392 120.113809532 122.35996553 c 0
 120.113809532 92.5487661941 122.176074366 66.2739589494 126.586914062 46.744140625 c 0
 131.348236534 25.6612770939 145.913630762 -15.2060546875 187.286132812 -15.2060546875 c 0
EndSplineSet
EndChar

StartChar: x
Encoding: 120 120 88
Width: 500
Flags: HW
LayerCount: 2
Fore
SplineSet
308.525200232 276.936538644 m 1
 283.719053725 353.318308568 255.994830738 419.186523438 201.584960938 419.186523438 c 0
 152.8203125 419.186523438 126.3984375 362.909179688 115.514648438 339.044921875 c 0
 113.040603985 333.620559267 111.897690906 328.026823014 111.897690906 322.564467943 c 0
 111.897690906 301.549697211 128.813885044 282.479492188 151.928710938 282.479492188 c 0
 168.098632812 282.479492188 182.040039062 292.094726562 188.342773438 305.9140625 c 0
 192.985351562 316.09375 197.31640625 324.076171875 200.94921875 329.849609375 c 1
 215.804204508 304.022771905 228.751733863 265.491172685 241.426838954 223.411865532 c 1
 174.425282142 170.090765447 105.159473169 109.418296637 78.2001953125 25.8857421875 c 0
 76.8749008945 21.779187308 76.2521272476 17.6494463479 76.2521272476 13.6088842703 c 0
 76.2521272476 -7.62525261908 93.4516297615 -26.396484375 116.276367188 -26.396484375 c 0
 134.069335938 -26.396484375 149.1640625 -14.75390625 154.352539062 1.3212890625 c 0
 171.7702271 55.2902267711 215.870674994 98.7444714759 266.023664503 140.110807952 c 1
 283.887299341 81.2424373763 303.224986554 26.8132104293 328.276367188 0.5673828125 c 0
 341.355694459 -13.1353072384 358.090610856 -21.4653306501 375.623557431 -21.4653306501 c 0
 394.484625352 -21.4653306501 414.269204233 -11.8255098404 431.419921875 11.1357421875 c 0
 446.561523438 31.408203125 458.388671875 58.287109375 471.174804688 96.234375 c 0
 472.610055512 100.493964435 473.283136604 104.78690163 473.283136604 108.985797415 c 0
 473.283136604 130.191175629 456.116340651 148.998046875 433.2578125 148.998046875 c 0
 415.643554688 148.998046875 400.672851562 137.587890625 395.340820312 121.76171875 c 0
 388.081054688 100.21484375 381.302734375 83.8955078125 375.59765625 72.77734375 c 1
 361.296658196 101.457405544 347.73691093 146.348795061 333.686565132 193.982149286 c 1
 398.875279644 246.078420283 459.280533143 300.744502921 473.053710938 375.07421875 c 0
 473.513479206 377.55544995 473.734442484 380.01775094 473.734442484 382.439680565 c 0
 473.734442484 404.020849174 456.189700746 422.396484375 433.723632812 422.396484375 c 0
 414.147460938 422.396484375 397.836914062 408.303710938 394.393554688 389.71875 c 0
 386.873269733 349.134017744 352.441471103 313.561234425 308.525200232 276.936538644 c 1
EndSplineSet
EndChar

StartChar: y
Encoding: 121 121 89
Width: 500
Flags: HW
LayerCount: 2
Fore
SplineSet
414.26171875 77.248046875 m 1
 470.23828125 211.227539062 484.587890625 361.278320312 484.587890625 364.233398438 c 0
 484.587890625 386.309570312 466.6640625 404.233398438 444.587890625 404.233398438 c 0
 409.813637658 404.233398438 405.84683325 375.296252443 402.546875 351.223632812 c 0
 387.666015625 268.918945312 316.365234375 184.672851562 255.873046875 154.388671875 c 0
 249.135311873 151.015282404 232.442260895 144.28700496 223.301066518 144.28700496 c 0
 220.597492316 144.28700496 218.554496614 144.875543072 217.625 146.313476562 c 0
 217.254223398 146.88754377 212.977810531 153.928057176 212.977810531 173.444015497 c 0
 212.977810531 201.834455059 222.027717129 256.625902839 265.31640625 356.317382812 c 0
 267.586461184 361.544874893 268.637768651 366.909663303 268.637768651 372.149282263 c 0
 268.637768651 393.194130422 251.677921575 412.219726563 228.607421875 412.219726562 c 0
 212.180664062 412.219726562 198.052734375 402.295898438 191.8984375 388.122070312 c 0
 158.932218192 312.20297087 132.674100041 234.775733434 132.674100041 173.743474181 c 0
 132.674100041 146.292051585 137.98630002 122.157447135 150.389648438 102.96875 c 0
 166.077132843 78.6987729932 191.387548118 64.5772331236 223.350001559 64.5772331236 c 0
 257.2365551 64.5772331236 298.600141978 80.4501463236 343.900390625 116.930664062 c 1
 335.95703125 97.1875 327.626953125 79.1103515625 319.045898438 62.587890625 c 1
 161.140625 35.0595703125 99.77734375 4.7607421875 71.6904296875 -28.306640625 c 0
 52.4323134267 -50.9792338727 43.7949717919 -74.3624241034 43.7949717919 -95.6404404532 c 0
 43.7949717919 -140.34913012 81.9280359793 -175.763671875 139.794921875 -175.763671875 c 0
 168.153604037 -175.763671875 275.493607705 -164.867380412 370.075195312 -10.111328125 c 1
 391.178710938 -6.7890625 413.560546875 -3.546875 437.184570312 -0.3857421875 c 0
 456.737304688 2.23046875 471.838867188 18.99609375 471.838867188 39.259765625 c 0
 471.838867188 61.5825069287 453.626245069 79.2656958568 431.88001197 79.2656958568 c 0
 430.10527166 79.2656958568 428.30699602 79.1479184097 426.493164062 78.9052734375 c 0
 422.380859375 78.3544921875 418.303710938 77.802734375 414.26171875 77.248046875 c 1
253.673828125 -32.2138671875 m 1
 241.85844689 -44.7931069348 190.833715666 -95.763671875 139.794921875 -95.763671875 c 0
 131.903320312 -95.763671875 126.879882812 -94.1513671875 124.380859375 -93.0478515625 c 0
 128.000976562 -82.5615234375 139.946289062 -58.865234375 253.673828125 -32.2138671875 c 1
EndSplineSet
EndChar

StartChar: z
Encoding: 122 122 90
Width: 500
Flags: HW
LayerCount: 2
Fore
SplineSet
200.278320312 0.4736328125 m 0
 232.364503638 0.4736328125 267.588143361 -14.8247251997 307.850696889 -14.8247251997 c 0
 323.244055406 -14.8247251997 339.373961946 -12.5885338745 356.346679688 -6.40625 c 0
 377.34375 1.2421875 397.841796875 14.5068359375 417.712890625 33.6337890625 c 0
 426.185509093 41.7890043012 429.969457806 51.987735237 429.969457806 62.0154418342 c 0
 429.969457806 82.5934123667 414.034640573 102.451171875 389.983398438 102.451171875 c 0
 362.88671875 102.451171875 358.556640625 79.5556640625 328.99609375 68.7890625 c 0
 322.115345348 66.282803684 315.422545331 65.1756987073 307.909314052 65.1756987073 c 0
 296.701011269 65.1756987073 283.666844619 67.6395528606 265.458984375 71.59765625 c 0
 254.934570312 73.884765625 243.162109375 76.5302734375 230.102539062 78.333984375 c 1
 294.231445312 146.932617188 370.642578125 205.411132812 426.64453125 269.985351562 c 0
 451.196289062 298.295898438 472.419921875 328.309570312 485.778320312 361.962890625 c 0
 487.269108278 365.718923 488.551435155 371.13118592 488.551435155 377.198150554 c 0
 488.551435155 396.614103063 475.418154645 422.735351562 413.954101562 422.735351562 c 0
 371.23046875 422.735351562 317.993164062 410.43359375 273.846679688 410.43359375 c 0
 240.598632812 410.43359375 236.400390625 417.291992188 223.162109375 417.291992188 c 0
 201.0859375 417.291992188 183.162109375 399.368164062 183.162109375 377.291992188 c 0
 183.162109375 339.888417714 225.25783646 330.439672881 271.336805655 330.439672881 c 0
 301.491139409 330.439672881 333.351283215 334.48606611 356.236328125 337.392578125 c 0
 364.853515625 338.487304688 373.16796875 339.517578125 380.944335938 340.375 c 1
 312.953125 251.901367188 178.55078125 165.638671875 103.5546875 46.7568359375 c 0
 99.3096942318 40.0280647294 97.3805279848 32.7580436902 97.3805279848 25.6570234095 c 0
 97.3805279848 4.83014247439 113.97550355 -14.54296875 137.41015625 -14.54296875 c 0
 157.071289062 -14.54296875 164.956054688 0.4736328125 200.278320312 0.4736328125 c 0
EndSplineSet
EndChar

StartChar: braceleft
Encoding: 123 123 91
Width: 500
Flags: HW
LayerCount: 2
Fore
SplineSet
158.928710938 63.279296875 m 0
 158.928710938 35.4033203125 169.279296875 -32.4560546875 270.071289062 -32.4560546875 c 0
 287.272460938 -32.4560546875 306.129882812 -30.6142578125 327.448242188 -27.013671875 c 0
 346.340820312 -23.822265625 360.749023438 -7.3671875 360.749023438 12.4267578125 c 0
 360.749023438 34.5029296875 342.825195312 52.4267578125 320.749023438 52.4267578125 c 0
 313.225585938 52.4267578125 293.598632812 47.5439453125 270.071289062 47.5439453125 c 0
 250.80078125 47.5439453125 242.650390625 51.53515625 241.174804688 52.564453125 c 0
 239.138671875 53.9853515625 238.928710938 60.61328125 238.928710938 63.279296875 c 0
 238.928710938 116.949594774 300.136848952 217.261883866 300.136848952 300.669773162 c 0
 300.136848952 324.159458919 295.282295139 346.308419061 282.838867188 365.697265625 c 1
 393.007532243 431.106615684 361.034844989 576.36181797 394.1484375 640.681640625 c 0
 400.833984375 653.66796875 414.758789062 678.844726562 481.504882812 678.844726562 c 0
 486.893554688 678.844726562 489.90625 678.692382812 491.328125 678.692382812 c 0
 513.404296875 678.692382812 531.328125 696.616210938 531.328125 718.692382812 c 0
 531.328125 740.356445312 514.068359375 758.021484375 492.561523438 758.673828125 c 0
 488.902496121 758.784814331 484.78945611 758.873286351 480.305706482 758.873286351 c 0
 437.486141547 758.873286351 360.857318104 750.804508906 322.973632812 677.219726562 c 0
 278.990234375 591.7890625 311.139648438 476.377929688 242.775390625 434.953125 c 0
 230.174804688 427.317382812 212.291992188 420.736328125 186.194335938 417.444335938 c 0
 166.49609375 414.959960938 151.241210938 398.127929688 151.241210938 377.760742188 c 0
 151.241210938 358.326171875 165.131835938 342.109375 183.517578125 338.506835938 c 0
 213.751953125 332.583007812 220.265625 322.009765625 220.265625 300.604492188 c 0
 220.265625 238.592773438 158.928710938 136.0625 158.928710938 63.279296875 c 0
EndSplineSet
EndChar

StartChar: bar
Encoding: 124 124 92
Width: 500
Flags: HW
LayerCount: 2
Fore
SplineSet
450.979492188 732.873046875 m 0
 451.024740454 733.659639801 451.047064436 734.441866469 451.047064436 735.219107993 c 0
 451.047064436 757.20509939 433.184171925 775.202148438 411.045898438 775.202148438 c 0
 389.750976562 775.202148438 372.3203125 758.525390625 371.112304688 737.53125 c 0
 359.733350248 539.663875578 194.537109375 53.4705445588 194.537109375 6.6611328125 c 0
 194.537109375 -15.4150390625 212.4609375 -33.3388671875 234.537109375 -33.3388671875 c 0
 254.895507812 -33.3388671875 271.721679688 -18.0966796875 274.217773438 1.587890625 c 0
 281.116210938 55.9951171875 439.334960938 530.442382812 450.979492188 732.873046875 c 0
EndSplineSet
EndChar

StartChar: braceright
Encoding: 125 125 93
Width: 500
Flags: HW
LayerCount: 2
Fore
SplineSet
106.962890625 15.1259765625 m 0
 106.962890625 -26.0623103428 159.822943195 -31.1220703125 185.80078125 -31.1220703125 c 0
 274.661132812 -31.1220703125 343.631835938 47.2080078125 348.943359375 156.418945312 c 0
 353.646484375 253.124023438 382.120117188 337.038085938 466.34375 355.932617188 c 0
 484.203125 359.938476562 497.563476562 375.903320312 497.563476562 394.963867188 c 0
 497.563476562 416.89453125 479.876953125 434.7265625 458.001953125 434.961914062 c 0
 426.69556277 435.298703465 411.347201242 440.036232453 411.347201242 468.54709152 c 0
 411.347201242 487.818993894 418.359987264 517.953116094 432.197265625 564.932617188 c 0
 436.776367188 580.482421875 441.443359375 596.272460938 445.329101562 611.966796875 c 0
 449.661998376 629.469336983 451.656608036 645.382057016 451.656608036 659.715017479 c 0
 451.656608036 725.702962691 409.378521573 758.206054688 358.360351562 758.206054688 c 0
 334.51953125 758.206054688 309.649414062 751.953125 281.786132812 740.55078125 c 0
 267.19921875 734.581054688 256.911132812 720.239257812 256.911132812 703.513671875 c 0
 256.911132812 680.494895769 275.884944199 663.48419506 296.966527099 663.48419506 c 0
 301.946220139 663.48419506 307.04351722 664.433314603 312.036132812 666.4765625 c 0
 312.471457952 666.654907995 341.167736426 678.379625461 358.714720773 678.379625461 c 0
 362.305696337 678.379625461 365.429725218 677.888579313 367.749023438 676.70703125 c 0
 370.3671875 675.373046875 371.668945312 666.537109375 371.668945312 659.740234375 c 0
 371.668945312 618.561714965 331.524150634 538.137935216 331.524150634 468.635778943 c 0
 331.524150634 439.241908173 338.704511062 411.801495969 359.138671875 390.109375 c 1
 291.60546875 332.177734375 272.694335938 235.513671875 269.0390625 160.362304688 c 0
 266.41015625 106.30078125 239.076171875 48.8779296875 185.80078125 48.8779296875 c 0
 166.614257812 48.8779296875 159.15625 55.1259765625 146.962890625 55.1259765625 c 0
 124.88671875 55.1259765625 106.962890625 37.2021484375 106.962890625 15.1259765625 c 0
EndSplineSet
EndChar

StartChar: asciitilde
Encoding: 126 126 94
Width: 500
Flags: HW
LayerCount: 2
Fore
SplineSet
199.08203125 352.495117188 m 0
 194.002432614 345.332479462 191.706311229 337.399104866 191.706311229 329.643823309 c 0
 191.706311229 308.879876019 208.165921196 289.392578125 231.731445312 289.392578125 c 0
 245.205078125 289.392578125 257.131835938 296.068359375 264.380859375 306.290039062 c 0
 277.666015625 325.022460938 288.458007812 337.614257812 296.029296875 344.869140625 c 1
 314.230819546 309.510444944 314.230819546 309.510444944 320.129882812 302.467773438 c 0
 323.853480315 298.022670101 341.182009025 279.158830676 367.118654468 279.158830676 c 0
 381.553226027 279.158830676 398.653970628 285.001486127 417.559570312 302.423828125 c 0
 434.284179688 317.834960938 450.35546875 339.44921875 470.279296875 371.548828125 c 0
 474.416729781 378.214705914 476.298494862 385.394730076 476.298494862 392.407287087 c 0
 476.298494862 413.243149872 459.685972729 432.600585938 436.268554688 432.600585938 c 0
 421.9140625 432.600585938 409.315429688 425.022460938 402.2578125 413.65234375 c 0
 390.092773438 394.052734375 379.798828125 380.166992188 372.267578125 371.147460938 c 1
 363.197265625 390.241210938 359.858398438 397.270507812 350.065429688 408.612304688 c 0
 341.600410033 418.415727349 324.470921683 432.224288027 301.193806751 432.224288027 c 0
 287.021002539 432.224288027 270.569112118 427.105092872 252.40625 412.845703125 c 0
 235.188476562 399.329101562 218.73828125 380.2109375 199.08203125 352.495117188 c 0
EndSplineSet
EndChar

StartChar: lessequal.ligature
Encoding: 256 -1 95
Width: 1000
VWidth: 0
GlyphClass: 3
Flags: HW
LayerCount: 2
Fore
SplineSet
314.374023438 270.833984375 m 0
 309.106481493 273.144464568 303.695436229 274.213951985 298.41080808 274.213951985 c 0
 277.372046471 274.213951985 258.336914062 257.263270736 258.336914062 234.18359375 c 0
 258.336914062 217.80859375 268.197265625 203.71875 282.299804688 197.533203125 c 0
 417.551757812 138.20703125 609.965820312 68.466796875 732.366210938 40.822265625 c 0
 735.352562165 40.1477172487 738.323196209 39.8258624546 741.239149753 39.8258624546 c 0
 762.702400767 39.8258624546 781.203125 57.2635860947 781.203125 79.8408203125 c 0
 781.203125 98.8818359375 767.870117188 114.833007812 750.040039062 118.859375 c 0
 637.159179688 144.353515625 444.954101562 213.556640625 314.374023438 270.833984375 c 0
890.2890625 518.10546875 m 0
 890.2890625 541.26794071 871.172383606 558.137066997 850.189100792 558.137066997 c 0
 844.48409692 558.137066997 838.641112713 556.890092394 833.006835938 554.18359375 c 0
 751.755084834 515.155188136 373.475136616 441.786301417 301.5078125 393.428710938 c 0
 292.446716688 387.338739203 283.551978463 374.720931216 283.551978463 360.051221243 c 0
 283.551978463 348.052071876 289.502993324 334.680099733 306.181640625 322.384765625 c 0
 370.690429688 274.829101562 672.322265625 211.7265625 752.728515625 163.780273438 c 0
 759.23715065 159.899142473 766.197667924 158.130472536 772.994763897 158.130472536 c 0
 793.852763746 158.130472536 813.171875 174.785498336 813.171875 198.161132812 c 0
 813.171875 234.305583698 777.028349653 251.65062452 548.04296875 319.625976562 c 0
 504.1953125 332.641601562 461.565429688 345.31640625 426.748046875 356.90625 c 1
 568.748046875 399.670898438 797.662109375 448.446289062 867.571289062 482.02734375 c 0
 881.005859375 488.48046875 890.2890625 502.216796875 890.2890625 518.10546875 c 0
EndSplineSet
Ligature2: "ligatures-1" less equal
EndChar

StartChar: greaterequal.ligature
Encoding: 257 -1 96
Width: 1000
VWidth: 0
GlyphClass: 3
Flags: HW
LayerCount: 2
Fore
SplineSet
214.237304688 67.18359375 m 0
 214.237304688 44.4571884624 232.902204478 27.1629925927 254.221998584 27.1629925927 c 0
 257.806006993 27.1629925927 261.465042693 27.6517264216 265.123046875 28.685546875 c 0
 317.493164062 43.484375 380.134765625 60.185546875 443.967773438 77.201171875 c 0
 809.341452778 174.598687444 829.119140625 184.214736466 829.119140625 222.319335938 c 0
 829.119140625 245.594878633 809.893029279 262.351245882 788.978862224 262.351245882 c 0
 782.693557907 262.351245882 776.25579277 260.837854193 770.141601562 257.533203125 c 0
 736.337968952 239.263080416 607.988157551 203.733822117 423.3359375 154.510742188 c 0
 359.487304688 137.491210938 296.59765625 120.728515625 243.3515625 105.681640625 c 0
 226.55859375 100.936523438 214.237304688 85.4873046875 214.237304688 67.18359375 c 0
263.286132812 220.100585938 m 0
 250.882862174 211.936649247 245.339817035 199.544474594 245.339817035 187.252383925 c 0
 245.339817035 166.819954765 260.655519082 146.6640625 285.237304688 146.6640625 c 0
 307.2366744 146.6640625 299.543255446 157.972761374 388.176757812 186.310546875 c 0
 537.322265625 233.993164062 769.198242188 277.02734375 850.428710938 331 c 0
 862.326464537 338.905003398 868.302936165 351.622453172 868.302936165 364.349207329 c 0
 868.302936165 376.789113196 862.592835819 389.237908748 851.12109375 397.209960938 c 0
 750.568534052 467.085780429 440.064336566 502.731797854 389.740234375 539.547851562 c 1
 381.669543134 547.504677237 371.784270392 551.061776556 362.075047092 551.061776556 c 0
 341.473742101 551.061776556 321.665039062 535.047162536 321.665039062 511.067382812 c 0
 321.665039062 463.241210938 401.333007812 444.051757812 551.788085938 409.764648438 c 0
 609.715820312 396.564453125 678.40625 380.899414062 728.75 364.630859375 c 1
 583.724609375 315.817382812 341.9765625 271.893554688 263.286132812 220.100585938 c 0
EndSplineSet
Ligature2: "ligatures-1" greater equal
EndChar

StartChar: notequal.ligature
Encoding: 258 -1 97
Width: 1000
VWidth: 0
GlyphClass: 3
Flags: HW
LayerCount: 2
Fore
SplineSet
526.269798995 249.066623411 m 1
 527.009787053 249.059965068 527.793117994 249.056730665 528.618883079 249.056730665 c 0
 556.801765261 249.056730665 634.41267 252.82421875 725.325195312 252.82421875 c 0
 791.465820312 252.82421875 818.94921875 251.083984375 820.568359375 251.083984375 c 0
 842.64453125 251.083984375 860.568359375 269.0078125 860.568359375 291.083984375 c 0
 860.568359375 312.41796875 843.830078125 329.874023438 822.78125 331.0234375 c 0
 821.196781028 331.110361608 784.02167837 332.840482592 720.097186835 332.840482592 c 0
 688.473809928 332.840482592 650.304134761 332.417075237 606.658537186 331.161865777 c 1
 626.742775146 351.699762553 646.79115308 372.348043771 666.499983394 393.079503774 c 1
 699.085193316 393.789876757 729.761594207 394.0859375 756.788085938 394.0859375 c 0
 822.91796875 394.0859375 850.390625 392.345703125 852.010742188 392.345703125 c 0
 874.086914062 392.345703125 892.010742188 410.26953125 892.010742188 432.345703125 c 0
 892.010742188 453.6796875 875.272460938 471.135742188 854.223632812 472.28515625 c 0
 852.639259166 472.372075128 815.471670336 474.10199317 751.555103492 474.10199317 c 0
 748.04784304 474.10199317 744.460041712 474.096784406 740.793159104 474.085809603 c 1
 757.782707396 493.471802213 774.141407227 512.899002313 789.626953125 532.345703125 c 0
 795.635407493 539.891019998 798.338608065 548.501255939 798.338608065 556.928800813 c 0
 798.338608065 577.632900439 782.023542596 597.234375 758.3203125 597.234375 c 0
 745.6484375 597.234375 734.344726562 591.329101562 727.013671875 582.123046875 c 0
 697.937343701 545.608967685 665.406384969 508.930111832 631.15200009 472.217236913 c 1
 568.045874375 470.298828125 568.045874375 470.298828125 566.005859375 470.298828125 c 0
 519.526367188 470.298828125 463.225585938 474.670898438 409.778320312 474.670898438 c 0
 379.499023438 474.670898438 349.662109375 473.350585938 321.60546875 468.576171875 c 0
 302.737304688 465.365234375 288.352539062 448.920898438 288.352539062 429.143554688 c 0
 288.352539062 407.067382812 306.276367188 389.143554688 328.352539062 389.143554688 c 0
 337.052734375 389.143554688 353.3125 394.670898438 409.778320312 394.670898438 c 0
 457.370197167 394.670898438 507.074078181 391.025959871 552.659425873 390.386242518 c 1
 532.921521473 370.190608548 513.051156866 350.014100114 493.33702312 329.878522021 c 1
 456.669175817 331.148703781 416.765120997 333.409179675 378.336914062 333.409179688 c 0
 348.057617188 333.409179688 318.219726562 332.088867188 290.163085938 327.314453125 c 0
 271.294921875 324.103515625 256.91015625 307.659179688 256.91015625 287.881835938 c 0
 256.91015625 265.805664062 274.833984375 247.881835938 296.91015625 247.881835938 c 0
 305.610351562 247.881835938 321.870117188 253.409179688 378.336914062 253.409179688 c 0
 391.735717494 253.409179688 405.30346882 253.120154651 418.900475009 252.690605543 c 1
 398.632384251 231.179242903 378.973464028 209.747607535 360.283203125 188.422851562 c 0
 353.433995894 180.608224363 350.362641672 171.427434305 350.362641672 162.429076532 c 0
 350.362641672 141.772422422 366.548038378 122.077148438 390.372070312 122.077148438 c 0
 402.362304688 122.077148438 413.126953125 127.364257812 420.4609375 135.731445312 c 0
 452.99775357 172.854811335 488.962023197 210.695433724 526.269798995 249.066623411 c 1
EndSplineSet
Ligature2: "ligatures-1" exclam equal
EndChar

StartChar: plusplus.ligature
Encoding: 259 -1 98
Width: 1000
VWidth: 0
GlyphClass: 3
Flags: HW
LayerCount: 2
Fore
SplineSet
779.438404667 399.482703555 m 1
 779.635329005 400.434238048 795.814847808 478.888442009 799.104492188 494.641601562 c 0
 799.684227022 497.418013527 799.961666962 500.176590227 799.961666962 502.886568305 c 0
 799.961666962 524.39823719 782.479887594 542.84765625 759.948242188 542.84765625 c 0
 740.68359375 542.84765625 724.58203125 529.19921875 720.791992188 511.053710938 c 0
 720.553484406 509.911397657 701.396922065 417.26736548 697.118922408 396.785422739 c 1
 686.197693768 396.57292593 665.93359375 396.44921875 665.93359375 396.44921875 c 1
 592.021484375 396.44921875 587.893554688 400.916015625 546.388671875 400.916015625 c 0
 526.284631063 400.916015625 503.21102794 400.00582846 479.307658939 398.850981932 c 1
 479.505914268 399.80882877 495.861821514 479.113385559 499.104492188 494.641601562 c 0
 499.684227022 497.418013527 499.961666962 500.176590227 499.961666962 502.886568305 c 0
 499.961666962 524.39823719 482.479887594 542.84765625 459.948242188 542.84765625 c 0
 440.68359375 542.84765625 424.58203125 529.19921875 420.791992188 511.053710938 c 0
 420.549559046 509.892597473 401.374304592 417.147484954 396.726151985 394.905450538 c 1
 383.413209455 394.420960065 358.715272411 394.10638194 358.557512435 394.10638194 c 0
 358.557006531 394.10638194 358.556752987 394.106385175 358.556752987 394.10639165 c 0
 358.556752987 394.10640171 358.557365093 394.106419592 358.55859375 394.106445312 c 1
 324.263671875 394.106445312 316.485351562 396.84765625 309.948242188 396.84765625 c 0
 287.872070312 396.84765625 269.948242188 378.923828125 269.948242188 356.84765625 c 0
 269.948242188 336.858398438 284.642578125 320.2734375 303.809570312 317.31640625 c 0
 319.11538696 314.955085641 338.123607851 314.08496896 359.150219536 314.08496896 c 0
 365.788194198 314.08496896 372.627327111 314.171687126 379.614634309 314.325582247 c 1
 370.647040834 272.99241504 362.510554973 237.343080611 357.467773438 219.607421875 c 0
 356.421865281 215.929441 355.927547627 212.249621557 355.927547627 208.645434351 c 0
 355.927547627 187.330146053 373.216706382 168.66015625 395.948242188 168.66015625 c 0
 414.229492188 168.66015625 429.663085938 180.951171875 434.428710938 197.712890625 c 0
 441.360681302 222.090857586 451.64220195 267.86444456 462.330695627 317.89436999 c 1
 492.437294905 319.461225701 521.670172587 320.916015625 546.388671875 320.916015625 c 0
 582.053710938 320.916015625 589.831054688 316.44921875 665.93359375 316.44921875 c 0
 670.524743874 316.44921875 675.255638493 316.474094033 680.090510431 316.520700383 c 1
 670.935391146 274.257157357 662.599611966 237.656297518 657.467773438 219.607421875 c 0
 656.421865281 215.929441 655.927547627 212.249621557 655.927547627 208.645434351 c 0
 655.927547627 187.330146053 673.216706382 168.66015625 695.948242188 168.66015625 c 0
 714.229492188 168.66015625 729.663085938 180.951171875 734.428710938 197.712890625 c 0
 741.398140521 222.22259208 751.753419028 268.359775099 762.504007361 318.705800436 c 1
 808.210835699 320.475623712 846.050647988 322.64616224 847.122070312 322.676757812 c 0
 868.65625 323.298828125 885.948242188 340.9765625 885.948242188 362.66015625 c 0
 885.948242188 384.736328125 868.024414062 402.66015625 845.948242188 402.66015625 c 0
 845.033936577 402.66015625 816.416349939 401.059057905 779.438404667 399.482703555 c 1
EndSplineSet
Ligature2: "ligatures-1" plus plus
EndChar

StartChar: rightequal
Encoding: 260 -1 99
Width: 500
VWidth: 0
Flags: HW
LayerCount: 2
Fore
SplineSet
277.5859375 396.544921875 m 0
 369.71484375 396.544921875 450.265625 392.345703125 452.010742188 392.345703125 c 0
 474.086914062 392.345703125 492.010742188 410.26953125 492.010742188 432.345703125 c 0
 492.010742188 453.6796875 475.272460938 471.135742188 454.223632812 472.28515625 c 0
 453.096274913 472.346905118 365.822078149 476.624733132 276.621838557 476.624733132 c 0
 217.697759761 476.624733132 157.93321622 474.758023013 121.60546875 468.576171875 c 0
 102.737304688 465.365234375 88.3525390625 448.920898438 88.3525390625 429.143554688 c 0
 88.3525390625 406.720342562 106.680473542 389.13403641 128.308731476 389.13403641 c 0
 130.542668042 389.13403641 132.811813723 389.321653857 135.099609375 389.7109375 c 0
 162.87109375 394.4375 220.5390625 396.544921875 277.5859375 396.544921875 c 0
246.143554688 255.283203125 m 0
 338.272460938 255.283203125 418.823242188 251.083984375 420.568359375 251.083984375 c 0
 442.64453125 251.083984375 460.568359375 269.0078125 460.568359375 291.083984375 c 0
 460.568359375 312.41796875 443.830078125 329.874023438 422.78125 331.0234375 c 0
 421.653892101 331.085186368 334.379695336 335.363014382 245.179455745 335.363014382 c 0
 186.255376949 335.363014382 126.490833407 333.496304263 90.1630859375 327.314453125 c 0
 71.294921875 324.103515625 56.91015625 307.659179688 56.91015625 287.881835938 c 0
 56.91015625 265.458623812 75.2380907292 247.87231766 96.8663486639 247.87231766 c 0
 99.1002852299 247.87231766 101.36943091 248.059935107 103.657226562 248.44921875 c 0
 131.428710938 253.17578125 189.096679688 255.283203125 246.143554688 255.283203125 c 0
EndSplineSet
Substitution2: "longequal-1" longequal
EndChar

StartChar: lefthyphen
Encoding: 261 -1 100
Width: 500
VWidth: 0
Flags: HW
LayerCount: 2
Fore
SplineSet
345.630859375 328.052734375 m 0
 409.548828125 328.052734375 454.11328125 325.780273438 455.208984375 325.780273438 c 0
 477.28515625 325.780273438 495.208984375 343.704101562 495.208984375 365.780273438 c 0
 495.208984375 387.125 478.454101562 404.587890625 457.389648438 405.721679688 c 0
 449.301553336 406.156870539 399.765365274 408.113828129 343.058708069 408.113828129 c 0
 289.949489727 408.113828129 230.550725402 406.397291247 193.021484375 400.106445312 c 0
 174.10546875 396.936523438 159.671875 380.469726562 159.671875 360.658203125 c 0
 159.671875 338.58203125 177.595703125 320.658203125 199.671875 320.658203125 c 0
 204.875 320.658203125 237.8984375 328.052734375 345.630859375 328.052734375 c 0
EndSplineSet
Substitution2: "longhyphen-1" longhyphen
EndChar

StartChar: leftequal
Encoding: 262 -1 101
Width: 500
VWidth: 0
Flags: HW
LayerCount: 2
Fore
SplineSet
377.5859375 396.544921875 m 0
 469.71484375 396.544921875 550.265625 392.345703125 552.010742188 392.345703125 c 0
 574.086914062 392.345703125 592.010742188 410.26953125 592.010742188 432.345703125 c 0
 592.010742188 453.6796875 575.272460938 471.135742188 554.223632812 472.28515625 c 0
 553.096274913 472.346905118 465.822078149 476.624733132 376.621838557 476.624733132 c 0
 317.697759761 476.624733132 257.93321622 474.758023013 221.60546875 468.576171875 c 0
 202.737304688 465.365234375 188.352539062 448.920898438 188.352539062 429.143554688 c 0
 188.352539062 406.720342562 206.680473542 389.13403641 228.308731476 389.13403641 c 0
 230.542668042 389.13403641 232.811813723 389.321653857 235.099609375 389.7109375 c 0
 262.87109375 394.4375 320.5390625 396.544921875 377.5859375 396.544921875 c 0
346.143554688 255.283203125 m 0
 438.272460938 255.283203125 518.823242188 251.083984375 520.568359375 251.083984375 c 0
 542.64453125 251.083984375 560.568359375 269.0078125 560.568359375 291.083984375 c 0
 560.568359375 312.41796875 543.830078125 329.874023438 522.78125 331.0234375 c 0
 521.653892101 331.085186368 434.379695336 335.363014382 345.179455745 335.363014382 c 0
 286.255376949 335.363014382 226.490833407 333.496304263 190.163085938 327.314453125 c 0
 171.294921875 324.103515625 156.91015625 307.659179688 156.91015625 287.881835938 c 0
 156.91015625 265.458623812 175.238090729 247.87231766 196.866348664 247.87231766 c 0
 199.10028523 247.87231766 201.36943091 248.059935107 203.657226562 248.44921875 c 0
 231.428710938 253.17578125 289.096679688 255.283203125 346.143554688 255.283203125 c 0
EndSplineSet
Substitution2: "longequal-1" longequal
EndChar

StartChar: leftarrowhead
Encoding: 263 -1 102
Width: 500
VWidth: 0
Flags: HW
LayerCount: 2
Fore
SplineSet
433.171875 198.161132812 m 0
 433.171875 238.074588931 394.754709977 228.084756 316.136754821 311.489583815 c 1
 346.507078637 309.477710808 380.229381528 308.026352628 414.315726381 308.026352628 c 0
 461.808769761 308.026352628 510.008538346 310.843916297 550.833007812 318.888671875 c 0
 569.19921875 322.506835938 583.068359375 338.713867188 583.068359375 358.133789062 c 0
 583.068359375 380.209960938 565.14453125 398.133789062 543.068359375 398.133789062 c 0
 533.513671875 398.133789062 501.256835938 388.067382812 413.626953125 388.067382812 c 0
 386.995166103 388.067382812 361.175915092 388.980411478 337.593813442 390.305640926 c 1
 392.538024364 428.030106212 442.198579778 460.232631068 487.571289062 482.02734375 c 0
 501.005859375 488.48046875 510.2890625 502.216796875 510.2890625 518.10546875 c 0
 510.2890625 541.26794071 491.172383606 558.137066997 470.189100792 558.137066997 c 0
 464.48409692 558.137066997 458.641112713 556.890092394 453.006835938 554.18359375 c 0
 384.178710938 521.123046875 308.872070312 468.10546875 249.610351562 426.67578125 c 0
 183.972609974 380.790685713 183.779296875 380.655547015 183.779296875 360.205078125 c 1
 183.779296875 346.523497423 186.920474065 342.501532612 202.4609375 322.603515625 c 0
 234.44921875 281.642578125 285.833007812 215.595703125 372.728515625 163.780273438 c 0
 379.23715065 159.899142473 386.197667924 158.130472536 392.994763897 158.130472536 c 0
 413.852763746 158.130472536 433.171875 174.785498336 433.171875 198.161132812 c 0
EndSplineSet
EndChar

StartChar: rightarrowhead
Encoding: 264 -1 103
Width: 500
VWidth: 0
Flags: HW
LayerCount: 2
Fore
SplineSet
163.286132812 220.100585938 m 0
 150.882862174 211.936649247 145.339817035 199.544474594 145.339817035 187.252383925 c 0
 145.339817035 166.819954765 160.655519082 146.6640625 185.237304688 146.6640625 c 0
 199.235105028 146.6640625 199.235105028 146.6640625 344.954101562 246.135742188 c 0
 449.441315469 317.460937192 469.911708806 330.627318063 471.161833537 331.498354733 c 0
 475.688696477 334.646305058 488.333007812 345.156100529 488.333007812 364.33984375 c 1
 488.333007812 369.956936676 486.885718275 386.254658055 471.12109375 397.209960938 c 0
 376.01953125 463.297851562 333.749023438 495.515625 289.952148438 539.337890625 c 0
 281.85554862 547.438898297 271.88166763 551.059361418 262.082579059 551.059361418 c 0
 241.487764903 551.059361418 221.665039062 535.067150229 221.665039062 511.067382812 c 0
 221.665039062 500.033203125 226.142578125 490.036132812 233.377929688 482.796875 c 0
 262.842519864 453.315724402 291.936563735 428.48816823 331.24649485 398.929006513 c 1
 327.78467997 398.914670236 324.21734464 398.907226562 320.541015625 398.907226562 c 0
 315.328125 398.907226562 187.8203125 399.88671875 186.479492188 399.88671875 c 0
 154.829101562 399.88671875 126.591796875 399.390625 103.586914062 397.1640625 c 0
 83.3349609375 395.204101562 67.48046875 378.115234375 67.48046875 357.3515625 c 0
 67.48046875 335.275390625 85.404296875 317.3515625 107.48046875 317.3515625 c 0
 108.270507812 317.3515625 130.163085938 319.88671875 186.479492188 319.88671875 c 0
 224.057165452 319.88671875 267.313597676 319.053634761 309.811280519 318.924073365 c 1
 261.148834695 285.79069979 199.281253279 243.792242965 163.286132812 220.100585938 c 0
EndSplineSet
EndChar

StartChar: righthyphen
Encoding: 265 -1 104
Width: 500
VWidth: 0
Flags: HW
LayerCount: 2
Fore
SplineSet
307.946289062 328.052734375 m 0
 401.278320312 328.052734375 453.736328125 325.780273438 455.208984375 325.780273438 c 0
 477.28515625 325.780273438 495.208984375 343.704101562 495.208984375 365.780273438 c 0
 495.208984375 387.125 478.454101562 404.587890625 457.389648438 405.721679688 c 0
 455.537874896 405.821576613 379.594254772 408.164819598 297.097854821 408.164819598 c 0
 226.366824787 408.164819598 150.81880694 406.442287604 113.021484375 400.106445312 c 0
 94.10546875 396.936523438 79.671875 380.469726562 79.671875 360.658203125 c 0
 79.671875 338.242938553 97.9904299553 320.64944714 119.626812534 320.64944714 c 0
 121.829518983 320.64944714 124.066612706 320.831793029 126.322265625 321.209960938 c 0
 153.96875 325.84375 235.3046875 328.052734375 307.946289062 328.052734375 c 0
EndSplineSet
Substitution2: "longhyphen-1" longhyphen
EndChar

StartChar: longequal
Encoding: 266 -1 105
Width: 500
VWidth: 0
Flags: HW
LayerCount: 2
Fore
SplineSet
317.629882812 396.544921875 m 0
 450.727539062 396.544921875 549.666992188 392.345703125 552.010742188 392.345703125 c 0
 574.086914062 392.345703125 592.010742188 410.26953125 592.010742188 432.345703125 c 0
 592.010742188 453.6796875 575.272460938 471.135742188 554.223632812 472.28515625 c 0
 541.599223221 472.975024036 426.282385515 476.667644926 314.998997844 476.667644926 c 0
 235.513009804 476.667644926 158.084793319 474.783756402 121.60546875 468.576171875 c 0
 102.737304688 465.365234375 88.3525390625 448.920898438 88.3525390625 429.143554688 c 0
 88.3525390625 406.720342562 106.680473542 389.13403641 128.308731476 389.13403641 c 0
 130.542668042 389.13403641 132.811813723 389.321653857 135.099609375 389.7109375 c 0
 161.619140625 394.223632812 239.3671875 396.544921875 317.629882812 396.544921875 c 0
286.1875 255.283203125 m 0
 419.28515625 255.283203125 518.224609375 251.083984375 520.568359375 251.083984375 c 0
 542.64453125 251.083984375 560.568359375 269.0078125 560.568359375 291.083984375 c 0
 560.568359375 312.41796875 543.830078125 329.874023438 522.78125 331.0234375 c 0
 510.156840408 331.713305286 394.840002703 335.405926176 283.556615032 335.405926176 c 0
 204.070626991 335.405926176 126.642410507 333.522037652 90.1630859375 327.314453125 c 0
 71.294921875 324.103515625 56.91015625 307.659179688 56.91015625 287.881835938 c 0
 56.91015625 265.458623812 75.2380907292 247.87231766 96.8663486639 247.87231766 c 0
 99.1002852299 247.87231766 101.36943091 248.059935107 103.657226562 248.44921875 c 0
 130.176757812 252.961914062 207.924804688 255.283203125 286.1875 255.283203125 c 0
EndSplineSet
EndChar

StartChar: longhyphen
Encoding: 267 -1 106
Width: 500
VWidth: 0
Flags: HW
LayerCount: 2
Fore
SplineSet
350.26171875 328.052734375 m 0
 472.555664062 328.052734375 533.359375 325.780273438 535.208984375 325.780273438 c 0
 557.28515625 325.780273438 575.208984375 343.704101562 575.208984375 365.780273438 c 0
 575.208984375 387.125 558.454101562 404.587890625 537.389648438 405.721679688 c 0
 526.925973176 406.285100685 436.643561242 408.182219755 340.502870881 408.182219755 c 0
 248.342531367 408.182219755 150.798952775 406.438935334 113.021484375 400.106445312 c 0
 94.10546875 396.936523438 79.671875 380.469726562 79.671875 360.658203125 c 0
 79.671875 338.58203125 97.595703125 320.658203125 119.671875 320.658203125 c 0
 121.978515625 320.658203125 161.9140625 328.052734375 350.26171875 328.052734375 c 0
EndSplineSet
EndChar
